<ttFont>
<head>
    <!-- Most of this table will be recalculated by the compiler -->
    <tableVersion value="1.0"/>
    <fontRevision value="1.19999694824"/>
    <checkSumAdjustment value="0xc0d96d6c"/>
    <magicNumber value="0x5f0f3cf5"/>
    <flags value="00000000 00001111"/>
    <unitsPerEm value="2048"/>
    <created value="Fri Oct 12 14:06:14 2001"/>
    <modified value="Fri Oct 12 10:57:50 2001"/>
    <xMin value="-416"/>
    <yMin value="-432"/>
    <xMax value="2014"/>
    <yMax value="2033"/>
    <macStyle value="00000000 00000000"/>
    <lowestRecPPEM value="12"/>
    <fontDirectionHint value="2"/>
    <indexToLocFormat value="0"/>
    <glyphDataFormat value="0"/>
  </head>
    <TTGlyph name=".notdef" xMin="51" yMin="0" xMax="461" yMax="1480">
      <contour>
        <pt x="51" y="0" on="1"/>
        <pt x="51" y="1480" on="1"/>
        <pt x="461" y="1480" on="1"/>
        <pt x="461" y="0" on="1"/>
      </contour>
      <contour>
        <pt x="410" y="51" on="1"/>
        <pt x="410" y="1429" on="1"/>
        <pt x="102" y="1429" on="1"/>
        <pt x="102" y="51" on="1"/>
      </contour>
    </TTGlyph>
    <TTGlyph name="A" xMin="0" yMin="0" xMax="1479" yMax="1499">
      <contour>
        <pt x="0" y="0" on="1"/>
        <pt x="0" y="62" on="1"/>
        <pt x="22" y="63" on="1"/>
        <pt x="86" y="67" on="0"/>
        <pt x="102" y="87" on="1"/>
        <pt x="117" y="103" on="0"/>
        <pt x="139" y="154" on="1"/>
        <pt x="185" y="259" on="1"/>
        <pt x="706" y="1499" on="1"/>
        <pt x="776" y="1499" on="1"/>
        <pt x="1295" y="252" on="1"/>
        <pt x="1345" y="149" on="1"/>
        <pt x="1385" y="67" on="0"/>
        <pt x="1457" y="63" on="1"/>
        <pt x="1479" y="62" on="1"/>
        <pt x="1479" y="0" on="1"/>
        <pt x="990" y="0" on="1"/>
        <pt x="990" y="62" on="1"/>
        <pt x="1008" y="62" on="1"/>
        <pt x="1111" y="62" on="0"/>
        <pt x="1111" y="106" on="1"/>
        <pt x="1111" y="160" on="0"/>
        <pt x="1069" y="259" on="1"/>
        <pt x="986" y="456" on="1"/>
        <pt x="352" y="456" on="1"/>
        <pt x="267" y="259" on="1"/>
        <pt x="250" y="220" on="0"/>
        <pt x="245" y="205" on="1"/>
        <pt x="223" y="135" on="1"/>
        <pt x="217" y="116" on="0"/>
        <pt x="217" y="102" on="1"/>
        <pt x="217" y="62" on="0"/>
        <pt x="309" y="62" on="1"/>
        <pt x="325" y="62" on="1"/>
        <pt x="325" y="0" on="1"/>
      </contour>
      <contour>
        <pt x="385" y="537" on="1"/>
        <pt x="950" y="537" on="1"/>
        <pt x="669" y="1211" on="1"/>
      </contour>
    </TTGlyph>
    <TTGlyph name="AE" xMin="0" yMin="0" xMax="1771" yMax="1480">
      <contour>
        <pt x="0" y="0" on="1"/>
        <pt x="0" y="62" on="1"/>
        <pt x="17" y="63" on="1"/>
        <pt x="78" y="68" on="0"/>
        <pt x="128" y="151" on="1"/>
        <pt x="194" y="258" on="1"/>
        <pt x="938" y="1480" on="1"/>
        <pt x="1716" y="1480" on="1"/>
        <pt x="1716" y="1221" on="1"/>
        <pt x="1605" y="1221" on="1"/>
        <pt x="1604" y="1240" on="1"/>
        <pt x="1598" y="1324" on="1"/>
        <pt x="1597" y="1380" on="0"/>
        <pt x="1580" y="1390" on="1"/>
        <pt x="1563" y="1399" on="0"/>
        <pt x="1525" y="1399" on="1"/>
        <pt x="1422" y="1400" on="1"/>
        <pt x="1151" y="1400" on="1"/>
        <pt x="1151" y="808" on="1"/>
        <pt x="1379" y="808" on="1"/>
        <pt x="1442" y="811" on="1"/>
        <pt x="1490" y="812" on="0"/>
        <pt x="1500" y="823" on="1"/>
        <pt x="1507" y="833" on="0"/>
        <pt x="1510" y="859" on="1"/>
        <pt x="1511" y="866" on="1"/>
        <pt x="1510" y="873" on="1"/>
        <pt x="1512" y="878" on="0"/>
        <pt x="1512" y="883" on="1"/>
        <pt x="1512" y="897" on="1"/>
        <pt x="1513" y="913" on="1"/>
        <pt x="1515" y="931" on="1"/>
        <pt x="1607" y="931" on="1"/>
        <pt x="1607" y="605" on="1"/>
        <pt x="1515" y="605" on="1"/>
        <pt x="1513" y="623" on="1"/>
        <pt x="1506" y="708" on="0"/>
        <pt x="1482" y="717" on="1"/>
        <pt x="1457" y="728" on="0"/>
        <pt x="1379" y="728" on="1"/>
        <pt x="1151" y="728" on="1"/>
        <pt x="1151" y="259" on="1"/>
        <pt x="1152" y="123" on="0"/>
        <pt x="1191" y="105" on="1"/>
        <pt x="1227" y="86" on="0"/>
        <pt x="1321" y="86" on="1"/>
        <pt x="1427" y="86" on="1"/>
        <pt x="1568" y="92" on="1"/>
        <pt x="1651" y="93" on="0"/>
        <pt x="1656" y="162" on="1"/>
        <pt x="1659" y="253" on="1"/>
        <pt x="1660" y="271" on="1"/>
        <pt x="1771" y="271" on="1"/>
        <pt x="1771" y="0" on="1"/>
        <pt x="756" y="0" on="1"/>
        <pt x="756" y="62" on="1"/>
        <pt x="774" y="63" on="1"/>
        <pt x="842" y="68" on="1"/>
        <pt x="910" y="73" on="0"/>
        <pt x="921" y="95" on="1"/>
        <pt x="932" y="115" on="0"/>
        <pt x="935" y="160" on="1"/>
        <pt x="941" y="259" on="1"/>
        <pt x="941" y="456" on="1"/>
        <pt x="403" y="456" on="1"/>
        <pt x="281" y="258" on="1"/>
        <pt x="255" y="215" on="0"/>
        <pt x="235" y="179" on="1"/>
        <pt x="229" y="167" on="1"/>
        <pt x="219" y="150" on="0"/>
        <pt x="212" y="138" on="1"/>
        <pt x="205" y="125" on="1"/>
        <pt x="204" y="122" on="0"/>
        <pt x="202" y="120" on="1"/>
        <pt x="192" y="105" on="0"/>
        <pt x="192" y="91" on="1"/>
        <pt x="192" y="65" on="0"/>
        <pt x="265" y="65" on="1"/>
        <pt x="269" y="65" on="1"/>
        <pt x="274" y="65" on="0"/>
        <pt x="288" y="64" on="1"/>
        <pt x="306" y="64" on="1"/>
        <pt x="328" y="63" on="1"/>
        <pt x="351" y="62" on="1"/>
        <pt x="351" y="0" on="1"/>
      </contour>
      <contour>
        <pt x="455" y="537" on="1"/>
        <pt x="941" y="537" on="1"/>
        <pt x="941" y="1338" on="1"/>
      </contour>
    </TTGlyph>
    <TTGlyph name="Aacute" xMin="0" yMin="0" xMax="1479" yMax="1925">
      <contour>
        <pt x="0" y="0" on="1"/>
        <pt x="0" y="62" on="1"/>
        <pt x="22" y="63" on="1"/>
        <pt x="86" y="67" on="0"/>
        <pt x="102" y="87" on="1"/>
        <pt x="117" y="103" on="0"/>
        <pt x="139" y="154" on="1"/>
        <pt x="185" y="259" on="1"/>
        <pt x="706" y="1499" on="1"/>
        <pt x="776" y="1499" on="1"/>
        <pt x="1295" y="252" on="1"/>
        <pt x="1345" y="149" on="1"/>
        <pt x="1385" y="67" on="0"/>
        <pt x="1457" y="63" on="1"/>
        <pt x="1479" y="62" on="1"/>
        <pt x="1479" y="0" on="1"/>
        <pt x="990" y="0" on="1"/>
        <pt x="990" y="62" on="1"/>
        <pt x="1008" y="62" on="1"/>
        <pt x="1111" y="62" on="0"/>
        <pt x="1111" y="106" on="1"/>
        <pt x="1111" y="160" on="0"/>
        <pt x="1069" y="259" on="1"/>
        <pt x="986" y="456" on="1"/>
        <pt x="352" y="456" on="1"/>
        <pt x="267" y="259" on="1"/>
        <pt x="250" y="220" on="0"/>
        <pt x="245" y="205" on="1"/>
        <pt x="223" y="135" on="1"/>
        <pt x="217" y="116" on="0"/>
        <pt x="217" y="102" on="1"/>
        <pt x="217" y="62" on="0"/>
        <pt x="309" y="62" on="1"/>
        <pt x="325" y="62" on="1"/>
        <pt x="325" y="0" on="1"/>
      </contour>
      <contour>
        <pt x="385" y="537" on="1"/>
        <pt x="950" y="537" on="1"/>
        <pt x="669" y="1211" on="1"/>
      </contour>
      <contour>
        <pt x="613" y="1604" on="1"/>
        <pt x="854" y="1925" on="1"/>
        <pt x="1113" y="1925" on="1"/>
        <pt x="706" y="1604" on="1"/>
      </contour>
    </TTGlyph>
    <TTGlyph name="Abreve" xMin="0" yMin="0" xMax="1479" yMax="1925">
      <contour>
        <pt x="0" y="0" on="1"/>
        <pt x="0" y="62" on="1"/>
        <pt x="22" y="63" on="1"/>
        <pt x="86" y="67" on="0"/>
        <pt x="102" y="87" on="1"/>
        <pt x="117" y="103" on="0"/>
        <pt x="139" y="154" on="1"/>
        <pt x="185" y="259" on="1"/>
        <pt x="706" y="1499" on="1"/>
        <pt x="776" y="1499" on="1"/>
        <pt x="1295" y="252" on="1"/>
        <pt x="1345" y="149" on="1"/>
        <pt x="1385" y="67" on="0"/>
        <pt x="1457" y="63" on="1"/>
        <pt x="1479" y="62" on="1"/>
        <pt x="1479" y="0" on="1"/>
        <pt x="990" y="0" on="1"/>
        <pt x="990" y="62" on="1"/>
        <pt x="1008" y="62" on="1"/>
        <pt x="1111" y="62" on="0"/>
        <pt x="1111" y="106" on="1"/>
        <pt x="1111" y="160" on="0"/>
        <pt x="1069" y="259" on="1"/>
        <pt x="986" y="456" on="1"/>
        <pt x="352" y="456" on="1"/>
        <pt x="267" y="259" on="1"/>
        <pt x="250" y="220" on="0"/>
        <pt x="245" y="205" on="1"/>
        <pt x="223" y="135" on="1"/>
        <pt x="217" y="116" on="0"/>
        <pt x="217" y="102" on="1"/>
        <pt x="217" y="62" on="0"/>
        <pt x="309" y="62" on="1"/>
        <pt x="325" y="62" on="1"/>
        <pt x="325" y="0" on="1"/>
      </contour>
      <contour>
        <pt x="385" y="537" on="1"/>
        <pt x="950" y="537" on="1"/>
        <pt x="669" y="1211" on="1"/>
      </contour>
      <contour>
        <pt x="408" y="1925" on="1"/>
        <pt x="473" y="1925" on="1"/>
        <pt x="500" y="1835" on="0"/>
        <pt x="560" y="1793" on="1"/>
        <pt x="628" y="1746" on="0"/>
        <pt x="741" y="1746" on="1"/>
        <pt x="867" y="1746" on="0"/>
        <pt x="937" y="1805" on="1"/>
        <pt x="985" y="1845" on="0"/>
        <pt x="1010" y="1925" on="1"/>
        <pt x="1074" y="1925" on="1"/>
        <pt x="1055" y="1790" on="0"/>
        <pt x="983" y="1709" on="1"/>
        <pt x="889" y="1604" on="0"/>
        <pt x="741" y="1604" on="1"/>
        <pt x="587" y="1604" on="0"/>
        <pt x="492" y="1719" on="1"/>
        <pt x="427" y="1797" on="0"/>
      </contour>
    </TTGlyph>
    <TTGlyph name="Acircumflex" xMin="0" yMin="0" xMax="1479" yMax="1925">
      <contour>
        <pt x="0" y="0" on="1"/>
        <pt x="0" y="62" on="1"/>
        <pt x="22" y="63" on="1"/>
        <pt x="86" y="67" on="0"/>
        <pt x="102" y="87" on="1"/>
        <pt x="117" y="103" on="0"/>
        <pt x="139" y="154" on="1"/>
        <pt x="185" y="259" on="1"/>
        <pt x="706" y="1499" on="1"/>
        <pt x="776" y="1499" on="1"/>
        <pt x="1295" y="252" on="1"/>
        <pt x="1345" y="149" on="1"/>
        <pt x="1385" y="67" on="0"/>
        <pt x="1457" y="63" on="1"/>
        <pt x="1479" y="62" on="1"/>
        <pt x="1479" y="0" on="1"/>
        <pt x="990" y="0" on="1"/>
        <pt x="990" y="62" on="1"/>
        <pt x="1008" y="62" on="1"/>
        <pt x="1111" y="62" on="0"/>
        <pt x="1111" y="106" on="1"/>
        <pt x="1111" y="160" on="0"/>
        <pt x="1069" y="259" on="1"/>
        <pt x="986" y="456" on="1"/>
        <pt x="352" y="456" on="1"/>
        <pt x="267" y="259" on="1"/>
        <pt x="250" y="220" on="0"/>
        <pt x="245" y="205" on="1"/>
        <pt x="223" y="135" on="1"/>
        <pt x="217" y="116" on="0"/>
        <pt x="217" y="102" on="1"/>
        <pt x="217" y="62" on="0"/>
        <pt x="309" y="62" on="1"/>
        <pt x="325" y="62" on="1"/>
        <pt x="325" y="0" on="1"/>
      </contour>
      <contour>
        <pt x="385" y="537" on="1"/>
        <pt x="950" y="537" on="1"/>
        <pt x="669" y="1211" on="1"/>
      </contour>
      <contour>
        <pt x="389" y="1604" on="1"/>
        <pt x="630" y="1925" on="1"/>
        <pt x="852" y="1925" on="1"/>
        <pt x="1092" y="1604" on="1"/>
        <pt x="1006" y="1604" on="1"/>
        <pt x="741" y="1826" on="1"/>
        <pt x="475" y="1604" on="1"/>
      </contour>
    </TTGlyph>
    <TTGlyph name="Adieresis" xMin="0" yMin="0" xMax="1479" yMax="1777">
      <contour>
        <pt x="0" y="0" on="1"/>
        <pt x="0" y="62" on="1"/>
        <pt x="22" y="63" on="1"/>
        <pt x="86" y="67" on="0"/>
        <pt x="102" y="87" on="1"/>
        <pt x="117" y="103" on="0"/>
        <pt x="139" y="154" on="1"/>
        <pt x="185" y="259" on="1"/>
        <pt x="706" y="1499" on="1"/>
        <pt x="776" y="1499" on="1"/>
        <pt x="1295" y="252" on="1"/>
        <pt x="1345" y="149" on="1"/>
        <pt x="1385" y="67" on="0"/>
        <pt x="1457" y="63" on="1"/>
        <pt x="1479" y="62" on="1"/>
        <pt x="1479" y="0" on="1"/>
        <pt x="990" y="0" on="1"/>
        <pt x="990" y="62" on="1"/>
        <pt x="1008" y="62" on="1"/>
        <pt x="1111" y="62" on="0"/>
        <pt x="1111" y="106" on="1"/>
        <pt x="1111" y="160" on="0"/>
        <pt x="1069" y="259" on="1"/>
        <pt x="986" y="456" on="1"/>
        <pt x="352" y="456" on="1"/>
        <pt x="267" y="259" on="1"/>
        <pt x="250" y="220" on="0"/>
        <pt x="245" y="205" on="1"/>
        <pt x="223" y="135" on="1"/>
        <pt x="217" y="116" on="0"/>
        <pt x="217" y="102" on="1"/>
        <pt x="217" y="62" on="0"/>
        <pt x="309" y="62" on="1"/>
        <pt x="325" y="62" on="1"/>
        <pt x="325" y="0" on="1"/>
      </contour>
      <contour>
        <pt x="385" y="537" on="1"/>
        <pt x="950" y="537" on="1"/>
        <pt x="669" y="1211" on="1"/>
      </contour>
      <contour>
        <pt x="457" y="1604" on="1"/>
        <pt x="457" y="1777" on="1"/>
        <pt x="630" y="1777" on="1"/>
        <pt x="630" y="1604" on="1"/>
      </contour>
      <contour>
        <pt x="852" y="1604" on="1"/>
        <pt x="852" y="1777" on="1"/>
        <pt x="1025" y="1777" on="1"/>
        <pt x="1025" y="1604" on="1"/>
      </contour>
    </TTGlyph>
    <TTGlyph name="Agrave" xMin="0" yMin="0" xMax="1479" yMax="1925">
      <contour>
        <pt x="0" y="0" on="1"/>
        <pt x="0" y="62" on="1"/>
        <pt x="22" y="63" on="1"/>
        <pt x="86" y="67" on="0"/>
        <pt x="102" y="87" on="1"/>
        <pt x="117" y="103" on="0"/>
        <pt x="139" y="154" on="1"/>
        <pt x="185" y="259" on="1"/>
        <pt x="706" y="1499" on="1"/>
        <pt x="776" y="1499" on="1"/>
        <pt x="1295" y="252" on="1"/>
        <pt x="1345" y="149" on="1"/>
        <pt x="1385" y="67" on="0"/>
        <pt x="1457" y="63" on="1"/>
        <pt x="1479" y="62" on="1"/>
        <pt x="1479" y="0" on="1"/>
        <pt x="990" y="0" on="1"/>
        <pt x="990" y="62" on="1"/>
        <pt x="1008" y="62" on="1"/>
        <pt x="1111" y="62" on="0"/>
        <pt x="1111" y="106" on="1"/>
        <pt x="1111" y="160" on="0"/>
        <pt x="1069" y="259" on="1"/>
        <pt x="986" y="456" on="1"/>
        <pt x="352" y="456" on="1"/>
        <pt x="267" y="259" on="1"/>
        <pt x="250" y="220" on="0"/>
        <pt x="245" y="205" on="1"/>
        <pt x="223" y="135" on="1"/>
        <pt x="217" y="116" on="0"/>
        <pt x="217" y="102" on="1"/>
        <pt x="217" y="62" on="0"/>
        <pt x="309" y="62" on="1"/>
        <pt x="325" y="62" on="1"/>
        <pt x="325" y="0" on="1"/>
      </contour>
      <contour>
        <pt x="385" y="537" on="1"/>
        <pt x="950" y="537" on="1"/>
        <pt x="669" y="1211" on="1"/>
      </contour>
      <contour>
        <pt x="874" y="1604" on="1"/>
        <pt x="781" y="1604" on="1"/>
        <pt x="374" y="1925" on="1"/>
        <pt x="633" y="1925" on="1"/>
      </contour>
    </TTGlyph>
    <TTGlyph name="Amacron" xMin="0" yMin="0" xMax="1479" yMax="1727">
      <contour>
        <pt x="0" y="0" on="1"/>
        <pt x="0" y="62" on="1"/>
        <pt x="22" y="63" on="1"/>
        <pt x="86" y="67" on="0"/>
        <pt x="102" y="87" on="1"/>
        <pt x="117" y="103" on="0"/>
        <pt x="139" y="154" on="1"/>
        <pt x="185" y="259" on="1"/>
        <pt x="706" y="1499" on="1"/>
        <pt x="776" y="1499" on="1"/>
        <pt x="1295" y="252" on="1"/>
        <pt x="1345" y="149" on="1"/>
        <pt x="1385" y="67" on="0"/>
        <pt x="1457" y="63" on="1"/>
        <pt x="1479" y="62" on="1"/>
        <pt x="1479" y="0" on="1"/>
        <pt x="990" y="0" on="1"/>
        <pt x="990" y="62" on="1"/>
        <pt x="1008" y="62" on="1"/>
        <pt x="1111" y="62" on="0"/>
        <pt x="1111" y="106" on="1"/>
        <pt x="1111" y="160" on="0"/>
        <pt x="1069" y="259" on="1"/>
        <pt x="986" y="456" on="1"/>
        <pt x="352" y="456" on="1"/>
        <pt x="267" y="259" on="1"/>
        <pt x="250" y="220" on="0"/>
        <pt x="245" y="205" on="1"/>
        <pt x="223" y="135" on="1"/>
        <pt x="217" y="116" on="0"/>
        <pt x="217" y="102" on="1"/>
        <pt x="217" y="62" on="0"/>
        <pt x="309" y="62" on="1"/>
        <pt x="325" y="62" on="1"/>
        <pt x="325" y="0" on="1"/>
      </contour>
      <contour>
        <pt x="385" y="537" on="1"/>
        <pt x="950" y="537" on="1"/>
        <pt x="669" y="1211" on="1"/>
      </contour>
      <contour>
        <pt x="420" y="1604" on="1"/>
        <pt x="420" y="1727" on="1"/>
        <pt x="1062" y="1727" on="1"/>
        <pt x="1062" y="1604" on="1"/>
      </contour>
    </TTGlyph>
    <TTGlyph name="Aogonek" xMin="0" yMin="-370" xMax="1479" yMax="1499">
      <contour>
        <pt x="0" y="0" on="1"/>
        <pt x="0" y="62" on="1"/>
        <pt x="22" y="63" on="1"/>
        <pt x="86" y="67" on="0"/>
        <pt x="102" y="87" on="1"/>
        <pt x="117" y="103" on="0"/>
        <pt x="139" y="154" on="1"/>
        <pt x="185" y="259" on="1"/>
        <pt x="706" y="1499" on="1"/>
        <pt x="776" y="1499" on="1"/>
        <pt x="1295" y="252" on="1"/>
        <pt x="1345" y="149" on="1"/>
        <pt x="1385" y="67" on="0"/>
        <pt x="1457" y="63" on="1"/>
        <pt x="1479" y="62" on="1"/>
        <pt x="1479" y="0" on="1"/>
        <pt x="990" y="0" on="1"/>
        <pt x="990" y="62" on="1"/>
        <pt x="1008" y="62" on="1"/>
        <pt x="1111" y="62" on="0"/>
        <pt x="1111" y="106" on="1"/>
        <pt x="1111" y="160" on="0"/>
        <pt x="1069" y="259" on="1"/>
        <pt x="986" y="456" on="1"/>
        <pt x="352" y="456" on="1"/>
        <pt x="267" y="259" on="1"/>
        <pt x="250" y="220" on="0"/>
        <pt x="245" y="205" on="1"/>
        <pt x="223" y="135" on="1"/>
        <pt x="217" y="116" on="0"/>
        <pt x="217" y="102" on="1"/>
        <pt x="217" y="62" on="0"/>
        <pt x="309" y="62" on="1"/>
        <pt x="325" y="62" on="1"/>
        <pt x="325" y="0" on="1"/>
      </contour>
      <contour>
        <pt x="385" y="537" on="1"/>
        <pt x="950" y="537" on="1"/>
        <pt x="669" y="1211" on="1"/>
      </contour>
      <contour>
        <pt x="1454" y="-273" on="1"/>
        <pt x="1454" y="-341" on="1"/>
        <pt x="1383" y="-370" on="0"/>
        <pt x="1305" y="-370" on="1"/>
        <pt x="1085" y="-370" on="0"/>
        <pt x="1085" y="-211" on="1"/>
        <pt x="1085" y="-90" on="0"/>
        <pt x="1243" y="0" on="1"/>
        <pt x="1350" y="0" on="1"/>
        <pt x="1221" y="-81" on="0"/>
        <pt x="1221" y="-182" on="1"/>
        <pt x="1221" y="-289" on="0"/>
        <pt x="1354" y="-289" on="1"/>
        <pt x="1405" y="-289" on="0"/>
      </contour>
    </TTGlyph>
    <TTGlyph name="Aring" xMin="0" yMin="0" xMax="1479" yMax="1934">
      <contour>
        <pt x="0" y="0" on="1"/>
        <pt x="0" y="62" on="1"/>
        <pt x="22" y="63" on="1"/>
        <pt x="86" y="67" on="0"/>
        <pt x="102" y="87" on="1"/>
        <pt x="117" y="103" on="0"/>
        <pt x="139" y="154" on="1"/>
        <pt x="185" y="259" on="1"/>
        <pt x="706" y="1499" on="1"/>
        <pt x="776" y="1499" on="1"/>
        <pt x="1295" y="252" on="1"/>
        <pt x="1345" y="149" on="1"/>
        <pt x="1385" y="67" on="0"/>
        <pt x="1457" y="63" on="1"/>
        <pt x="1479" y="62" on="1"/>
        <pt x="1479" y="0" on="1"/>
        <pt x="990" y="0" on="1"/>
        <pt x="990" y="62" on="1"/>
        <pt x="1008" y="62" on="1"/>
        <pt x="1111" y="62" on="0"/>
        <pt x="1111" y="106" on="1"/>
        <pt x="1111" y="160" on="0"/>
        <pt x="1069" y="259" on="1"/>
        <pt x="986" y="456" on="1"/>
        <pt x="352" y="456" on="1"/>
        <pt x="267" y="259" on="1"/>
        <pt x="250" y="220" on="0"/>
        <pt x="245" y="205" on="1"/>
        <pt x="223" y="135" on="1"/>
        <pt x="217" y="116" on="0"/>
        <pt x="217" y="102" on="1"/>
        <pt x="217" y="62" on="0"/>
        <pt x="309" y="62" on="1"/>
        <pt x="325" y="62" on="1"/>
        <pt x="325" y="0" on="1"/>
      </contour>
      <contour>
        <pt x="385" y="537" on="1"/>
        <pt x="950" y="537" on="1"/>
        <pt x="669" y="1211" on="1"/>
      </contour>
      <contour>
        <pt x="741" y="1934" on="1"/>
        <pt x="835" y="1934" on="0"/>
        <pt x="901" y="1868" on="1"/>
        <pt x="968" y="1802" on="0"/>
        <pt x="968" y="1708" on="1"/>
        <pt x="968" y="1612" on="0"/>
        <pt x="901" y="1546" on="1"/>
        <pt x="835" y="1480" on="0"/>
        <pt x="739" y="1480" on="1"/>
        <pt x="656" y="1480" on="0"/>
        <pt x="594" y="1534" on="1"/>
        <pt x="514" y="1603" on="0"/>
        <pt x="514" y="1707" on="1"/>
        <pt x="514" y="1802" on="0"/>
        <pt x="580" y="1868" on="1"/>
        <pt x="646" y="1934" on="0"/>
      </contour>
      <contour>
        <pt x="741" y="1866" on="1"/>
        <pt x="675" y="1866" on="0"/>
        <pt x="628" y="1819" on="1"/>
        <pt x="582" y="1773" on="0"/>
        <pt x="582" y="1708" on="1"/>
        <pt x="582" y="1642" on="0"/>
        <pt x="628" y="1595" on="1"/>
        <pt x="674" y="1548" on="0"/>
        <pt x="739" y="1548" on="1"/>
        <pt x="800" y="1548" on="0"/>
        <pt x="844" y="1585" on="1"/>
        <pt x="900" y="1633" on="0"/>
        <pt x="900" y="1708" on="1"/>
        <pt x="900" y="1774" on="0"/>
        <pt x="853" y="1820" on="1"/>
        <pt x="806" y="1866" on="0"/>
      </contour>
    </TTGlyph>
    <TTGlyph name="Atilde" xMin="0" yMin="0" xMax="1479" yMax="1839">
      <contour>
        <pt x="0" y="0" on="1"/>
        <pt x="0" y="62" on="1"/>
        <pt x="22" y="63" on="1"/>
        <pt x="86" y="67" on="0"/>
        <pt x="102" y="87" on="1"/>
        <pt x="117" y="103" on="0"/>
        <pt x="139" y="154" on="1"/>
        <pt x="185" y="259" on="1"/>
        <pt x="706" y="1499" on="1"/>
        <pt x="776" y="1499" on="1"/>
        <pt x="1295" y="252" on="1"/>
        <pt x="1345" y="149" on="1"/>
        <pt x="1385" y="67" on="0"/>
        <pt x="1457" y="63" on="1"/>
        <pt x="1479" y="62" on="1"/>
        <pt x="1479" y="0" on="1"/>
        <pt x="990" y="0" on="1"/>
        <pt x="990" y="62" on="1"/>
        <pt x="1008" y="62" on="1"/>
        <pt x="1111" y="62" on="0"/>
        <pt x="1111" y="106" on="1"/>
        <pt x="1111" y="160" on="0"/>
        <pt x="1069" y="259" on="1"/>
        <pt x="986" y="456" on="1"/>
        <pt x="352" y="456" on="1"/>
        <pt x="267" y="259" on="1"/>
        <pt x="250" y="220" on="0"/>
        <pt x="245" y="205" on="1"/>
        <pt x="223" y="135" on="1"/>
        <pt x="217" y="116" on="0"/>
        <pt x="217" y="102" on="1"/>
        <pt x="217" y="62" on="0"/>
        <pt x="309" y="62" on="1"/>
        <pt x="325" y="62" on="1"/>
        <pt x="325" y="0" on="1"/>
      </contour>
      <contour>
        <pt x="385" y="537" on="1"/>
        <pt x="950" y="537" on="1"/>
        <pt x="669" y="1211" on="1"/>
      </contour>
      <contour>
        <pt x="408" y="1604" on="1"/>
        <pt x="435" y="1744" on="0"/>
        <pt x="504" y="1797" on="1"/>
        <pt x="558" y="1839" on="0"/>
        <pt x="635" y="1839" on="1"/>
        <pt x="700" y="1839" on="0"/>
        <pt x="753" y="1801" on="1"/>
        <pt x="788" y="1776" on="1"/>
        <pt x="840" y="1739" on="0"/>
        <pt x="894" y="1739" on="1"/>
        <pt x="989" y="1739" on="0"/>
        <pt x="1012" y="1838" on="1"/>
        <pt x="1074" y="1838" on="1"/>
        <pt x="1046" y="1699" on="0"/>
        <pt x="978" y="1646" on="1"/>
        <pt x="924" y="1604" on="0"/>
        <pt x="847" y="1604" on="1"/>
        <pt x="784" y="1604" on="0"/>
        <pt x="729" y="1642" on="1"/>
        <pt x="694" y="1666" on="1"/>
        <pt x="639" y="1704" on="0"/>
        <pt x="588" y="1704" on="1"/>
        <pt x="499" y="1704" on="0"/>
        <pt x="470" y="1604" on="1"/>
      </contour>
    </TTGlyph>
    <TTGlyph name="B" xMin="47" yMin="0" xMax="1245" yMax="1480">
      <contour>
        <pt x="788" y="767" on="1"/>
        <pt x="968" y="742" on="0"/>
        <pt x="1066" y="687" on="1"/>
        <pt x="1245" y="586" on="0"/>
        <pt x="1245" y="371" on="1"/>
        <pt x="1245" y="202" on="0"/>
        <pt x="1130" y="103" on="1"/>
        <pt x="1010" y="0" on="0"/>
        <pt x="676" y="0" on="1"/>
        <pt x="47" y="0" on="1"/>
        <pt x="47" y="62" on="1"/>
        <pt x="66" y="63" on="1"/>
        <pt x="133" y="68" on="1"/>
        <pt x="209" y="74" on="0"/>
        <pt x="219" y="115" on="1"/>
        <pt x="232" y="177" on="0"/>
        <pt x="232" y="259" on="1"/>
        <pt x="232" y="1221" on="1"/>
        <pt x="232" y="1280" on="0"/>
        <pt x="225" y="1333" on="1"/>
        <pt x="219" y="1372" on="0"/>
        <pt x="211" y="1384" on="1"/>
        <pt x="193" y="1410" on="0"/>
        <pt x="133" y="1413" on="1"/>
        <pt x="66" y="1417" on="1"/>
        <pt x="47" y="1419" on="1"/>
        <pt x="47" y="1480" on="1"/>
        <pt x="705" y="1480" on="1"/>
        <pt x="932" y="1480" on="0"/>
        <pt x="1016" y="1437" on="1"/>
        <pt x="1184" y="1351" on="0"/>
        <pt x="1184" y="1150" on="1"/>
        <pt x="1184" y="995" on="0"/>
        <pt x="1091" y="899" on="1"/>
        <pt x="1025" y="830" on="0"/>
        <pt x="913" y="795" on="1"/>
        <pt x="872" y="782" on="0"/>
      </contour>
      <contour>
        <pt x="439" y="734" on="1"/>
        <pt x="439" y="259" on="1"/>
        <pt x="442" y="172" on="1"/>
        <pt x="445" y="97" on="0"/>
        <pt x="493" y="82" on="1"/>
        <pt x="537" y="68" on="0"/>
        <pt x="637" y="68" on="1"/>
        <pt x="1026" y="68" on="0"/>
        <pt x="1026" y="368" on="1"/>
        <pt x="1026" y="591" on="0"/>
        <pt x="857" y="670" on="1"/>
        <pt x="726" y="731" on="0"/>
      </contour>
      <contour>
        <pt x="439" y="802" on="1"/>
        <pt x="550" y="802" on="1"/>
        <pt x="775" y="802" on="0"/>
        <pt x="871" y="877" on="1"/>
        <pt x="968" y="952" on="0"/>
        <pt x="968" y="1129" on="1"/>
        <pt x="968" y="1312" on="0"/>
        <pt x="853" y="1367" on="1"/>
        <pt x="757" y="1413" on="0"/>
        <pt x="539" y="1413" on="1"/>
        <pt x="439" y="1413" on="1"/>
      </contour>
    </TTGlyph>
    <TTGlyph name="C" xMin="80" yMin="-37" xMax="1269" yMax="1517">
      <contour>
        <pt x="1269" y="79" on="1"/>
        <pt x="1060" y="-37" on="0"/>
        <pt x="809" y="-37" on="1"/>
        <pt x="472" y="-37" on="0"/>
        <pt x="276" y="173" on="1"/>
        <pt x="80" y="383" on="0"/>
        <pt x="80" y="745" on="1"/>
        <pt x="80" y="1105" on="0"/>
        <pt x="268" y="1311" on="1"/>
        <pt x="455" y="1517" on="0"/>
        <pt x="789" y="1517" on="1"/>
        <pt x="996" y="1517" on="0"/>
        <pt x="1244" y="1443" on="1"/>
        <pt x="1244" y="1160" on="1"/>
        <pt x="1120" y="1160" on="1"/>
        <pt x="1119" y="1180" on="1"/>
        <pt x="1119" y="1185" on="0"/>
        <pt x="1118" y="1212" on="1"/>
        <pt x="1118" y="1223" on="1"/>
        <pt x="1118" y="1233" on="1"/>
        <pt x="1118" y="1239" on="1"/>
        <pt x="1118" y="1326" on="0"/>
        <pt x="1049" y="1381" on="1"/>
        <pt x="963" y="1450" on="0"/>
        <pt x="806" y="1450" on="1"/>
        <pt x="573" y="1450" on="0"/>
        <pt x="440" y="1261" on="1"/>
        <pt x="308" y="1073" on="0"/>
        <pt x="308" y="750" on="1"/>
        <pt x="308" y="425" on="0"/>
        <pt x="462" y="243" on="1"/>
        <pt x="615" y="62" on="0"/>
        <pt x="880" y="62" on="1"/>
        <pt x="1057" y="62" on="0"/>
        <pt x="1269" y="175" on="1"/>
      </contour>
    </TTGlyph>
    <TTGlyph name="Cacute" xMin="80" yMin="-37" xMax="1269" yMax="1925">
      <contour>
        <pt x="1269" y="79" on="1"/>
        <pt x="1060" y="-37" on="0"/>
        <pt x="809" y="-37" on="1"/>
        <pt x="472" y="-37" on="0"/>
        <pt x="276" y="173" on="1"/>
        <pt x="80" y="383" on="0"/>
        <pt x="80" y="745" on="1"/>
        <pt x="80" y="1105" on="0"/>
        <pt x="268" y="1311" on="1"/>
        <pt x="455" y="1517" on="0"/>
        <pt x="789" y="1517" on="1"/>
        <pt x="996" y="1517" on="0"/>
        <pt x="1244" y="1443" on="1"/>
        <pt x="1244" y="1160" on="1"/>
        <pt x="1120" y="1160" on="1"/>
        <pt x="1119" y="1180" on="1"/>
        <pt x="1119" y="1185" on="0"/>
        <pt x="1118" y="1212" on="1"/>
        <pt x="1118" y="1223" on="1"/>
        <pt x="1118" y="1233" on="1"/>
        <pt x="1118" y="1239" on="1"/>
        <pt x="1118" y="1326" on="0"/>
        <pt x="1049" y="1381" on="1"/>
        <pt x="963" y="1450" on="0"/>
        <pt x="806" y="1450" on="1"/>
        <pt x="573" y="1450" on="0"/>
        <pt x="440" y="1261" on="1"/>
        <pt x="308" y="1073" on="0"/>
        <pt x="308" y="750" on="1"/>
        <pt x="308" y="425" on="0"/>
        <pt x="462" y="243" on="1"/>
        <pt x="615" y="62" on="0"/>
        <pt x="880" y="62" on="1"/>
        <pt x="1057" y="62" on="0"/>
        <pt x="1269" y="175" on="1"/>
      </contour>
      <contour>
        <pt x="703" y="1604" on="1"/>
        <pt x="944" y="1925" on="1"/>
        <pt x="1203" y="1925" on="1"/>
        <pt x="796" y="1604" on="1"/>
      </contour>
    </TTGlyph>
    <TTGlyph name="Ccaron" xMin="80" yMin="-37" xMax="1269" yMax="1925">
      <contour>
        <pt x="1269" y="79" on="1"/>
        <pt x="1060" y="-37" on="0"/>
        <pt x="809" y="-37" on="1"/>
        <pt x="472" y="-37" on="0"/>
        <pt x="276" y="173" on="1"/>
        <pt x="80" y="383" on="0"/>
        <pt x="80" y="745" on="1"/>
        <pt x="80" y="1105" on="0"/>
        <pt x="268" y="1311" on="1"/>
        <pt x="455" y="1517" on="0"/>
        <pt x="789" y="1517" on="1"/>
        <pt x="996" y="1517" on="0"/>
        <pt x="1244" y="1443" on="1"/>
        <pt x="1244" y="1160" on="1"/>
        <pt x="1120" y="1160" on="1"/>
        <pt x="1119" y="1180" on="1"/>
        <pt x="1119" y="1185" on="0"/>
        <pt x="1118" y="1212" on="1"/>
        <pt x="1118" y="1223" on="1"/>
        <pt x="1118" y="1233" on="1"/>
        <pt x="1118" y="1239" on="1"/>
        <pt x="1118" y="1326" on="0"/>
        <pt x="1049" y="1381" on="1"/>
        <pt x="963" y="1450" on="0"/>
        <pt x="806" y="1450" on="1"/>
        <pt x="573" y="1450" on="0"/>
        <pt x="440" y="1261" on="1"/>
        <pt x="308" y="1073" on="0"/>
        <pt x="308" y="750" on="1"/>
        <pt x="308" y="425" on="0"/>
        <pt x="462" y="243" on="1"/>
        <pt x="615" y="62" on="0"/>
        <pt x="880" y="62" on="1"/>
        <pt x="1057" y="62" on="0"/>
        <pt x="1269" y="175" on="1"/>
      </contour>
      <contour>
        <pt x="1146" y="1925" on="1"/>
        <pt x="906" y="1604" on="1"/>
        <pt x="684" y="1604" on="1"/>
        <pt x="443" y="1925" on="1"/>
        <pt x="529" y="1925" on="1"/>
        <pt x="795" y="1703" on="1"/>
        <pt x="1060" y="1925" on="1"/>
      </contour>
    </TTGlyph>
    <TTGlyph name="Ccedilla" xMin="80" yMin="-432" xMax="1269" yMax="1517">
      <contour>
        <pt x="1269" y="79" on="1"/>
        <pt x="1058" y="-37" on="0"/>
        <pt x="809" y="-37" on="1"/>
        <pt x="472" y="-37" on="0"/>
        <pt x="276" y="173" on="1"/>
        <pt x="80" y="383" on="0"/>
        <pt x="80" y="745" on="1"/>
        <pt x="80" y="1105" on="0"/>
        <pt x="268" y="1311" on="1"/>
        <pt x="455" y="1517" on="0"/>
        <pt x="789" y="1517" on="1"/>
        <pt x="996" y="1517" on="0"/>
        <pt x="1244" y="1443" on="1"/>
        <pt x="1244" y="1160" on="1"/>
        <pt x="1120" y="1160" on="1"/>
        <pt x="1119" y="1180" on="1"/>
        <pt x="1119" y="1185" on="0"/>
        <pt x="1118" y="1212" on="1"/>
        <pt x="1118" y="1223" on="1"/>
        <pt x="1118" y="1233" on="1"/>
        <pt x="1118" y="1239" on="1"/>
        <pt x="1118" y="1326" on="0"/>
        <pt x="1049" y="1381" on="1"/>
        <pt x="963" y="1450" on="0"/>
        <pt x="806" y="1450" on="1"/>
        <pt x="572" y="1450" on="0"/>
        <pt x="440" y="1261" on="1"/>
        <pt x="308" y="1072" on="0"/>
        <pt x="308" y="750" on="1"/>
        <pt x="308" y="425" on="0"/>
        <pt x="462" y="243" on="1"/>
        <pt x="615" y="62" on="0"/>
        <pt x="880" y="62" on="1"/>
        <pt x="1057" y="62" on="0"/>
        <pt x="1269" y="175" on="1"/>
      </contour>
      <contour>
        <pt x="619" y="-411" on="1"/>
        <pt x="619" y="-343" on="1"/>
        <pt x="681" y="-359" on="0"/>
        <pt x="720" y="-359" on="1"/>
        <pt x="827" y="-359" on="0"/>
        <pt x="827" y="-277" on="1"/>
        <pt x="827" y="-179" on="0"/>
        <pt x="640" y="-175" on="1"/>
        <pt x="735" y="0" on="1"/>
        <pt x="814" y="0" on="1"/>
        <pt x="748" y="-119" on="1"/>
        <pt x="965" y="-138" on="0"/>
        <pt x="965" y="-266" on="1"/>
        <pt x="965" y="-336" on="0"/>
        <pt x="907" y="-384" on="1"/>
        <pt x="850" y="-432" on="0"/>
        <pt x="763" y="-432" on="1"/>
        <pt x="695" y="-432" on="0"/>
      </contour>
    </TTGlyph>
    <TTGlyph name="Ccircumflex" xMin="80" yMin="-37" xMax="1269" yMax="1925">
      <contour>
        <pt x="1269" y="79" on="1"/>
        <pt x="1060" y="-37" on="0"/>
        <pt x="809" y="-37" on="1"/>
        <pt x="472" y="-37" on="0"/>
        <pt x="276" y="173" on="1"/>
        <pt x="80" y="383" on="0"/>
        <pt x="80" y="745" on="1"/>
        <pt x="80" y="1105" on="0"/>
        <pt x="268" y="1311" on="1"/>
        <pt x="455" y="1517" on="0"/>
        <pt x="789" y="1517" on="1"/>
        <pt x="996" y="1517" on="0"/>
        <pt x="1244" y="1443" on="1"/>
        <pt x="1244" y="1160" on="1"/>
        <pt x="1120" y="1160" on="1"/>
        <pt x="1119" y="1180" on="1"/>
        <pt x="1119" y="1185" on="0"/>
        <pt x="1118" y="1212" on="1"/>
        <pt x="1118" y="1223" on="1"/>
        <pt x="1118" y="1233" on="1"/>
        <pt x="1118" y="1239" on="1"/>
        <pt x="1118" y="1326" on="0"/>
        <pt x="1049" y="1381" on="1"/>
        <pt x="963" y="1450" on="0"/>
        <pt x="806" y="1450" on="1"/>
        <pt x="573" y="1450" on="0"/>
        <pt x="440" y="1261" on="1"/>
        <pt x="308" y="1073" on="0"/>
        <pt x="308" y="750" on="1"/>
        <pt x="308" y="425" on="0"/>
        <pt x="462" y="243" on="1"/>
        <pt x="615" y="62" on="0"/>
        <pt x="880" y="62" on="1"/>
        <pt x="1057" y="62" on="0"/>
        <pt x="1269" y="175" on="1"/>
      </contour>
      <contour>
        <pt x="443" y="1604" on="1"/>
        <pt x="684" y="1925" on="1"/>
        <pt x="906" y="1925" on="1"/>
        <pt x="1146" y="1604" on="1"/>
        <pt x="1060" y="1604" on="1"/>
        <pt x="795" y="1826" on="1"/>
        <pt x="529" y="1604" on="1"/>
      </contour>
    </TTGlyph>
    <TTGlyph name="Cdotaccent" xMin="80" yMin="-37" xMax="1269" yMax="1801">
      <contour>
        <pt x="1269" y="79" on="1"/>
        <pt x="1060" y="-37" on="0"/>
        <pt x="809" y="-37" on="1"/>
        <pt x="472" y="-37" on="0"/>
        <pt x="276" y="173" on="1"/>
        <pt x="80" y="383" on="0"/>
        <pt x="80" y="745" on="1"/>
        <pt x="80" y="1105" on="0"/>
        <pt x="268" y="1311" on="1"/>
        <pt x="455" y="1517" on="0"/>
        <pt x="789" y="1517" on="1"/>
        <pt x="996" y="1517" on="0"/>
        <pt x="1244" y="1443" on="1"/>
        <pt x="1244" y="1160" on="1"/>
        <pt x="1120" y="1160" on="1"/>
        <pt x="1119" y="1180" on="1"/>
        <pt x="1119" y="1185" on="0"/>
        <pt x="1118" y="1212" on="1"/>
        <pt x="1118" y="1223" on="1"/>
        <pt x="1118" y="1233" on="1"/>
        <pt x="1118" y="1239" on="1"/>
        <pt x="1118" y="1326" on="0"/>
        <pt x="1049" y="1381" on="1"/>
        <pt x="963" y="1450" on="0"/>
        <pt x="806" y="1450" on="1"/>
        <pt x="573" y="1450" on="0"/>
        <pt x="440" y="1261" on="1"/>
        <pt x="308" y="1073" on="0"/>
        <pt x="308" y="750" on="1"/>
        <pt x="308" y="425" on="0"/>
        <pt x="462" y="243" on="1"/>
        <pt x="615" y="62" on="0"/>
        <pt x="880" y="62" on="1"/>
        <pt x="1057" y="62" on="0"/>
        <pt x="1269" y="175" on="1"/>
      </contour>
      <contour>
        <pt x="696" y="1604" on="1"/>
        <pt x="696" y="1801" on="1"/>
        <pt x="893" y="1801" on="1"/>
        <pt x="893" y="1604" on="1"/>
      </contour>
    </TTGlyph>
    <TTGlyph name="D" xMin="41" yMin="0" xMax="1399" yMax="1489">
      <contour>
        <pt x="465" y="1480" on="1"/>
        <pt x="536" y="1481" on="1"/>
        <pt x="608" y="1484" on="1"/>
        <pt x="680" y="1485" on="1"/>
        <pt x="989" y="1489" on="0"/>
        <pt x="1176" y="1335" on="1"/>
        <pt x="1399" y="1152" on="0"/>
        <pt x="1399" y="772" on="1"/>
        <pt x="1399" y="414" on="0"/>
        <pt x="1208" y="207" on="1"/>
        <pt x="1017" y="0" on="0"/>
        <pt x="687" y="0" on="1"/>
        <pt x="41" y="0" on="1"/>
        <pt x="41" y="62" on="1"/>
        <pt x="60" y="63" on="1"/>
        <pt x="127" y="68" on="1"/>
        <pt x="203" y="74" on="0"/>
        <pt x="213" y="115" on="1"/>
        <pt x="226" y="177" on="0"/>
        <pt x="226" y="259" on="1"/>
        <pt x="226" y="1221" on="1"/>
        <pt x="226" y="1280" on="0"/>
        <pt x="219" y="1333" on="1"/>
        <pt x="213" y="1372" on="0"/>
        <pt x="205" y="1384" on="1"/>
        <pt x="187" y="1410" on="0"/>
        <pt x="127" y="1413" on="1"/>
        <pt x="60" y="1417" on="1"/>
        <pt x="41" y="1419" on="1"/>
        <pt x="41" y="1480" on="1"/>
      </contour>
      <contour>
        <pt x="436" y="1413" on="1"/>
        <pt x="436" y="259" on="1"/>
        <pt x="440" y="181" on="1"/>
        <pt x="444" y="110" on="0"/>
        <pt x="498" y="87" on="1"/>
        <pt x="544" y="68" on="0"/>
        <pt x="638" y="68" on="1"/>
        <pt x="894" y="68" on="0"/>
        <pt x="1032" y="243" on="1"/>
        <pt x="1171" y="419" on="0"/>
        <pt x="1171" y="743" on="1"/>
        <pt x="1171" y="1098" on="0"/>
        <pt x="1021" y="1256" on="1"/>
        <pt x="871" y="1413" on="0"/>
        <pt x="532" y="1413" on="1"/>
      </contour>
    </TTGlyph>
    <TTGlyph name="Dcaron" xMin="41" yMin="0" xMax="1399" yMax="1925">
      <contour>
        <pt x="465" y="1480" on="1"/>
        <pt x="536" y="1481" on="1"/>
        <pt x="608" y="1484" on="1"/>
        <pt x="680" y="1485" on="1"/>
        <pt x="989" y="1489" on="0"/>
        <pt x="1176" y="1335" on="1"/>
        <pt x="1399" y="1152" on="0"/>
        <pt x="1399" y="772" on="1"/>
        <pt x="1399" y="414" on="0"/>
        <pt x="1208" y="207" on="1"/>
        <pt x="1017" y="0" on="0"/>
        <pt x="687" y="0" on="1"/>
        <pt x="41" y="0" on="1"/>
        <pt x="41" y="62" on="1"/>
        <pt x="60" y="63" on="1"/>
        <pt x="127" y="68" on="1"/>
        <pt x="203" y="74" on="0"/>
        <pt x="213" y="115" on="1"/>
        <pt x="226" y="177" on="0"/>
        <pt x="226" y="259" on="1"/>
        <pt x="226" y="1221" on="1"/>
        <pt x="226" y="1280" on="0"/>
        <pt x="219" y="1333" on="1"/>
        <pt x="213" y="1372" on="0"/>
        <pt x="205" y="1384" on="1"/>
        <pt x="187" y="1410" on="0"/>
        <pt x="127" y="1413" on="1"/>
        <pt x="60" y="1417" on="1"/>
        <pt x="41" y="1419" on="1"/>
        <pt x="41" y="1480" on="1"/>
      </contour>
      <contour>
        <pt x="436" y="1413" on="1"/>
        <pt x="436" y="259" on="1"/>
        <pt x="440" y="181" on="1"/>
        <pt x="444" y="110" on="0"/>
        <pt x="498" y="87" on="1"/>
        <pt x="544" y="68" on="0"/>
        <pt x="638" y="68" on="1"/>
        <pt x="894" y="68" on="0"/>
        <pt x="1032" y="243" on="1"/>
        <pt x="1171" y="419" on="0"/>
        <pt x="1171" y="743" on="1"/>
        <pt x="1171" y="1098" on="0"/>
        <pt x="1021" y="1256" on="1"/>
        <pt x="871" y="1413" on="0"/>
        <pt x="532" y="1413" on="1"/>
      </contour>
      <contour>
        <pt x="1046" y="1925" on="1"/>
        <pt x="806" y="1604" on="1"/>
        <pt x="584" y="1604" on="1"/>
        <pt x="343" y="1925" on="1"/>
        <pt x="429" y="1925" on="1"/>
        <pt x="695" y="1703" on="1"/>
        <pt x="960" y="1925" on="1"/>
      </contour>
    </TTGlyph>
    <TTGlyph name="Dcroat" xMin="41" yMin="0" xMax="1399" yMax="1489">
      <contour>
        <pt x="226" y="716" on="1"/>
        <pt x="41" y="716" on="1"/>
        <pt x="41" y="783" on="1"/>
        <pt x="226" y="783" on="1"/>
        <pt x="226" y="1221" on="1"/>
        <pt x="226" y="1280" on="0"/>
        <pt x="219" y="1333" on="1"/>
        <pt x="213" y="1372" on="0"/>
        <pt x="205" y="1384" on="1"/>
        <pt x="187" y="1410" on="0"/>
        <pt x="127" y="1413" on="1"/>
        <pt x="60" y="1417" on="1"/>
        <pt x="41" y="1419" on="1"/>
        <pt x="41" y="1480" on="1"/>
        <pt x="465" y="1480" on="1"/>
        <pt x="536" y="1481" on="1"/>
        <pt x="608" y="1484" on="1"/>
        <pt x="680" y="1485" on="1"/>
        <pt x="989" y="1489" on="0"/>
        <pt x="1176" y="1335" on="1"/>
        <pt x="1399" y="1151" on="0"/>
        <pt x="1399" y="772" on="1"/>
        <pt x="1399" y="414" on="0"/>
        <pt x="1208" y="207" on="1"/>
        <pt x="1017" y="0" on="0"/>
        <pt x="687" y="0" on="1"/>
        <pt x="41" y="0" on="1"/>
        <pt x="41" y="62" on="1"/>
        <pt x="60" y="63" on="1"/>
        <pt x="127" y="68" on="1"/>
        <pt x="203" y="74" on="0"/>
        <pt x="213" y="115" on="1"/>
        <pt x="226" y="177" on="0"/>
        <pt x="226" y="259" on="1"/>
      </contour>
      <contour>
        <pt x="436" y="716" on="1"/>
        <pt x="436" y="259" on="1"/>
        <pt x="440" y="181" on="1"/>
        <pt x="444" y="110" on="0"/>
        <pt x="498" y="87" on="1"/>
        <pt x="544" y="68" on="0"/>
        <pt x="638" y="68" on="1"/>
        <pt x="894" y="68" on="0"/>
        <pt x="1032" y="243" on="1"/>
        <pt x="1171" y="419" on="0"/>
        <pt x="1171" y="743" on="1"/>
        <pt x="1171" y="1098" on="0"/>
        <pt x="1021" y="1256" on="1"/>
        <pt x="871" y="1413" on="0"/>
        <pt x="532" y="1413" on="1"/>
        <pt x="436" y="1413" on="1"/>
        <pt x="436" y="783" on="1"/>
        <pt x="781" y="783" on="1"/>
        <pt x="781" y="716" on="1"/>
      </contour>
    </TTGlyph>
    <TTGlyph name="E" xMin="43" yMin="0" xMax="1202" yMax="1480">
      <contour>
        <pt x="1146" y="1480" on="1"/>
        <pt x="1146" y="1221" on="1"/>
        <pt x="1035" y="1221" on="1"/>
        <pt x="1034" y="1240" on="1"/>
        <pt x="1029" y="1324" on="1"/>
        <pt x="1028" y="1379" on="0"/>
        <pt x="1010" y="1390" on="1"/>
        <pt x="993" y="1399" on="0"/>
        <pt x="956" y="1399" on="1"/>
        <pt x="853" y="1400" on="1"/>
        <pt x="438" y="1400" on="1"/>
        <pt x="438" y="808" on="1"/>
        <pt x="801" y="809" on="1"/>
        <pt x="864" y="811" on="1"/>
        <pt x="917" y="812" on="0"/>
        <pt x="925" y="827" on="1"/>
        <pt x="933" y="840" on="0"/>
        <pt x="933" y="872" on="1"/>
        <pt x="933" y="884" on="0"/>
        <pt x="935" y="913" on="1"/>
        <pt x="936" y="931" on="1"/>
        <pt x="1017" y="931" on="1"/>
        <pt x="1017" y="605" on="1"/>
        <pt x="936" y="605" on="1"/>
        <pt x="935" y="623" on="1"/>
        <pt x="929" y="710" on="0"/>
        <pt x="905" y="717" on="1"/>
        <pt x="880" y="728" on="0"/>
        <pt x="801" y="728" on="1"/>
        <pt x="438" y="728" on="1"/>
        <pt x="438" y="259" on="1"/>
        <pt x="438" y="123" on="0"/>
        <pt x="478" y="105" on="1"/>
        <pt x="514" y="86" on="0"/>
        <pt x="608" y="86" on="1"/>
        <pt x="858" y="86" on="1"/>
        <pt x="1005" y="86" on="0"/>
        <pt x="1043" y="100" on="1"/>
        <pt x="1083" y="113" on="0"/>
        <pt x="1086" y="162" on="1"/>
        <pt x="1090" y="253" on="1"/>
        <pt x="1091" y="271" on="1"/>
        <pt x="1202" y="271" on="1"/>
        <pt x="1202" y="0" on="1"/>
        <pt x="43" y="0" on="1"/>
        <pt x="43" y="62" on="1"/>
        <pt x="62" y="63" on="1"/>
        <pt x="129" y="68" on="1"/>
        <pt x="205" y="74" on="0"/>
        <pt x="215" y="115" on="1"/>
        <pt x="228" y="177" on="0"/>
        <pt x="228" y="259" on="1"/>
        <pt x="228" y="1221" on="1"/>
        <pt x="228" y="1280" on="0"/>
        <pt x="221" y="1333" on="1"/>
        <pt x="215" y="1372" on="0"/>
        <pt x="207" y="1384" on="1"/>
        <pt x="189" y="1410" on="0"/>
        <pt x="129" y="1413" on="1"/>
        <pt x="62" y="1417" on="1"/>
        <pt x="43" y="1419" on="1"/>
        <pt x="43" y="1480" on="1"/>
      </contour>
    </TTGlyph>
    <TTGlyph name="Eacute" xMin="43" yMin="0" xMax="1202" yMax="1925">
      <contour>
        <pt x="1146" y="1480" on="1"/>
        <pt x="1146" y="1221" on="1"/>
        <pt x="1035" y="1221" on="1"/>
        <pt x="1034" y="1240" on="1"/>
        <pt x="1029" y="1324" on="1"/>
        <pt x="1028" y="1379" on="0"/>
        <pt x="1010" y="1390" on="1"/>
        <pt x="993" y="1399" on="0"/>
        <pt x="956" y="1399" on="1"/>
        <pt x="853" y="1400" on="1"/>
        <pt x="438" y="1400" on="1"/>
        <pt x="438" y="808" on="1"/>
        <pt x="801" y="809" on="1"/>
        <pt x="864" y="811" on="1"/>
        <pt x="917" y="812" on="0"/>
        <pt x="925" y="827" on="1"/>
        <pt x="933" y="840" on="0"/>
        <pt x="933" y="872" on="1"/>
        <pt x="933" y="884" on="0"/>
        <pt x="935" y="913" on="1"/>
        <pt x="936" y="931" on="1"/>
        <pt x="1017" y="931" on="1"/>
        <pt x="1017" y="605" on="1"/>
        <pt x="936" y="605" on="1"/>
        <pt x="935" y="623" on="1"/>
        <pt x="929" y="710" on="0"/>
        <pt x="905" y="717" on="1"/>
        <pt x="880" y="728" on="0"/>
        <pt x="801" y="728" on="1"/>
        <pt x="438" y="728" on="1"/>
        <pt x="438" y="259" on="1"/>
        <pt x="438" y="123" on="0"/>
        <pt x="478" y="105" on="1"/>
        <pt x="514" y="86" on="0"/>
        <pt x="608" y="86" on="1"/>
        <pt x="858" y="86" on="1"/>
        <pt x="1005" y="86" on="0"/>
        <pt x="1043" y="100" on="1"/>
        <pt x="1083" y="113" on="0"/>
        <pt x="1086" y="162" on="1"/>
        <pt x="1090" y="253" on="1"/>
        <pt x="1091" y="271" on="1"/>
        <pt x="1202" y="271" on="1"/>
        <pt x="1202" y="0" on="1"/>
        <pt x="43" y="0" on="1"/>
        <pt x="43" y="62" on="1"/>
        <pt x="62" y="63" on="1"/>
        <pt x="129" y="68" on="1"/>
        <pt x="205" y="74" on="0"/>
        <pt x="215" y="115" on="1"/>
        <pt x="228" y="177" on="0"/>
        <pt x="228" y="259" on="1"/>
        <pt x="228" y="1221" on="1"/>
        <pt x="228" y="1280" on="0"/>
        <pt x="221" y="1333" on="1"/>
        <pt x="215" y="1372" on="0"/>
        <pt x="207" y="1384" on="1"/>
        <pt x="189" y="1410" on="0"/>
        <pt x="129" y="1413" on="1"/>
        <pt x="62" y="1417" on="1"/>
        <pt x="43" y="1419" on="1"/>
        <pt x="43" y="1480" on="1"/>
      </contour>
      <contour>
        <pt x="413" y="1604" on="1"/>
        <pt x="654" y="1925" on="1"/>
        <pt x="913" y="1925" on="1"/>
        <pt x="506" y="1604" on="1"/>
      </contour>
    </TTGlyph>
    <TTGlyph name="Ebreve" xMin="43" yMin="0" xMax="1202" yMax="1925">
      <contour>
        <pt x="1146" y="1480" on="1"/>
        <pt x="1146" y="1221" on="1"/>
        <pt x="1035" y="1221" on="1"/>
        <pt x="1034" y="1240" on="1"/>
        <pt x="1029" y="1324" on="1"/>
        <pt x="1028" y="1379" on="0"/>
        <pt x="1010" y="1390" on="1"/>
        <pt x="993" y="1399" on="0"/>
        <pt x="956" y="1399" on="1"/>
        <pt x="853" y="1400" on="1"/>
        <pt x="438" y="1400" on="1"/>
        <pt x="438" y="808" on="1"/>
        <pt x="801" y="809" on="1"/>
        <pt x="864" y="811" on="1"/>
        <pt x="917" y="812" on="0"/>
        <pt x="925" y="827" on="1"/>
        <pt x="933" y="840" on="0"/>
        <pt x="933" y="872" on="1"/>
        <pt x="933" y="884" on="0"/>
        <pt x="935" y="913" on="1"/>
        <pt x="936" y="931" on="1"/>
        <pt x="1017" y="931" on="1"/>
        <pt x="1017" y="605" on="1"/>
        <pt x="936" y="605" on="1"/>
        <pt x="935" y="623" on="1"/>
        <pt x="929" y="710" on="0"/>
        <pt x="905" y="717" on="1"/>
        <pt x="880" y="728" on="0"/>
        <pt x="801" y="728" on="1"/>
        <pt x="438" y="728" on="1"/>
        <pt x="438" y="259" on="1"/>
        <pt x="438" y="123" on="0"/>
        <pt x="478" y="105" on="1"/>
        <pt x="514" y="86" on="0"/>
        <pt x="608" y="86" on="1"/>
        <pt x="858" y="86" on="1"/>
        <pt x="1005" y="86" on="0"/>
        <pt x="1043" y="100" on="1"/>
        <pt x="1083" y="113" on="0"/>
        <pt x="1086" y="162" on="1"/>
        <pt x="1090" y="253" on="1"/>
        <pt x="1091" y="271" on="1"/>
        <pt x="1202" y="271" on="1"/>
        <pt x="1202" y="0" on="1"/>
        <pt x="43" y="0" on="1"/>
        <pt x="43" y="62" on="1"/>
        <pt x="62" y="63" on="1"/>
        <pt x="129" y="68" on="1"/>
        <pt x="205" y="74" on="0"/>
        <pt x="215" y="115" on="1"/>
        <pt x="228" y="177" on="0"/>
        <pt x="228" y="259" on="1"/>
        <pt x="228" y="1221" on="1"/>
        <pt x="228" y="1280" on="0"/>
        <pt x="221" y="1333" on="1"/>
        <pt x="215" y="1372" on="0"/>
        <pt x="207" y="1384" on="1"/>
        <pt x="189" y="1410" on="0"/>
        <pt x="129" y="1413" on="1"/>
        <pt x="62" y="1417" on="1"/>
        <pt x="43" y="1419" on="1"/>
        <pt x="43" y="1480" on="1"/>
      </contour>
      <contour>
        <pt x="315" y="1925" on="1"/>
        <pt x="380" y="1925" on="1"/>
        <pt x="407" y="1835" on="0"/>
        <pt x="467" y="1793" on="1"/>
        <pt x="535" y="1746" on="0"/>
        <pt x="648" y="1746" on="1"/>
        <pt x="774" y="1746" on="0"/>
        <pt x="844" y="1805" on="1"/>
        <pt x="893" y="1845" on="0"/>
        <pt x="917" y="1925" on="1"/>
        <pt x="981" y="1925" on="1"/>
        <pt x="962" y="1790" on="0"/>
        <pt x="890" y="1709" on="1"/>
        <pt x="796" y="1604" on="0"/>
        <pt x="648" y="1604" on="1"/>
        <pt x="494" y="1604" on="0"/>
        <pt x="399" y="1719" on="1"/>
        <pt x="334" y="1797" on="0"/>
      </contour>
    </TTGlyph>
    <TTGlyph name="Ecaron" xMin="43" yMin="0" xMax="1202" yMax="1925">
      <contour>
        <pt x="1146" y="1480" on="1"/>
        <pt x="1146" y="1221" on="1"/>
        <pt x="1035" y="1221" on="1"/>
        <pt x="1034" y="1240" on="1"/>
        <pt x="1029" y="1324" on="1"/>
        <pt x="1028" y="1379" on="0"/>
        <pt x="1010" y="1390" on="1"/>
        <pt x="993" y="1399" on="0"/>
        <pt x="956" y="1399" on="1"/>
        <pt x="853" y="1400" on="1"/>
        <pt x="438" y="1400" on="1"/>
        <pt x="438" y="808" on="1"/>
        <pt x="801" y="809" on="1"/>
        <pt x="864" y="811" on="1"/>
        <pt x="917" y="812" on="0"/>
        <pt x="925" y="827" on="1"/>
        <pt x="933" y="840" on="0"/>
        <pt x="933" y="872" on="1"/>
        <pt x="933" y="884" on="0"/>
        <pt x="935" y="913" on="1"/>
        <pt x="936" y="931" on="1"/>
        <pt x="1017" y="931" on="1"/>
        <pt x="1017" y="605" on="1"/>
        <pt x="936" y="605" on="1"/>
        <pt x="935" y="623" on="1"/>
        <pt x="929" y="710" on="0"/>
        <pt x="905" y="717" on="1"/>
        <pt x="880" y="728" on="0"/>
        <pt x="801" y="728" on="1"/>
        <pt x="438" y="728" on="1"/>
        <pt x="438" y="259" on="1"/>
        <pt x="438" y="123" on="0"/>
        <pt x="478" y="105" on="1"/>
        <pt x="514" y="86" on="0"/>
        <pt x="608" y="86" on="1"/>
        <pt x="858" y="86" on="1"/>
        <pt x="1005" y="86" on="0"/>
        <pt x="1043" y="100" on="1"/>
        <pt x="1083" y="113" on="0"/>
        <pt x="1086" y="162" on="1"/>
        <pt x="1090" y="253" on="1"/>
        <pt x="1091" y="271" on="1"/>
        <pt x="1202" y="271" on="1"/>
        <pt x="1202" y="0" on="1"/>
        <pt x="43" y="0" on="1"/>
        <pt x="43" y="62" on="1"/>
        <pt x="62" y="63" on="1"/>
        <pt x="129" y="68" on="1"/>
        <pt x="205" y="74" on="0"/>
        <pt x="215" y="115" on="1"/>
        <pt x="228" y="177" on="0"/>
        <pt x="228" y="259" on="1"/>
        <pt x="228" y="1221" on="1"/>
        <pt x="228" y="1280" on="0"/>
        <pt x="221" y="1333" on="1"/>
        <pt x="215" y="1372" on="0"/>
        <pt x="207" y="1384" on="1"/>
        <pt x="189" y="1410" on="0"/>
        <pt x="129" y="1413" on="1"/>
        <pt x="62" y="1417" on="1"/>
        <pt x="43" y="1419" on="1"/>
        <pt x="43" y="1480" on="1"/>
      </contour>
      <contour>
        <pt x="1024" y="1925" on="1"/>
        <pt x="784" y="1604" on="1"/>
        <pt x="562" y="1604" on="1"/>
        <pt x="321" y="1925" on="1"/>
        <pt x="407" y="1925" on="1"/>
        <pt x="673" y="1703" on="1"/>
        <pt x="938" y="1925" on="1"/>
      </contour>
    </TTGlyph>
    <TTGlyph name="Ecircumflex" xMin="43" yMin="0" xMax="1202" yMax="1925">
      <contour>
        <pt x="1146" y="1480" on="1"/>
        <pt x="1146" y="1221" on="1"/>
        <pt x="1035" y="1221" on="1"/>
        <pt x="1034" y="1240" on="1"/>
        <pt x="1029" y="1324" on="1"/>
        <pt x="1028" y="1379" on="0"/>
        <pt x="1010" y="1390" on="1"/>
        <pt x="993" y="1399" on="0"/>
        <pt x="956" y="1399" on="1"/>
        <pt x="853" y="1400" on="1"/>
        <pt x="438" y="1400" on="1"/>
        <pt x="438" y="808" on="1"/>
        <pt x="801" y="809" on="1"/>
        <pt x="864" y="811" on="1"/>
        <pt x="917" y="812" on="0"/>
        <pt x="925" y="827" on="1"/>
        <pt x="933" y="840" on="0"/>
        <pt x="933" y="872" on="1"/>
        <pt x="933" y="884" on="0"/>
        <pt x="935" y="913" on="1"/>
        <pt x="936" y="931" on="1"/>
        <pt x="1017" y="931" on="1"/>
        <pt x="1017" y="605" on="1"/>
        <pt x="936" y="605" on="1"/>
        <pt x="935" y="623" on="1"/>
        <pt x="929" y="710" on="0"/>
        <pt x="905" y="717" on="1"/>
        <pt x="880" y="728" on="0"/>
        <pt x="801" y="728" on="1"/>
        <pt x="438" y="728" on="1"/>
        <pt x="438" y="259" on="1"/>
        <pt x="438" y="123" on="0"/>
        <pt x="478" y="105" on="1"/>
        <pt x="514" y="86" on="0"/>
        <pt x="608" y="86" on="1"/>
        <pt x="858" y="86" on="1"/>
        <pt x="1005" y="86" on="0"/>
        <pt x="1043" y="100" on="1"/>
        <pt x="1083" y="113" on="0"/>
        <pt x="1086" y="162" on="1"/>
        <pt x="1090" y="253" on="1"/>
        <pt x="1091" y="271" on="1"/>
        <pt x="1202" y="271" on="1"/>
        <pt x="1202" y="0" on="1"/>
        <pt x="43" y="0" on="1"/>
        <pt x="43" y="62" on="1"/>
        <pt x="62" y="63" on="1"/>
        <pt x="129" y="68" on="1"/>
        <pt x="205" y="74" on="0"/>
        <pt x="215" y="115" on="1"/>
        <pt x="228" y="177" on="0"/>
        <pt x="228" y="259" on="1"/>
        <pt x="228" y="1221" on="1"/>
        <pt x="228" y="1280" on="0"/>
        <pt x="221" y="1333" on="1"/>
        <pt x="215" y="1372" on="0"/>
        <pt x="207" y="1384" on="1"/>
        <pt x="189" y="1410" on="0"/>
        <pt x="129" y="1413" on="1"/>
        <pt x="62" y="1417" on="1"/>
        <pt x="43" y="1419" on="1"/>
        <pt x="43" y="1480" on="1"/>
      </contour>
      <contour>
        <pt x="265" y="1604" on="1"/>
        <pt x="506" y="1925" on="1"/>
        <pt x="728" y="1925" on="1"/>
        <pt x="968" y="1604" on="1"/>
        <pt x="882" y="1604" on="1"/>
        <pt x="617" y="1826" on="1"/>
        <pt x="351" y="1604" on="1"/>
      </contour>
    </TTGlyph>
    <TTGlyph name="Edieresis" xMin="43" yMin="0" xMax="1202" yMax="1777">
      <contour>
        <pt x="1146" y="1480" on="1"/>
        <pt x="1146" y="1221" on="1"/>
        <pt x="1035" y="1221" on="1"/>
        <pt x="1034" y="1240" on="1"/>
        <pt x="1029" y="1324" on="1"/>
        <pt x="1028" y="1379" on="0"/>
        <pt x="1010" y="1390" on="1"/>
        <pt x="993" y="1399" on="0"/>
        <pt x="956" y="1399" on="1"/>
        <pt x="853" y="1400" on="1"/>
        <pt x="438" y="1400" on="1"/>
        <pt x="438" y="808" on="1"/>
        <pt x="801" y="809" on="1"/>
        <pt x="864" y="811" on="1"/>
        <pt x="917" y="812" on="0"/>
        <pt x="925" y="827" on="1"/>
        <pt x="933" y="840" on="0"/>
        <pt x="933" y="872" on="1"/>
        <pt x="933" y="884" on="0"/>
        <pt x="935" y="913" on="1"/>
        <pt x="936" y="931" on="1"/>
        <pt x="1017" y="931" on="1"/>
        <pt x="1017" y="605" on="1"/>
        <pt x="936" y="605" on="1"/>
        <pt x="935" y="623" on="1"/>
        <pt x="929" y="710" on="0"/>
        <pt x="905" y="717" on="1"/>
        <pt x="880" y="728" on="0"/>
        <pt x="801" y="728" on="1"/>
        <pt x="438" y="728" on="1"/>
        <pt x="438" y="259" on="1"/>
        <pt x="438" y="123" on="0"/>
        <pt x="478" y="105" on="1"/>
        <pt x="514" y="86" on="0"/>
        <pt x="608" y="86" on="1"/>
        <pt x="858" y="86" on="1"/>
        <pt x="1005" y="86" on="0"/>
        <pt x="1043" y="100" on="1"/>
        <pt x="1083" y="113" on="0"/>
        <pt x="1086" y="162" on="1"/>
        <pt x="1090" y="253" on="1"/>
        <pt x="1091" y="271" on="1"/>
        <pt x="1202" y="271" on="1"/>
        <pt x="1202" y="0" on="1"/>
        <pt x="43" y="0" on="1"/>
        <pt x="43" y="62" on="1"/>
        <pt x="62" y="63" on="1"/>
        <pt x="129" y="68" on="1"/>
        <pt x="205" y="74" on="0"/>
        <pt x="215" y="115" on="1"/>
        <pt x="228" y="177" on="0"/>
        <pt x="228" y="259" on="1"/>
        <pt x="228" y="1221" on="1"/>
        <pt x="228" y="1280" on="0"/>
        <pt x="221" y="1333" on="1"/>
        <pt x="215" y="1372" on="0"/>
        <pt x="207" y="1384" on="1"/>
        <pt x="189" y="1410" on="0"/>
        <pt x="129" y="1413" on="1"/>
        <pt x="62" y="1417" on="1"/>
        <pt x="43" y="1419" on="1"/>
        <pt x="43" y="1480" on="1"/>
      </contour>
      <contour>
        <pt x="326" y="1604" on="1"/>
        <pt x="326" y="1777" on="1"/>
        <pt x="499" y="1777" on="1"/>
        <pt x="499" y="1604" on="1"/>
      </contour>
      <contour>
        <pt x="721" y="1604" on="1"/>
        <pt x="721" y="1777" on="1"/>
        <pt x="894" y="1777" on="1"/>
        <pt x="894" y="1604" on="1"/>
      </contour>
    </TTGlyph>
    <TTGlyph name="Edotaccent" xMin="43" yMin="0" xMax="1202" yMax="1801">
      <contour>
        <pt x="1146" y="1480" on="1"/>
        <pt x="1146" y="1221" on="1"/>
        <pt x="1035" y="1221" on="1"/>
        <pt x="1034" y="1240" on="1"/>
        <pt x="1029" y="1324" on="1"/>
        <pt x="1028" y="1379" on="0"/>
        <pt x="1010" y="1390" on="1"/>
        <pt x="993" y="1399" on="0"/>
        <pt x="956" y="1399" on="1"/>
        <pt x="853" y="1400" on="1"/>
        <pt x="438" y="1400" on="1"/>
        <pt x="438" y="808" on="1"/>
        <pt x="801" y="809" on="1"/>
        <pt x="864" y="811" on="1"/>
        <pt x="917" y="812" on="0"/>
        <pt x="925" y="827" on="1"/>
        <pt x="933" y="840" on="0"/>
        <pt x="933" y="872" on="1"/>
        <pt x="933" y="884" on="0"/>
        <pt x="935" y="913" on="1"/>
        <pt x="936" y="931" on="1"/>
        <pt x="1017" y="931" on="1"/>
        <pt x="1017" y="605" on="1"/>
        <pt x="936" y="605" on="1"/>
        <pt x="935" y="623" on="1"/>
        <pt x="929" y="710" on="0"/>
        <pt x="905" y="717" on="1"/>
        <pt x="880" y="728" on="0"/>
        <pt x="801" y="728" on="1"/>
        <pt x="438" y="728" on="1"/>
        <pt x="438" y="259" on="1"/>
        <pt x="438" y="123" on="0"/>
        <pt x="478" y="105" on="1"/>
        <pt x="514" y="86" on="0"/>
        <pt x="608" y="86" on="1"/>
        <pt x="858" y="86" on="1"/>
        <pt x="1005" y="86" on="0"/>
        <pt x="1043" y="100" on="1"/>
        <pt x="1083" y="113" on="0"/>
        <pt x="1086" y="162" on="1"/>
        <pt x="1090" y="253" on="1"/>
        <pt x="1091" y="271" on="1"/>
        <pt x="1202" y="271" on="1"/>
        <pt x="1202" y="0" on="1"/>
        <pt x="43" y="0" on="1"/>
        <pt x="43" y="62" on="1"/>
        <pt x="62" y="63" on="1"/>
        <pt x="129" y="68" on="1"/>
        <pt x="205" y="74" on="0"/>
        <pt x="215" y="115" on="1"/>
        <pt x="228" y="177" on="0"/>
        <pt x="228" y="259" on="1"/>
        <pt x="228" y="1221" on="1"/>
        <pt x="228" y="1280" on="0"/>
        <pt x="221" y="1333" on="1"/>
        <pt x="215" y="1372" on="0"/>
        <pt x="207" y="1384" on="1"/>
        <pt x="189" y="1410" on="0"/>
        <pt x="129" y="1413" on="1"/>
        <pt x="62" y="1417" on="1"/>
        <pt x="43" y="1419" on="1"/>
        <pt x="43" y="1480" on="1"/>
      </contour>
      <contour>
        <pt x="536" y="1604" on="1"/>
        <pt x="536" y="1801" on="1"/>
        <pt x="733" y="1801" on="1"/>
        <pt x="733" y="1604" on="1"/>
      </contour>
    </TTGlyph>
    <TTGlyph name="Egrave" xMin="43" yMin="0" xMax="1202" yMax="1925">
      <contour>
        <pt x="1146" y="1480" on="1"/>
        <pt x="1146" y="1221" on="1"/>
        <pt x="1035" y="1221" on="1"/>
        <pt x="1034" y="1240" on="1"/>
        <pt x="1029" y="1324" on="1"/>
        <pt x="1028" y="1379" on="0"/>
        <pt x="1010" y="1390" on="1"/>
        <pt x="993" y="1399" on="0"/>
        <pt x="956" y="1399" on="1"/>
        <pt x="853" y="1400" on="1"/>
        <pt x="438" y="1400" on="1"/>
        <pt x="438" y="808" on="1"/>
        <pt x="801" y="809" on="1"/>
        <pt x="864" y="811" on="1"/>
        <pt x="917" y="812" on="0"/>
        <pt x="925" y="827" on="1"/>
        <pt x="933" y="840" on="0"/>
        <pt x="933" y="872" on="1"/>
        <pt x="933" y="884" on="0"/>
        <pt x="935" y="913" on="1"/>
        <pt x="936" y="931" on="1"/>
        <pt x="1017" y="931" on="1"/>
        <pt x="1017" y="605" on="1"/>
        <pt x="936" y="605" on="1"/>
        <pt x="935" y="623" on="1"/>
        <pt x="929" y="710" on="0"/>
        <pt x="905" y="717" on="1"/>
        <pt x="880" y="728" on="0"/>
        <pt x="801" y="728" on="1"/>
        <pt x="438" y="728" on="1"/>
        <pt x="438" y="259" on="1"/>
        <pt x="438" y="123" on="0"/>
        <pt x="478" y="105" on="1"/>
        <pt x="514" y="86" on="0"/>
        <pt x="608" y="86" on="1"/>
        <pt x="858" y="86" on="1"/>
        <pt x="1005" y="86" on="0"/>
        <pt x="1043" y="100" on="1"/>
        <pt x="1083" y="113" on="0"/>
        <pt x="1086" y="162" on="1"/>
        <pt x="1090" y="253" on="1"/>
        <pt x="1091" y="271" on="1"/>
        <pt x="1202" y="271" on="1"/>
        <pt x="1202" y="0" on="1"/>
        <pt x="43" y="0" on="1"/>
        <pt x="43" y="62" on="1"/>
        <pt x="62" y="63" on="1"/>
        <pt x="129" y="68" on="1"/>
        <pt x="205" y="74" on="0"/>
        <pt x="215" y="115" on="1"/>
        <pt x="228" y="177" on="0"/>
        <pt x="228" y="259" on="1"/>
        <pt x="228" y="1221" on="1"/>
        <pt x="228" y="1280" on="0"/>
        <pt x="221" y="1333" on="1"/>
        <pt x="215" y="1372" on="0"/>
        <pt x="207" y="1384" on="1"/>
        <pt x="189" y="1410" on="0"/>
        <pt x="129" y="1413" on="1"/>
        <pt x="62" y="1417" on="1"/>
        <pt x="43" y="1419" on="1"/>
        <pt x="43" y="1480" on="1"/>
      </contour>
      <contour>
        <pt x="792" y="1604" on="1"/>
        <pt x="699" y="1604" on="1"/>
        <pt x="292" y="1925" on="1"/>
        <pt x="551" y="1925" on="1"/>
      </contour>
    </TTGlyph>
    <TTGlyph name="Emacron" xMin="43" yMin="0" xMax="1202" yMax="1727">
      <contour>
        <pt x="1146" y="1480" on="1"/>
        <pt x="1146" y="1221" on="1"/>
        <pt x="1035" y="1221" on="1"/>
        <pt x="1034" y="1240" on="1"/>
        <pt x="1029" y="1324" on="1"/>
        <pt x="1028" y="1379" on="0"/>
        <pt x="1010" y="1390" on="1"/>
        <pt x="993" y="1399" on="0"/>
        <pt x="956" y="1399" on="1"/>
        <pt x="853" y="1400" on="1"/>
        <pt x="438" y="1400" on="1"/>
        <pt x="438" y="808" on="1"/>
        <pt x="801" y="809" on="1"/>
        <pt x="864" y="811" on="1"/>
        <pt x="917" y="812" on="0"/>
        <pt x="925" y="827" on="1"/>
        <pt x="933" y="840" on="0"/>
        <pt x="933" y="872" on="1"/>
        <pt x="933" y="884" on="0"/>
        <pt x="935" y="913" on="1"/>
        <pt x="936" y="931" on="1"/>
        <pt x="1017" y="931" on="1"/>
        <pt x="1017" y="605" on="1"/>
        <pt x="936" y="605" on="1"/>
        <pt x="935" y="623" on="1"/>
        <pt x="929" y="710" on="0"/>
        <pt x="905" y="717" on="1"/>
        <pt x="880" y="728" on="0"/>
        <pt x="801" y="728" on="1"/>
        <pt x="438" y="728" on="1"/>
        <pt x="438" y="259" on="1"/>
        <pt x="438" y="123" on="0"/>
        <pt x="478" y="105" on="1"/>
        <pt x="514" y="86" on="0"/>
        <pt x="608" y="86" on="1"/>
        <pt x="858" y="86" on="1"/>
        <pt x="1005" y="86" on="0"/>
        <pt x="1043" y="100" on="1"/>
        <pt x="1083" y="113" on="0"/>
        <pt x="1086" y="162" on="1"/>
        <pt x="1090" y="253" on="1"/>
        <pt x="1091" y="271" on="1"/>
        <pt x="1202" y="271" on="1"/>
        <pt x="1202" y="0" on="1"/>
        <pt x="43" y="0" on="1"/>
        <pt x="43" y="62" on="1"/>
        <pt x="62" y="63" on="1"/>
        <pt x="129" y="68" on="1"/>
        <pt x="205" y="74" on="0"/>
        <pt x="215" y="115" on="1"/>
        <pt x="228" y="177" on="0"/>
        <pt x="228" y="259" on="1"/>
        <pt x="228" y="1221" on="1"/>
        <pt x="228" y="1280" on="0"/>
        <pt x="221" y="1333" on="1"/>
        <pt x="215" y="1372" on="0"/>
        <pt x="207" y="1384" on="1"/>
        <pt x="189" y="1410" on="0"/>
        <pt x="129" y="1413" on="1"/>
        <pt x="62" y="1417" on="1"/>
        <pt x="43" y="1419" on="1"/>
        <pt x="43" y="1480" on="1"/>
      </contour>
      <contour>
        <pt x="339" y="1604" on="1"/>
        <pt x="339" y="1727" on="1"/>
        <pt x="981" y="1727" on="1"/>
        <pt x="981" y="1604" on="1"/>
      </contour>
    </TTGlyph>
    <TTGlyph name="Eng" xMin="43" yMin="-296" xMax="1435" yMax="1480">
      <contour>
        <pt x="43" y="0" on="1"/>
        <pt x="43" y="62" on="1"/>
        <pt x="62" y="63" on="1"/>
        <pt x="130" y="68" on="1"/>
        <pt x="194" y="73" on="0"/>
        <pt x="229" y="140" on="0"/>
        <pt x="229" y="259" on="1"/>
        <pt x="229" y="1221" on="1"/>
        <pt x="230" y="1335" on="0"/>
        <pt x="211" y="1377" on="1"/>
        <pt x="196" y="1409" on="0"/>
        <pt x="130" y="1413" on="1"/>
        <pt x="62" y="1417" on="1"/>
        <pt x="43" y="1419" on="1"/>
        <pt x="43" y="1480" on="1"/>
        <pt x="376" y="1480" on="1"/>
        <pt x="1159" y="331" on="1"/>
        <pt x="1159" y="1221" on="1"/>
        <pt x="1153" y="1320" on="1"/>
        <pt x="1149" y="1384" on="0"/>
        <pt x="1130" y="1397" on="1"/>
        <pt x="1112" y="1410" on="0"/>
        <pt x="1061" y="1413" on="1"/>
        <pt x="993" y="1417" on="1"/>
        <pt x="974" y="1419" on="1"/>
        <pt x="974" y="1480" on="1"/>
        <pt x="1435" y="1480" on="1"/>
        <pt x="1435" y="1419" on="1"/>
        <pt x="1417" y="1417" on="1"/>
        <pt x="1349" y="1413" on="1"/>
        <pt x="1281" y="1408" on="0"/>
        <pt x="1270" y="1386" on="1"/>
        <pt x="1259" y="1367" on="0"/>
        <pt x="1256" y="1320" on="1"/>
        <pt x="1250" y="1221" on="1"/>
        <pt x="1250" y="0" on="1"/>
        <pt x="1250" y="-134" on="0"/>
        <pt x="1171" y="-215" on="1"/>
        <pt x="1092" y="-296" on="0"/>
        <pt x="956" y="-296" on="1"/>
        <pt x="864" y="-296" on="0"/>
        <pt x="742" y="-270" on="1"/>
        <pt x="742" y="-26" on="1"/>
        <pt x="853" y="-26" on="1"/>
        <pt x="854" y="-47" on="1"/>
        <pt x="854" y="-53" on="0"/>
        <pt x="856" y="-72" on="1"/>
        <pt x="857" y="-84" on="0"/>
        <pt x="857" y="-91" on="1"/>
        <pt x="858" y="-107" on="1"/>
        <pt x="858" y="-111" on="0"/>
        <pt x="858" y="-119" on="1"/>
        <pt x="858" y="-222" on="0"/>
        <pt x="983" y="-222" on="1"/>
        <pt x="1152" y="-222" on="0"/>
        <pt x="1152" y="-10" on="1"/>
        <pt x="1152" y="0" on="1"/>
        <pt x="322" y="1220" on="1"/>
        <pt x="322" y="259" on="1"/>
        <pt x="321" y="144" on="0"/>
        <pt x="340" y="104" on="1"/>
        <pt x="355" y="72" on="0"/>
        <pt x="421" y="68" on="1"/>
        <pt x="489" y="63" on="1"/>
        <pt x="508" y="62" on="1"/>
        <pt x="508" y="0" on="1"/>
      </contour>
    </TTGlyph>
    <TTGlyph name="Eogonek" xMin="43" yMin="-370" xMax="1202" yMax="1480">
      <contour>
        <pt x="1146" y="1480" on="1"/>
        <pt x="1146" y="1221" on="1"/>
        <pt x="1035" y="1221" on="1"/>
        <pt x="1034" y="1240" on="1"/>
        <pt x="1029" y="1324" on="1"/>
        <pt x="1028" y="1379" on="0"/>
        <pt x="1010" y="1390" on="1"/>
        <pt x="993" y="1399" on="0"/>
        <pt x="956" y="1399" on="1"/>
        <pt x="853" y="1400" on="1"/>
        <pt x="438" y="1400" on="1"/>
        <pt x="438" y="808" on="1"/>
        <pt x="801" y="809" on="1"/>
        <pt x="864" y="811" on="1"/>
        <pt x="917" y="812" on="0"/>
        <pt x="925" y="828" on="1"/>
        <pt x="933" y="841" on="0"/>
        <pt x="933" y="872" on="1"/>
        <pt x="933" y="884" on="0"/>
        <pt x="935" y="913" on="1"/>
        <pt x="936" y="931" on="1"/>
        <pt x="1017" y="931" on="1"/>
        <pt x="1017" y="605" on="1"/>
        <pt x="936" y="605" on="1"/>
        <pt x="935" y="623" on="1"/>
        <pt x="929" y="710" on="0"/>
        <pt x="905" y="717" on="1"/>
        <pt x="880" y="728" on="0"/>
        <pt x="801" y="728" on="1"/>
        <pt x="438" y="728" on="1"/>
        <pt x="438" y="259" on="1"/>
        <pt x="438" y="123" on="0"/>
        <pt x="478" y="105" on="1"/>
        <pt x="514" y="86" on="0"/>
        <pt x="608" y="86" on="1"/>
        <pt x="858" y="86" on="1"/>
        <pt x="1005" y="86" on="0"/>
        <pt x="1043" y="100" on="1"/>
        <pt x="1083" y="113" on="0"/>
        <pt x="1086" y="162" on="1"/>
        <pt x="1090" y="253" on="1"/>
        <pt x="1091" y="271" on="1"/>
        <pt x="1202" y="271" on="1"/>
        <pt x="1202" y="0" on="1"/>
        <pt x="43" y="0" on="1"/>
        <pt x="43" y="62" on="1"/>
        <pt x="62" y="63" on="1"/>
        <pt x="129" y="68" on="1"/>
        <pt x="205" y="74" on="0"/>
        <pt x="215" y="115" on="1"/>
        <pt x="228" y="177" on="0"/>
        <pt x="228" y="259" on="1"/>
        <pt x="228" y="1221" on="1"/>
        <pt x="228" y="1280" on="0"/>
        <pt x="221" y="1333" on="1"/>
        <pt x="215" y="1372" on="0"/>
        <pt x="207" y="1384" on="1"/>
        <pt x="189" y="1410" on="0"/>
        <pt x="129" y="1413" on="1"/>
        <pt x="62" y="1417" on="1"/>
        <pt x="43" y="1419" on="1"/>
        <pt x="43" y="1480" on="1"/>
      </contour>
      <contour>
        <pt x="1140" y="-273" on="1"/>
        <pt x="1140" y="-341" on="1"/>
        <pt x="1069" y="-370" on="0"/>
        <pt x="991" y="-370" on="1"/>
        <pt x="771" y="-370" on="0"/>
        <pt x="771" y="-211" on="1"/>
        <pt x="771" y="-89" on="0"/>
        <pt x="929" y="0" on="1"/>
        <pt x="1036" y="0" on="1"/>
        <pt x="907" y="-80" on="0"/>
        <pt x="907" y="-182" on="1"/>
        <pt x="907" y="-289" on="0"/>
        <pt x="1040" y="-289" on="1"/>
        <pt x="1091" y="-289" on="0"/>
      </contour>
    </TTGlyph>
    <TTGlyph name="Eth" xMin="41" yMin="0" xMax="1399" yMax="1489">
      <contour>
        <pt x="226" y="716" on="1"/>
        <pt x="41" y="716" on="1"/>
        <pt x="41" y="783" on="1"/>
        <pt x="226" y="783" on="1"/>
        <pt x="226" y="1221" on="1"/>
        <pt x="226" y="1280" on="0"/>
        <pt x="219" y="1333" on="1"/>
        <pt x="213" y="1372" on="0"/>
        <pt x="205" y="1384" on="1"/>
        <pt x="187" y="1410" on="0"/>
        <pt x="127" y="1413" on="1"/>
        <pt x="60" y="1417" on="1"/>
        <pt x="41" y="1419" on="1"/>
        <pt x="41" y="1480" on="1"/>
        <pt x="465" y="1480" on="1"/>
        <pt x="536" y="1481" on="1"/>
        <pt x="608" y="1484" on="1"/>
        <pt x="680" y="1485" on="1"/>
        <pt x="989" y="1489" on="0"/>
        <pt x="1176" y="1335" on="1"/>
        <pt x="1399" y="1151" on="0"/>
        <pt x="1399" y="772" on="1"/>
        <pt x="1399" y="414" on="0"/>
        <pt x="1208" y="207" on="1"/>
        <pt x="1017" y="0" on="0"/>
        <pt x="687" y="0" on="1"/>
        <pt x="41" y="0" on="1"/>
        <pt x="41" y="62" on="1"/>
        <pt x="60" y="63" on="1"/>
        <pt x="127" y="68" on="1"/>
        <pt x="203" y="74" on="0"/>
        <pt x="213" y="115" on="1"/>
        <pt x="226" y="177" on="0"/>
        <pt x="226" y="259" on="1"/>
      </contour>
      <contour>
        <pt x="436" y="716" on="1"/>
        <pt x="436" y="259" on="1"/>
        <pt x="440" y="181" on="1"/>
        <pt x="444" y="110" on="0"/>
        <pt x="498" y="87" on="1"/>
        <pt x="544" y="68" on="0"/>
        <pt x="638" y="68" on="1"/>
        <pt x="894" y="68" on="0"/>
        <pt x="1032" y="243" on="1"/>
        <pt x="1171" y="419" on="0"/>
        <pt x="1171" y="743" on="1"/>
        <pt x="1171" y="1098" on="0"/>
        <pt x="1021" y="1256" on="1"/>
        <pt x="871" y="1413" on="0"/>
        <pt x="532" y="1413" on="1"/>
        <pt x="436" y="1413" on="1"/>
        <pt x="436" y="783" on="1"/>
        <pt x="781" y="783" on="1"/>
        <pt x="781" y="716" on="1"/>
      </contour>
    </TTGlyph>
    <TTGlyph name="Euro" xMin="0" yMin="-37" xMax="967" yMax="1517">
      <contour>
        <pt x="0" y="580" on="1"/>
        <pt x="26" y="642" on="1"/>
        <pt x="122" y="642" on="1"/>
        <pt x="119" y="698" on="0"/>
        <pt x="119" y="733" on="1"/>
        <pt x="119" y="759" on="0"/>
        <pt x="121" y="809" on="1"/>
        <pt x="122" y="837" on="0"/>
        <pt x="123" y="851" on="1"/>
        <pt x="0" y="851" on="1"/>
        <pt x="26" y="913" on="1"/>
        <pt x="130" y="913" on="1"/>
        <pt x="155" y="1070" on="0"/>
        <pt x="184" y="1151" on="1"/>
        <pt x="315" y="1517" on="0"/>
        <pt x="669" y="1517" on="1"/>
        <pt x="824" y="1517" on="0"/>
        <pt x="967" y="1443" on="1"/>
        <pt x="967" y="1184" on="1"/>
        <pt x="868" y="1184" on="1"/>
        <pt x="867" y="1239" on="1"/>
        <pt x="863" y="1450" on="0"/>
        <pt x="679" y="1450" on="1"/>
        <pt x="510" y="1450" on="0"/>
        <pt x="415" y="1270" on="1"/>
        <pt x="347" y="1142" on="0"/>
        <pt x="325" y="913" on="1"/>
        <pt x="854" y="913" on="1"/>
        <pt x="828" y="851" on="1"/>
        <pt x="320" y="851" on="1"/>
        <pt x="316" y="786" on="0"/>
        <pt x="316" y="733" on="1"/>
        <pt x="316" y="724" on="0"/>
        <pt x="317" y="692" on="1"/>
        <pt x="318" y="664" on="0"/>
        <pt x="319" y="642" on="1"/>
        <pt x="741" y="642" on="1"/>
        <pt x="716" y="580" on="1"/>
        <pt x="324" y="580" on="1"/>
        <pt x="404" y="62" on="0"/>
        <pt x="719" y="62" on="1"/>
        <pt x="836" y="62" on="0"/>
        <pt x="957" y="138" on="1"/>
        <pt x="957" y="45" on="1"/>
        <pt x="834" y="-37" on="0"/>
        <pt x="674" y="-37" on="1"/>
        <pt x="421" y="-37" on="0"/>
        <pt x="272" y="174" on="1"/>
        <pt x="167" y="323" on="0"/>
        <pt x="129" y="580" on="1"/>
      </contour>
    </TTGlyph>
    <TTGlyph name="Euro#1" xMin="0" yMin="-37" xMax="967" yMax="1517">
      <contour>
        <pt x="0" y="580" on="1"/>
        <pt x="26" y="642" on="1"/>
        <pt x="122" y="642" on="1"/>
        <pt x="119" y="698" on="0"/>
        <pt x="119" y="733" on="1"/>
        <pt x="119" y="759" on="0"/>
        <pt x="121" y="809" on="1"/>
        <pt x="122" y="837" on="0"/>
        <pt x="123" y="851" on="1"/>
        <pt x="0" y="851" on="1"/>
        <pt x="26" y="913" on="1"/>
        <pt x="130" y="913" on="1"/>
        <pt x="155" y="1070" on="0"/>
        <pt x="184" y="1151" on="1"/>
        <pt x="315" y="1517" on="0"/>
        <pt x="669" y="1517" on="1"/>
        <pt x="824" y="1517" on="0"/>
        <pt x="967" y="1443" on="1"/>
        <pt x="967" y="1184" on="1"/>
        <pt x="868" y="1184" on="1"/>
        <pt x="867" y="1239" on="1"/>
        <pt x="863" y="1450" on="0"/>
        <pt x="679" y="1450" on="1"/>
        <pt x="510" y="1450" on="0"/>
        <pt x="415" y="1270" on="1"/>
        <pt x="347" y="1142" on="0"/>
        <pt x="325" y="913" on="1"/>
        <pt x="854" y="913" on="1"/>
        <pt x="828" y="851" on="1"/>
        <pt x="320" y="851" on="1"/>
        <pt x="316" y="786" on="0"/>
        <pt x="316" y="733" on="1"/>
        <pt x="316" y="724" on="0"/>
        <pt x="317" y="692" on="1"/>
        <pt x="318" y="664" on="0"/>
        <pt x="319" y="642" on="1"/>
        <pt x="741" y="642" on="1"/>
        <pt x="716" y="580" on="1"/>
        <pt x="324" y="580" on="1"/>
        <pt x="404" y="62" on="0"/>
        <pt x="719" y="62" on="1"/>
        <pt x="836" y="62" on="0"/>
        <pt x="957" y="138" on="1"/>
        <pt x="957" y="45" on="1"/>
        <pt x="834" y="-37" on="0"/>
        <pt x="674" y="-37" on="1"/>
        <pt x="421" y="-37" on="0"/>
        <pt x="272" y="174" on="1"/>
        <pt x="167" y="323" on="0"/>
        <pt x="129" y="580" on="1"/>
      </contour>
    </TTGlyph>
    <TTGlyph name="F" xMin="43" yMin="0" xMax="1058" yMax="1480">
      <contour>
        <pt x="1058" y="1480" on="1"/>
        <pt x="1058" y="1221" on="1"/>
        <pt x="947" y="1221" on="1"/>
        <pt x="946" y="1240" on="1"/>
        <pt x="941" y="1324" on="1"/>
        <pt x="940" y="1380" on="0"/>
        <pt x="922" y="1390" on="1"/>
        <pt x="905" y="1399" on="0"/>
        <pt x="868" y="1399" on="1"/>
        <pt x="765" y="1400" on="1"/>
        <pt x="438" y="1400" on="1"/>
        <pt x="438" y="799" on="1"/>
        <pt x="725" y="799" on="1"/>
        <pt x="788" y="801" on="1"/>
        <pt x="839" y="802" on="0"/>
        <pt x="848" y="815" on="1"/>
        <pt x="855" y="827" on="0"/>
        <pt x="857" y="857" on="1"/>
        <pt x="858" y="878" on="1"/>
        <pt x="860" y="903" on="1"/>
        <pt x="861" y="921" on="1"/>
        <pt x="941" y="921" on="1"/>
        <pt x="941" y="594" on="1"/>
        <pt x="861" y="594" on="1"/>
        <pt x="860" y="613" on="1"/>
        <pt x="854" y="701" on="0"/>
        <pt x="829" y="708" on="1"/>
        <pt x="803" y="718" on="0"/>
        <pt x="725" y="718" on="1"/>
        <pt x="438" y="718" on="1"/>
        <pt x="438" y="259" on="1"/>
        <pt x="438" y="123" on="0"/>
        <pt x="467" y="95" on="1"/>
        <pt x="491" y="68" on="0"/>
        <pt x="551" y="68" on="1"/>
        <pt x="553" y="68" on="1"/>
        <pt x="569" y="67" on="0"/>
        <pt x="629" y="63" on="1"/>
        <pt x="648" y="62" on="1"/>
        <pt x="648" y="0" on="1"/>
        <pt x="43" y="0" on="1"/>
        <pt x="43" y="62" on="1"/>
        <pt x="62" y="63" on="1"/>
        <pt x="129" y="68" on="1"/>
        <pt x="205" y="74" on="0"/>
        <pt x="215" y="115" on="1"/>
        <pt x="228" y="177" on="0"/>
        <pt x="228" y="259" on="1"/>
        <pt x="228" y="1221" on="1"/>
        <pt x="228" y="1280" on="0"/>
        <pt x="221" y="1333" on="1"/>
        <pt x="215" y="1372" on="0"/>
        <pt x="207" y="1384" on="1"/>
        <pt x="189" y="1410" on="0"/>
        <pt x="129" y="1413" on="1"/>
        <pt x="62" y="1417" on="1"/>
        <pt x="43" y="1419" on="1"/>
        <pt x="43" y="1480" on="1"/>
      </contour>
    </TTGlyph>
    <TTGlyph name="G" xMin="85" yMin="-37" xMax="1458" yMax="1518">
      <contour>
        <pt x="1285" y="36" on="1"/>
        <pt x="994" y="-37" on="0"/>
        <pt x="805" y="-37" on="1"/>
        <pt x="475" y="-37" on="0"/>
        <pt x="280" y="175" on="1"/>
        <pt x="85" y="386" on="0"/>
        <pt x="85" y="745" on="1"/>
        <pt x="85" y="1112" on="0"/>
        <pt x="275" y="1315" on="1"/>
        <pt x="464" y="1518" on="0"/>
        <pt x="815" y="1518" on="1"/>
        <pt x="1047" y="1518" on="0"/>
        <pt x="1282" y="1441" on="1"/>
        <pt x="1282" y="1172" on="1"/>
        <pt x="1171" y="1172" on="1"/>
        <pt x="1170" y="1192" on="1"/>
        <pt x="1168" y="1217" on="0"/>
        <pt x="1168" y="1242" on="1"/>
        <pt x="1168" y="1249" on="1"/>
        <pt x="1168" y="1333" on="0"/>
        <pt x="1094" y="1385" on="1"/>
        <pt x="1001" y="1450" on="0"/>
        <pt x="825" y="1450" on="1"/>
        <pt x="575" y="1450" on="0"/>
        <pt x="444" y="1263" on="1"/>
        <pt x="313" y="1077" on="0"/>
        <pt x="313" y="733" on="1"/>
        <pt x="313" y="386" on="0"/>
        <pt x="475" y="214" on="1"/>
        <pt x="633" y="47" on="0"/>
        <pt x="864" y="47" on="1"/>
        <pt x="948" y="47" on="0"/>
        <pt x="1076" y="80" on="1"/>
        <pt x="1076" y="371" on="1"/>
        <pt x="1077" y="487" on="0"/>
        <pt x="1058" y="527" on="1"/>
        <pt x="1043" y="557" on="0"/>
        <pt x="977" y="562" on="1"/>
        <pt x="909" y="568" on="1"/>
        <pt x="891" y="569" on="1"/>
        <pt x="891" y="630" on="1"/>
        <pt x="1458" y="630" on="1"/>
        <pt x="1458" y="569" on="1"/>
        <pt x="1440" y="568" on="1"/>
        <pt x="1384" y="562" on="1"/>
        <pt x="1317" y="556" on="0"/>
        <pt x="1305" y="535" on="1"/>
        <pt x="1294" y="516" on="0"/>
        <pt x="1291" y="470" on="1"/>
        <pt x="1285" y="371" on="1"/>
      </contour>
    </TTGlyph>
    <TTGlyph name="Gbreve" xMin="85" yMin="-37" xMax="1458" yMax="1925">
      <contour>
        <pt x="1285" y="36" on="1"/>
        <pt x="994" y="-37" on="0"/>
        <pt x="805" y="-37" on="1"/>
        <pt x="475" y="-37" on="0"/>
        <pt x="280" y="175" on="1"/>
        <pt x="85" y="386" on="0"/>
        <pt x="85" y="745" on="1"/>
        <pt x="85" y="1112" on="0"/>
        <pt x="275" y="1315" on="1"/>
        <pt x="464" y="1518" on="0"/>
        <pt x="815" y="1518" on="1"/>
        <pt x="1047" y="1518" on="0"/>
        <pt x="1282" y="1441" on="1"/>
        <pt x="1282" y="1172" on="1"/>
        <pt x="1171" y="1172" on="1"/>
        <pt x="1170" y="1192" on="1"/>
        <pt x="1168" y="1217" on="0"/>
        <pt x="1168" y="1242" on="1"/>
        <pt x="1168" y="1249" on="1"/>
        <pt x="1168" y="1333" on="0"/>
        <pt x="1094" y="1385" on="1"/>
        <pt x="1001" y="1450" on="0"/>
        <pt x="825" y="1450" on="1"/>
        <pt x="575" y="1450" on="0"/>
        <pt x="444" y="1263" on="1"/>
        <pt x="313" y="1077" on="0"/>
        <pt x="313" y="733" on="1"/>
        <pt x="313" y="386" on="0"/>
        <pt x="475" y="214" on="1"/>
        <pt x="633" y="47" on="0"/>
        <pt x="864" y="47" on="1"/>
        <pt x="948" y="47" on="0"/>
        <pt x="1076" y="80" on="1"/>
        <pt x="1076" y="371" on="1"/>
        <pt x="1077" y="487" on="0"/>
        <pt x="1058" y="527" on="1"/>
        <pt x="1043" y="557" on="0"/>
        <pt x="977" y="562" on="1"/>
        <pt x="909" y="568" on="1"/>
        <pt x="891" y="569" on="1"/>
        <pt x="891" y="630" on="1"/>
        <pt x="1458" y="630" on="1"/>
        <pt x="1458" y="569" on="1"/>
        <pt x="1440" y="568" on="1"/>
        <pt x="1384" y="562" on="1"/>
        <pt x="1317" y="556" on="0"/>
        <pt x="1305" y="535" on="1"/>
        <pt x="1294" y="516" on="0"/>
        <pt x="1291" y="470" on="1"/>
        <pt x="1285" y="371" on="1"/>
      </contour>
      <contour>
        <pt x="488" y="1925" on="1"/>
        <pt x="553" y="1925" on="1"/>
        <pt x="580" y="1835" on="0"/>
        <pt x="640" y="1793" on="1"/>
        <pt x="708" y="1746" on="0"/>
        <pt x="821" y="1746" on="1"/>
        <pt x="947" y="1746" on="0"/>
        <pt x="1017" y="1805" on="1"/>
        <pt x="1066" y="1845" on="0"/>
        <pt x="1090" y="1925" on="1"/>
        <pt x="1154" y="1925" on="1"/>
        <pt x="1135" y="1790" on="0"/>
        <pt x="1063" y="1709" on="1"/>
        <pt x="969" y="1604" on="0"/>
        <pt x="821" y="1604" on="1"/>
        <pt x="667" y="1604" on="0"/>
        <pt x="572" y="1719" on="1"/>
        <pt x="507" y="1796" on="0"/>
      </contour>
    </TTGlyph>
    <TTGlyph name="Gcircumflex" xMin="85" yMin="-37" xMax="1458" yMax="1925">
      <contour>
        <pt x="1285" y="36" on="1"/>
        <pt x="994" y="-37" on="0"/>
        <pt x="805" y="-37" on="1"/>
        <pt x="475" y="-37" on="0"/>
        <pt x="280" y="175" on="1"/>
        <pt x="85" y="386" on="0"/>
        <pt x="85" y="745" on="1"/>
        <pt x="85" y="1112" on="0"/>
        <pt x="275" y="1315" on="1"/>
        <pt x="464" y="1518" on="0"/>
        <pt x="815" y="1518" on="1"/>
        <pt x="1047" y="1518" on="0"/>
        <pt x="1282" y="1441" on="1"/>
        <pt x="1282" y="1172" on="1"/>
        <pt x="1171" y="1172" on="1"/>
        <pt x="1170" y="1192" on="1"/>
        <pt x="1168" y="1217" on="0"/>
        <pt x="1168" y="1242" on="1"/>
        <pt x="1168" y="1249" on="1"/>
        <pt x="1168" y="1333" on="0"/>
        <pt x="1094" y="1385" on="1"/>
        <pt x="1001" y="1450" on="0"/>
        <pt x="825" y="1450" on="1"/>
        <pt x="575" y="1450" on="0"/>
        <pt x="444" y="1263" on="1"/>
        <pt x="313" y="1077" on="0"/>
        <pt x="313" y="733" on="1"/>
        <pt x="313" y="386" on="0"/>
        <pt x="475" y="214" on="1"/>
        <pt x="633" y="47" on="0"/>
        <pt x="864" y="47" on="1"/>
        <pt x="948" y="47" on="0"/>
        <pt x="1076" y="80" on="1"/>
        <pt x="1076" y="371" on="1"/>
        <pt x="1077" y="487" on="0"/>
        <pt x="1058" y="527" on="1"/>
        <pt x="1043" y="557" on="0"/>
        <pt x="977" y="562" on="1"/>
        <pt x="909" y="568" on="1"/>
        <pt x="891" y="569" on="1"/>
        <pt x="891" y="630" on="1"/>
        <pt x="1458" y="630" on="1"/>
        <pt x="1458" y="569" on="1"/>
        <pt x="1440" y="568" on="1"/>
        <pt x="1384" y="562" on="1"/>
        <pt x="1317" y="556" on="0"/>
        <pt x="1305" y="535" on="1"/>
        <pt x="1294" y="516" on="0"/>
        <pt x="1291" y="470" on="1"/>
        <pt x="1285" y="371" on="1"/>
      </contour>
      <contour>
        <pt x="469" y="1604" on="1"/>
        <pt x="710" y="1925" on="1"/>
        <pt x="932" y="1925" on="1"/>
        <pt x="1172" y="1604" on="1"/>
        <pt x="1086" y="1604" on="1"/>
        <pt x="821" y="1826" on="1"/>
        <pt x="555" y="1604" on="1"/>
      </contour>
    </TTGlyph>
    <TTGlyph name="Gcommaaccent" xMin="85" yMin="-432" xMax="1458" yMax="1518">
      <contour>
        <pt x="1285" y="36" on="1"/>
        <pt x="994" y="-37" on="0"/>
        <pt x="805" y="-37" on="1"/>
        <pt x="475" y="-37" on="0"/>
        <pt x="280" y="175" on="1"/>
        <pt x="85" y="386" on="0"/>
        <pt x="85" y="745" on="1"/>
        <pt x="85" y="1112" on="0"/>
        <pt x="275" y="1315" on="1"/>
        <pt x="464" y="1518" on="0"/>
        <pt x="815" y="1518" on="1"/>
        <pt x="1047" y="1518" on="0"/>
        <pt x="1282" y="1441" on="1"/>
        <pt x="1282" y="1172" on="1"/>
        <pt x="1171" y="1172" on="1"/>
        <pt x="1170" y="1192" on="1"/>
        <pt x="1168" y="1217" on="0"/>
        <pt x="1168" y="1242" on="1"/>
        <pt x="1168" y="1249" on="1"/>
        <pt x="1168" y="1333" on="0"/>
        <pt x="1094" y="1385" on="1"/>
        <pt x="1001" y="1450" on="0"/>
        <pt x="825" y="1450" on="1"/>
        <pt x="575" y="1450" on="0"/>
        <pt x="444" y="1263" on="1"/>
        <pt x="313" y="1077" on="0"/>
        <pt x="313" y="733" on="1"/>
        <pt x="313" y="386" on="0"/>
        <pt x="475" y="214" on="1"/>
        <pt x="633" y="47" on="0"/>
        <pt x="864" y="47" on="1"/>
        <pt x="948" y="47" on="0"/>
        <pt x="1076" y="80" on="1"/>
        <pt x="1076" y="371" on="1"/>
        <pt x="1077" y="486" on="0"/>
        <pt x="1058" y="527" on="1"/>
        <pt x="1042" y="557" on="0"/>
        <pt x="977" y="562" on="1"/>
        <pt x="909" y="568" on="1"/>
        <pt x="891" y="569" on="1"/>
        <pt x="891" y="630" on="1"/>
        <pt x="1458" y="630" on="1"/>
        <pt x="1458" y="569" on="1"/>
        <pt x="1440" y="568" on="1"/>
        <pt x="1384" y="562" on="1"/>
        <pt x="1317" y="556" on="0"/>
        <pt x="1305" y="535" on="1"/>
        <pt x="1294" y="516" on="0"/>
        <pt x="1291" y="470" on="1"/>
        <pt x="1285" y="371" on="1"/>
      </contour>
      <contour>
        <pt x="614" y="-421" on="1"/>
        <pt x="614" y="-349" on="1"/>
        <pt x="663" y="-359" on="0"/>
        <pt x="718" y="-359" on="1"/>
        <pt x="821" y="-359" on="0"/>
        <pt x="821" y="-279" on="1"/>
        <pt x="821" y="-190" on="0"/>
        <pt x="663" y="-175" on="1"/>
        <pt x="663" y="-111" on="1"/>
        <pt x="798" y="-114" on="0"/>
        <pt x="863" y="-143" on="1"/>
        <pt x="956" y="-185" on="0"/>
        <pt x="956" y="-280" on="1"/>
        <pt x="956" y="-432" on="0"/>
        <pt x="739" y="-432" on="1"/>
        <pt x="679" y="-432" on="0"/>
      </contour>
    </TTGlyph>
    <TTGlyph name="Gdotaccent" xMin="85" yMin="-37" xMax="1458" yMax="1801">
      <contour>
        <pt x="1285" y="36" on="1"/>
        <pt x="994" y="-37" on="0"/>
        <pt x="805" y="-37" on="1"/>
        <pt x="475" y="-37" on="0"/>
        <pt x="280" y="175" on="1"/>
        <pt x="85" y="386" on="0"/>
        <pt x="85" y="745" on="1"/>
        <pt x="85" y="1112" on="0"/>
        <pt x="275" y="1315" on="1"/>
        <pt x="464" y="1518" on="0"/>
        <pt x="815" y="1518" on="1"/>
        <pt x="1047" y="1518" on="0"/>
        <pt x="1282" y="1441" on="1"/>
        <pt x="1282" y="1172" on="1"/>
        <pt x="1171" y="1172" on="1"/>
        <pt x="1170" y="1192" on="1"/>
        <pt x="1168" y="1217" on="0"/>
        <pt x="1168" y="1242" on="1"/>
        <pt x="1168" y="1249" on="1"/>
        <pt x="1168" y="1333" on="0"/>
        <pt x="1094" y="1385" on="1"/>
        <pt x="1001" y="1450" on="0"/>
        <pt x="825" y="1450" on="1"/>
        <pt x="575" y="1450" on="0"/>
        <pt x="444" y="1263" on="1"/>
        <pt x="313" y="1077" on="0"/>
        <pt x="313" y="733" on="1"/>
        <pt x="313" y="386" on="0"/>
        <pt x="475" y="214" on="1"/>
        <pt x="633" y="47" on="0"/>
        <pt x="864" y="47" on="1"/>
        <pt x="948" y="47" on="0"/>
        <pt x="1076" y="80" on="1"/>
        <pt x="1076" y="371" on="1"/>
        <pt x="1077" y="487" on="0"/>
        <pt x="1058" y="527" on="1"/>
        <pt x="1043" y="557" on="0"/>
        <pt x="977" y="562" on="1"/>
        <pt x="909" y="568" on="1"/>
        <pt x="891" y="569" on="1"/>
        <pt x="891" y="630" on="1"/>
        <pt x="1458" y="630" on="1"/>
        <pt x="1458" y="569" on="1"/>
        <pt x="1440" y="568" on="1"/>
        <pt x="1384" y="562" on="1"/>
        <pt x="1317" y="556" on="0"/>
        <pt x="1305" y="535" on="1"/>
        <pt x="1294" y="516" on="0"/>
        <pt x="1291" y="470" on="1"/>
        <pt x="1285" y="371" on="1"/>
      </contour>
      <contour>
        <pt x="722" y="1604" on="1"/>
        <pt x="722" y="1801" on="1"/>
        <pt x="919" y="1801" on="1"/>
        <pt x="919" y="1604" on="1"/>
      </contour>
    </TTGlyph>
    <TTGlyph name="H" xMin="41" yMin="0" xMax="1438" yMax="1480">
      <contour>
        <pt x="436" y="812" on="1"/>
        <pt x="1043" y="812" on="1"/>
        <pt x="1043" y="1221" on="1"/>
        <pt x="1043" y="1280" on="0"/>
        <pt x="1036" y="1333" on="1"/>
        <pt x="1030" y="1372" on="0"/>
        <pt x="1022" y="1384" on="1"/>
        <pt x="1003" y="1409" on="0"/>
        <pt x="945" y="1413" on="1"/>
        <pt x="877" y="1417" on="1"/>
        <pt x="858" y="1419" on="1"/>
        <pt x="858" y="1480" on="1"/>
        <pt x="1438" y="1480" on="1"/>
        <pt x="1438" y="1419" on="1"/>
        <pt x="1420" y="1417" on="1"/>
        <pt x="1352" y="1413" on="1"/>
        <pt x="1277" y="1408" on="0"/>
        <pt x="1267" y="1366" on="1"/>
        <pt x="1252" y="1305" on="0"/>
        <pt x="1253" y="1221" on="1"/>
        <pt x="1253" y="259" on="1"/>
        <pt x="1253" y="203" on="0"/>
        <pt x="1261" y="147" on="1"/>
        <pt x="1268" y="96" on="0"/>
        <pt x="1293" y="82" on="1"/>
        <pt x="1314" y="71" on="0"/>
        <pt x="1352" y="68" on="1"/>
        <pt x="1420" y="63" on="1"/>
        <pt x="1438" y="62" on="1"/>
        <pt x="1438" y="0" on="1"/>
        <pt x="858" y="0" on="1"/>
        <pt x="858" y="62" on="1"/>
        <pt x="877" y="63" on="1"/>
        <pt x="945" y="68" on="1"/>
        <pt x="1020" y="74" on="0"/>
        <pt x="1030" y="115" on="1"/>
        <pt x="1043" y="177" on="0"/>
        <pt x="1043" y="259" on="1"/>
        <pt x="1043" y="726" on="1"/>
        <pt x="436" y="726" on="1"/>
        <pt x="436" y="259" on="1"/>
        <pt x="436" y="200" on="0"/>
        <pt x="443" y="147" on="1"/>
        <pt x="449" y="109" on="0"/>
        <pt x="457" y="97" on="1"/>
        <pt x="476" y="72" on="0"/>
        <pt x="534" y="68" on="1"/>
        <pt x="602" y="63" on="1"/>
        <pt x="621" y="62" on="1"/>
        <pt x="621" y="0" on="1"/>
        <pt x="41" y="0" on="1"/>
        <pt x="41" y="62" on="1"/>
        <pt x="60" y="63" on="1"/>
        <pt x="128" y="68" on="1"/>
        <pt x="192" y="73" on="0"/>
        <pt x="226" y="139" on="0"/>
        <pt x="226" y="259" on="1"/>
        <pt x="226" y="1221" on="1"/>
        <pt x="226" y="1280" on="0"/>
        <pt x="219" y="1333" on="1"/>
        <pt x="213" y="1372" on="0"/>
        <pt x="205" y="1384" on="1"/>
        <pt x="186" y="1409" on="0"/>
        <pt x="128" y="1413" on="1"/>
        <pt x="60" y="1417" on="1"/>
        <pt x="41" y="1419" on="1"/>
        <pt x="41" y="1480" on="1"/>
        <pt x="621" y="1480" on="1"/>
        <pt x="621" y="1419" on="1"/>
        <pt x="602" y="1417" on="1"/>
        <pt x="534" y="1413" on="1"/>
        <pt x="459" y="1408" on="0"/>
        <pt x="449" y="1366" on="1"/>
        <pt x="436" y="1302" on="0"/>
        <pt x="436" y="1221" on="1"/>
      </contour>
    </TTGlyph>
    <TTGlyph name="Hbar" xMin="41" yMin="0" xMax="1438" yMax="1480">
      <contour>
        <pt x="1043" y="726" on="1"/>
        <pt x="436" y="726" on="1"/>
        <pt x="436" y="259" on="1"/>
        <pt x="436" y="200" on="0"/>
        <pt x="443" y="147" on="1"/>
        <pt x="449" y="109" on="0"/>
        <pt x="457" y="97" on="1"/>
        <pt x="476" y="72" on="0"/>
        <pt x="534" y="68" on="1"/>
        <pt x="602" y="63" on="1"/>
        <pt x="621" y="62" on="1"/>
        <pt x="621" y="0" on="1"/>
        <pt x="41" y="0" on="1"/>
        <pt x="41" y="62" on="1"/>
        <pt x="60" y="63" on="1"/>
        <pt x="128" y="68" on="1"/>
        <pt x="192" y="73" on="0"/>
        <pt x="226" y="139" on="0"/>
        <pt x="226" y="259" on="1"/>
        <pt x="226" y="1086" on="1"/>
        <pt x="41" y="1086" on="1"/>
        <pt x="41" y="1160" on="1"/>
        <pt x="226" y="1160" on="1"/>
        <pt x="226" y="1221" on="1"/>
        <pt x="226" y="1280" on="0"/>
        <pt x="219" y="1333" on="1"/>
        <pt x="213" y="1372" on="0"/>
        <pt x="205" y="1384" on="1"/>
        <pt x="186" y="1409" on="0"/>
        <pt x="128" y="1413" on="1"/>
        <pt x="60" y="1417" on="1"/>
        <pt x="41" y="1419" on="1"/>
        <pt x="41" y="1480" on="1"/>
        <pt x="621" y="1480" on="1"/>
        <pt x="621" y="1419" on="1"/>
        <pt x="602" y="1417" on="1"/>
        <pt x="534" y="1413" on="1"/>
        <pt x="459" y="1408" on="0"/>
        <pt x="449" y="1366" on="1"/>
        <pt x="436" y="1302" on="0"/>
        <pt x="436" y="1221" on="1"/>
        <pt x="436" y="1160" on="1"/>
        <pt x="1043" y="1160" on="1"/>
        <pt x="1043" y="1221" on="1"/>
        <pt x="1043" y="1280" on="0"/>
        <pt x="1036" y="1333" on="1"/>
        <pt x="1030" y="1372" on="0"/>
        <pt x="1022" y="1384" on="1"/>
        <pt x="1003" y="1409" on="0"/>
        <pt x="945" y="1413" on="1"/>
        <pt x="877" y="1417" on="1"/>
        <pt x="858" y="1419" on="1"/>
        <pt x="858" y="1480" on="1"/>
        <pt x="1438" y="1480" on="1"/>
        <pt x="1438" y="1419" on="1"/>
        <pt x="1420" y="1417" on="1"/>
        <pt x="1352" y="1413" on="1"/>
        <pt x="1277" y="1408" on="0"/>
        <pt x="1267" y="1366" on="1"/>
        <pt x="1252" y="1305" on="0"/>
        <pt x="1253" y="1221" on="1"/>
        <pt x="1253" y="1160" on="1"/>
        <pt x="1438" y="1160" on="1"/>
        <pt x="1438" y="1086" on="1"/>
        <pt x="1253" y="1086" on="1"/>
        <pt x="1253" y="259" on="1"/>
        <pt x="1253" y="203" on="0"/>
        <pt x="1261" y="147" on="1"/>
        <pt x="1268" y="96" on="0"/>
        <pt x="1293" y="82" on="1"/>
        <pt x="1314" y="71" on="0"/>
        <pt x="1352" y="68" on="1"/>
        <pt x="1420" y="63" on="1"/>
        <pt x="1438" y="62" on="1"/>
        <pt x="1438" y="0" on="1"/>
        <pt x="858" y="0" on="1"/>
        <pt x="858" y="62" on="1"/>
        <pt x="877" y="63" on="1"/>
        <pt x="945" y="68" on="1"/>
        <pt x="1020" y="74" on="0"/>
        <pt x="1030" y="115" on="1"/>
        <pt x="1043" y="177" on="0"/>
        <pt x="1043" y="259" on="1"/>
      </contour>
      <contour>
        <pt x="436" y="812" on="1"/>
        <pt x="1043" y="812" on="1"/>
        <pt x="1043" y="1086" on="1"/>
        <pt x="436" y="1086" on="1"/>
      </contour>
    </TTGlyph>
    <TTGlyph name="Hcircumflex" xMin="41" yMin="0" xMax="1438" yMax="1925">
      <contour>
        <pt x="436" y="812" on="1"/>
        <pt x="1043" y="812" on="1"/>
        <pt x="1043" y="1221" on="1"/>
        <pt x="1043" y="1280" on="0"/>
        <pt x="1036" y="1333" on="1"/>
        <pt x="1030" y="1372" on="0"/>
        <pt x="1022" y="1384" on="1"/>
        <pt x="1003" y="1409" on="0"/>
        <pt x="945" y="1413" on="1"/>
        <pt x="877" y="1417" on="1"/>
        <pt x="858" y="1419" on="1"/>
        <pt x="858" y="1480" on="1"/>
        <pt x="1438" y="1480" on="1"/>
        <pt x="1438" y="1419" on="1"/>
        <pt x="1420" y="1417" on="1"/>
        <pt x="1352" y="1413" on="1"/>
        <pt x="1277" y="1408" on="0"/>
        <pt x="1267" y="1366" on="1"/>
        <pt x="1252" y="1305" on="0"/>
        <pt x="1253" y="1221" on="1"/>
        <pt x="1253" y="259" on="1"/>
        <pt x="1253" y="203" on="0"/>
        <pt x="1261" y="147" on="1"/>
        <pt x="1268" y="96" on="0"/>
        <pt x="1293" y="82" on="1"/>
        <pt x="1314" y="71" on="0"/>
        <pt x="1352" y="68" on="1"/>
        <pt x="1420" y="63" on="1"/>
        <pt x="1438" y="62" on="1"/>
        <pt x="1438" y="0" on="1"/>
        <pt x="858" y="0" on="1"/>
        <pt x="858" y="62" on="1"/>
        <pt x="877" y="63" on="1"/>
        <pt x="945" y="68" on="1"/>
        <pt x="1020" y="74" on="0"/>
        <pt x="1030" y="115" on="1"/>
        <pt x="1043" y="177" on="0"/>
        <pt x="1043" y="259" on="1"/>
        <pt x="1043" y="726" on="1"/>
        <pt x="436" y="726" on="1"/>
        <pt x="436" y="259" on="1"/>
        <pt x="436" y="200" on="0"/>
        <pt x="443" y="147" on="1"/>
        <pt x="449" y="109" on="0"/>
        <pt x="457" y="97" on="1"/>
        <pt x="476" y="72" on="0"/>
        <pt x="534" y="68" on="1"/>
        <pt x="602" y="63" on="1"/>
        <pt x="621" y="62" on="1"/>
        <pt x="621" y="0" on="1"/>
        <pt x="41" y="0" on="1"/>
        <pt x="41" y="62" on="1"/>
        <pt x="60" y="63" on="1"/>
        <pt x="128" y="68" on="1"/>
        <pt x="192" y="73" on="0"/>
        <pt x="226" y="139" on="0"/>
        <pt x="226" y="259" on="1"/>
        <pt x="226" y="1221" on="1"/>
        <pt x="226" y="1280" on="0"/>
        <pt x="219" y="1333" on="1"/>
        <pt x="213" y="1372" on="0"/>
        <pt x="205" y="1384" on="1"/>
        <pt x="186" y="1409" on="0"/>
        <pt x="128" y="1413" on="1"/>
        <pt x="60" y="1417" on="1"/>
        <pt x="41" y="1419" on="1"/>
        <pt x="41" y="1480" on="1"/>
        <pt x="621" y="1480" on="1"/>
        <pt x="621" y="1419" on="1"/>
        <pt x="602" y="1417" on="1"/>
        <pt x="534" y="1413" on="1"/>
        <pt x="459" y="1408" on="0"/>
        <pt x="449" y="1366" on="1"/>
        <pt x="436" y="1302" on="0"/>
        <pt x="436" y="1221" on="1"/>
      </contour>
      <contour>
        <pt x="388" y="1604" on="1"/>
        <pt x="629" y="1925" on="1"/>
        <pt x="851" y="1925" on="1"/>
        <pt x="1091" y="1604" on="1"/>
        <pt x="1005" y="1604" on="1"/>
        <pt x="740" y="1826" on="1"/>
        <pt x="474" y="1604" on="1"/>
      </contour>
    </TTGlyph>
    <TTGlyph name="I" xMin="51" yMin="0" xMax="631" yMax="1480">
      <contour>
        <pt x="236" y="259" on="1"/>
        <pt x="236" y="1221" on="1"/>
        <pt x="236" y="1280" on="0"/>
        <pt x="229" y="1333" on="1"/>
        <pt x="223" y="1372" on="0"/>
        <pt x="215" y="1384" on="1"/>
        <pt x="197" y="1410" on="0"/>
        <pt x="137" y="1413" on="1"/>
        <pt x="70" y="1417" on="1"/>
        <pt x="51" y="1419" on="1"/>
        <pt x="51" y="1480" on="1"/>
        <pt x="631" y="1480" on="1"/>
        <pt x="631" y="1419" on="1"/>
        <pt x="612" y="1417" on="1"/>
        <pt x="544" y="1413" on="1"/>
        <pt x="469" y="1408" on="0"/>
        <pt x="459" y="1366" on="1"/>
        <pt x="446" y="1302" on="0"/>
        <pt x="446" y="1221" on="1"/>
        <pt x="446" y="259" on="1"/>
        <pt x="446" y="200" on="0"/>
        <pt x="453" y="147" on="1"/>
        <pt x="459" y="109" on="0"/>
        <pt x="467" y="97" on="1"/>
        <pt x="486" y="72" on="0"/>
        <pt x="544" y="68" on="1"/>
        <pt x="612" y="63" on="1"/>
        <pt x="631" y="62" on="1"/>
        <pt x="631" y="0" on="1"/>
        <pt x="51" y="0" on="1"/>
        <pt x="51" y="62" on="1"/>
        <pt x="70" y="63" on="1"/>
        <pt x="137" y="68" on="1"/>
        <pt x="213" y="74" on="0"/>
        <pt x="223" y="115" on="1"/>
        <pt x="236" y="177" on="0"/>
      </contour>
    </TTGlyph>
    <TTGlyph name="IJ" xMin="51" yMin="-297" xMax="1420" yMax="1480">
      <component glyphName="I" x="0" y="0" flags="0x4"/>
      <component glyphName="J" x="654" y="0" flags="0x4"/>
    </TTGlyph>
    <TTGlyph name="Iacute" xMin="51" yMin="0" xMax="637" yMax="1925">
      <contour>
        <pt x="236" y="259" on="1"/>
        <pt x="236" y="1221" on="1"/>
        <pt x="236" y="1280" on="0"/>
        <pt x="229" y="1333" on="1"/>
        <pt x="223" y="1372" on="0"/>
        <pt x="215" y="1384" on="1"/>
        <pt x="197" y="1410" on="0"/>
        <pt x="137" y="1413" on="1"/>
        <pt x="70" y="1417" on="1"/>
        <pt x="51" y="1419" on="1"/>
        <pt x="51" y="1480" on="1"/>
        <pt x="631" y="1480" on="1"/>
        <pt x="631" y="1419" on="1"/>
        <pt x="612" y="1417" on="1"/>
        <pt x="544" y="1413" on="1"/>
        <pt x="469" y="1408" on="0"/>
        <pt x="459" y="1366" on="1"/>
        <pt x="446" y="1302" on="0"/>
        <pt x="446" y="1221" on="1"/>
        <pt x="446" y="259" on="1"/>
        <pt x="446" y="200" on="0"/>
        <pt x="453" y="147" on="1"/>
        <pt x="459" y="109" on="0"/>
        <pt x="467" y="97" on="1"/>
        <pt x="486" y="72" on="0"/>
        <pt x="544" y="68" on="1"/>
        <pt x="612" y="63" on="1"/>
        <pt x="631" y="62" on="1"/>
        <pt x="631" y="0" on="1"/>
        <pt x="51" y="0" on="1"/>
        <pt x="51" y="62" on="1"/>
        <pt x="70" y="63" on="1"/>
        <pt x="137" y="68" on="1"/>
        <pt x="213" y="74" on="0"/>
        <pt x="223" y="115" on="1"/>
        <pt x="236" y="177" on="0"/>
      </contour>
      <contour>
        <pt x="137" y="1604" on="1"/>
        <pt x="378" y="1925" on="1"/>
        <pt x="637" y="1925" on="1"/>
        <pt x="230" y="1604" on="1"/>
      </contour>
    </TTGlyph>
    <TTGlyph name="Ibreve" xMin="8" yMin="0" xMax="674" yMax="1925">
      <contour>
        <pt x="236" y="259" on="1"/>
        <pt x="236" y="1221" on="1"/>
        <pt x="236" y="1280" on="0"/>
        <pt x="229" y="1333" on="1"/>
        <pt x="223" y="1372" on="0"/>
        <pt x="215" y="1384" on="1"/>
        <pt x="197" y="1410" on="0"/>
        <pt x="137" y="1413" on="1"/>
        <pt x="70" y="1417" on="1"/>
        <pt x="51" y="1419" on="1"/>
        <pt x="51" y="1480" on="1"/>
        <pt x="631" y="1480" on="1"/>
        <pt x="631" y="1419" on="1"/>
        <pt x="612" y="1417" on="1"/>
        <pt x="544" y="1413" on="1"/>
        <pt x="469" y="1408" on="0"/>
        <pt x="459" y="1366" on="1"/>
        <pt x="446" y="1302" on="0"/>
        <pt x="446" y="1221" on="1"/>
        <pt x="446" y="259" on="1"/>
        <pt x="446" y="200" on="0"/>
        <pt x="453" y="147" on="1"/>
        <pt x="459" y="109" on="0"/>
        <pt x="467" y="97" on="1"/>
        <pt x="486" y="72" on="0"/>
        <pt x="544" y="68" on="1"/>
        <pt x="612" y="63" on="1"/>
        <pt x="631" y="62" on="1"/>
        <pt x="631" y="0" on="1"/>
        <pt x="51" y="0" on="1"/>
        <pt x="51" y="62" on="1"/>
        <pt x="70" y="63" on="1"/>
        <pt x="137" y="68" on="1"/>
        <pt x="213" y="74" on="0"/>
        <pt x="223" y="115" on="1"/>
        <pt x="236" y="177" on="0"/>
      </contour>
      <contour>
        <pt x="8" y="1925" on="1"/>
        <pt x="73" y="1925" on="1"/>
        <pt x="100" y="1835" on="0"/>
        <pt x="160" y="1793" on="1"/>
        <pt x="228" y="1746" on="0"/>
        <pt x="341" y="1746" on="1"/>
        <pt x="467" y="1746" on="0"/>
        <pt x="537" y="1805" on="1"/>
        <pt x="586" y="1845" on="0"/>
        <pt x="610" y="1925" on="1"/>
        <pt x="674" y="1925" on="1"/>
        <pt x="655" y="1790" on="0"/>
        <pt x="583" y="1709" on="1"/>
        <pt x="489" y="1604" on="0"/>
        <pt x="341" y="1604" on="1"/>
        <pt x="187" y="1604" on="0"/>
        <pt x="92" y="1719" on="1"/>
        <pt x="27" y="1797" on="0"/>
      </contour>
    </TTGlyph>
    <TTGlyph name="Icircumflex" xMin="-11" yMin="0" xMax="692" yMax="1925">
      <contour>
        <pt x="236" y="259" on="1"/>
        <pt x="236" y="1221" on="1"/>
        <pt x="236" y="1280" on="0"/>
        <pt x="229" y="1333" on="1"/>
        <pt x="223" y="1372" on="0"/>
        <pt x="215" y="1384" on="1"/>
        <pt x="197" y="1410" on="0"/>
        <pt x="137" y="1413" on="1"/>
        <pt x="70" y="1417" on="1"/>
        <pt x="51" y="1419" on="1"/>
        <pt x="51" y="1480" on="1"/>
        <pt x="631" y="1480" on="1"/>
        <pt x="631" y="1419" on="1"/>
        <pt x="612" y="1417" on="1"/>
        <pt x="544" y="1413" on="1"/>
        <pt x="469" y="1408" on="0"/>
        <pt x="459" y="1366" on="1"/>
        <pt x="446" y="1302" on="0"/>
        <pt x="446" y="1221" on="1"/>
        <pt x="446" y="259" on="1"/>
        <pt x="446" y="200" on="0"/>
        <pt x="453" y="147" on="1"/>
        <pt x="459" y="109" on="0"/>
        <pt x="467" y="97" on="1"/>
        <pt x="486" y="72" on="0"/>
        <pt x="544" y="68" on="1"/>
        <pt x="612" y="63" on="1"/>
        <pt x="631" y="62" on="1"/>
        <pt x="631" y="0" on="1"/>
        <pt x="51" y="0" on="1"/>
        <pt x="51" y="62" on="1"/>
        <pt x="70" y="63" on="1"/>
        <pt x="137" y="68" on="1"/>
        <pt x="213" y="74" on="0"/>
        <pt x="223" y="115" on="1"/>
        <pt x="236" y="177" on="0"/>
      </contour>
      <contour>
        <pt x="-11" y="1604" on="1"/>
        <pt x="230" y="1925" on="1"/>
        <pt x="452" y="1925" on="1"/>
        <pt x="692" y="1604" on="1"/>
        <pt x="606" y="1604" on="1"/>
        <pt x="341" y="1826" on="1"/>
        <pt x="75" y="1604" on="1"/>
      </contour>
    </TTGlyph>
    <TTGlyph name="Idieresis" xMin="51" yMin="0" xMax="631" yMax="1777">
      <contour>
        <pt x="236" y="259" on="1"/>
        <pt x="236" y="1221" on="1"/>
        <pt x="236" y="1280" on="0"/>
        <pt x="229" y="1333" on="1"/>
        <pt x="223" y="1372" on="0"/>
        <pt x="215" y="1384" on="1"/>
        <pt x="197" y="1410" on="0"/>
        <pt x="137" y="1413" on="1"/>
        <pt x="70" y="1417" on="1"/>
        <pt x="51" y="1419" on="1"/>
        <pt x="51" y="1480" on="1"/>
        <pt x="631" y="1480" on="1"/>
        <pt x="631" y="1419" on="1"/>
        <pt x="612" y="1417" on="1"/>
        <pt x="544" y="1413" on="1"/>
        <pt x="469" y="1408" on="0"/>
        <pt x="459" y="1366" on="1"/>
        <pt x="446" y="1302" on="0"/>
        <pt x="446" y="1221" on="1"/>
        <pt x="446" y="259" on="1"/>
        <pt x="446" y="200" on="0"/>
        <pt x="453" y="147" on="1"/>
        <pt x="459" y="109" on="0"/>
        <pt x="467" y="97" on="1"/>
        <pt x="486" y="72" on="0"/>
        <pt x="544" y="68" on="1"/>
        <pt x="612" y="63" on="1"/>
        <pt x="631" y="62" on="1"/>
        <pt x="631" y="0" on="1"/>
        <pt x="51" y="0" on="1"/>
        <pt x="51" y="62" on="1"/>
        <pt x="70" y="63" on="1"/>
        <pt x="137" y="68" on="1"/>
        <pt x="213" y="74" on="0"/>
        <pt x="223" y="115" on="1"/>
        <pt x="236" y="177" on="0"/>
      </contour>
      <contour>
        <pt x="57" y="1604" on="1"/>
        <pt x="57" y="1777" on="1"/>
        <pt x="230" y="1777" on="1"/>
        <pt x="230" y="1604" on="1"/>
      </contour>
      <contour>
        <pt x="452" y="1604" on="1"/>
        <pt x="452" y="1777" on="1"/>
        <pt x="625" y="1777" on="1"/>
        <pt x="625" y="1604" on="1"/>
      </contour>
    </TTGlyph>
    <TTGlyph name="Idotaccent" xMin="51" yMin="0" xMax="631" yMax="1801">
      <contour>
        <pt x="236" y="259" on="1"/>
        <pt x="236" y="1221" on="1"/>
        <pt x="236" y="1280" on="0"/>
        <pt x="229" y="1333" on="1"/>
        <pt x="223" y="1372" on="0"/>
        <pt x="215" y="1384" on="1"/>
        <pt x="197" y="1410" on="0"/>
        <pt x="137" y="1413" on="1"/>
        <pt x="70" y="1417" on="1"/>
        <pt x="51" y="1419" on="1"/>
        <pt x="51" y="1480" on="1"/>
        <pt x="631" y="1480" on="1"/>
        <pt x="631" y="1419" on="1"/>
        <pt x="612" y="1417" on="1"/>
        <pt x="544" y="1413" on="1"/>
        <pt x="469" y="1408" on="0"/>
        <pt x="459" y="1366" on="1"/>
        <pt x="446" y="1302" on="0"/>
        <pt x="446" y="1221" on="1"/>
        <pt x="446" y="259" on="1"/>
        <pt x="446" y="200" on="0"/>
        <pt x="453" y="147" on="1"/>
        <pt x="459" y="109" on="0"/>
        <pt x="467" y="97" on="1"/>
        <pt x="486" y="72" on="0"/>
        <pt x="544" y="68" on="1"/>
        <pt x="612" y="63" on="1"/>
        <pt x="631" y="62" on="1"/>
        <pt x="631" y="0" on="1"/>
        <pt x="51" y="0" on="1"/>
        <pt x="51" y="62" on="1"/>
        <pt x="70" y="63" on="1"/>
        <pt x="137" y="68" on="1"/>
        <pt x="213" y="74" on="0"/>
        <pt x="223" y="115" on="1"/>
        <pt x="236" y="177" on="0"/>
      </contour>
      <contour>
        <pt x="242" y="1604" on="1"/>
        <pt x="242" y="1801" on="1"/>
        <pt x="439" y="1801" on="1"/>
        <pt x="439" y="1604" on="1"/>
      </contour>
    </TTGlyph>
    <TTGlyph name="Igrave" xMin="39" yMin="0" xMax="631" yMax="1925">
      <contour>
        <pt x="236" y="259" on="1"/>
        <pt x="236" y="1221" on="1"/>
        <pt x="236" y="1280" on="0"/>
        <pt x="229" y="1333" on="1"/>
        <pt x="223" y="1372" on="0"/>
        <pt x="215" y="1384" on="1"/>
        <pt x="197" y="1410" on="0"/>
        <pt x="137" y="1413" on="1"/>
        <pt x="70" y="1417" on="1"/>
        <pt x="51" y="1419" on="1"/>
        <pt x="51" y="1480" on="1"/>
        <pt x="631" y="1480" on="1"/>
        <pt x="631" y="1419" on="1"/>
        <pt x="612" y="1417" on="1"/>
        <pt x="544" y="1413" on="1"/>
        <pt x="469" y="1408" on="0"/>
        <pt x="459" y="1366" on="1"/>
        <pt x="446" y="1302" on="0"/>
        <pt x="446" y="1221" on="1"/>
        <pt x="446" y="259" on="1"/>
        <pt x="446" y="200" on="0"/>
        <pt x="453" y="147" on="1"/>
        <pt x="459" y="109" on="0"/>
        <pt x="467" y="97" on="1"/>
        <pt x="486" y="72" on="0"/>
        <pt x="544" y="68" on="1"/>
        <pt x="612" y="63" on="1"/>
        <pt x="631" y="62" on="1"/>
        <pt x="631" y="0" on="1"/>
        <pt x="51" y="0" on="1"/>
        <pt x="51" y="62" on="1"/>
        <pt x="70" y="63" on="1"/>
        <pt x="137" y="68" on="1"/>
        <pt x="213" y="74" on="0"/>
        <pt x="223" y="115" on="1"/>
        <pt x="236" y="177" on="0"/>
      </contour>
      <contour>
        <pt x="539" y="1604" on="1"/>
        <pt x="446" y="1604" on="1"/>
        <pt x="39" y="1925" on="1"/>
        <pt x="298" y="1925" on="1"/>
      </contour>
    </TTGlyph>
    <TTGlyph name="Imacron" xMin="20" yMin="0" xMax="662" yMax="1727">
      <contour>
        <pt x="236" y="259" on="1"/>
        <pt x="236" y="1221" on="1"/>
        <pt x="236" y="1280" on="0"/>
        <pt x="229" y="1333" on="1"/>
        <pt x="223" y="1372" on="0"/>
        <pt x="215" y="1384" on="1"/>
        <pt x="197" y="1410" on="0"/>
        <pt x="137" y="1413" on="1"/>
        <pt x="70" y="1417" on="1"/>
        <pt x="51" y="1419" on="1"/>
        <pt x="51" y="1480" on="1"/>
        <pt x="631" y="1480" on="1"/>
        <pt x="631" y="1419" on="1"/>
        <pt x="612" y="1417" on="1"/>
        <pt x="544" y="1413" on="1"/>
        <pt x="469" y="1408" on="0"/>
        <pt x="459" y="1366" on="1"/>
        <pt x="446" y="1302" on="0"/>
        <pt x="446" y="1221" on="1"/>
        <pt x="446" y="259" on="1"/>
        <pt x="446" y="200" on="0"/>
        <pt x="453" y="147" on="1"/>
        <pt x="459" y="109" on="0"/>
        <pt x="467" y="97" on="1"/>
        <pt x="486" y="72" on="0"/>
        <pt x="544" y="68" on="1"/>
        <pt x="612" y="63" on="1"/>
        <pt x="631" y="62" on="1"/>
        <pt x="631" y="0" on="1"/>
        <pt x="51" y="0" on="1"/>
        <pt x="51" y="62" on="1"/>
        <pt x="70" y="63" on="1"/>
        <pt x="137" y="68" on="1"/>
        <pt x="213" y="74" on="0"/>
        <pt x="223" y="115" on="1"/>
        <pt x="236" y="177" on="0"/>
      </contour>
      <contour>
        <pt x="20" y="1604" on="1"/>
        <pt x="20" y="1727" on="1"/>
        <pt x="662" y="1727" on="1"/>
        <pt x="662" y="1604" on="1"/>
      </contour>
    </TTGlyph>
    <TTGlyph name="Iogonek" xMin="51" yMin="-370" xMax="631" yMax="1480">
      <contour>
        <pt x="236" y="259" on="1"/>
        <pt x="236" y="1221" on="1"/>
        <pt x="236" y="1280" on="0"/>
        <pt x="229" y="1333" on="1"/>
        <pt x="223" y="1372" on="0"/>
        <pt x="215" y="1384" on="1"/>
        <pt x="197" y="1410" on="0"/>
        <pt x="137" y="1413" on="1"/>
        <pt x="70" y="1417" on="1"/>
        <pt x="51" y="1419" on="1"/>
        <pt x="51" y="1480" on="1"/>
        <pt x="631" y="1480" on="1"/>
        <pt x="631" y="1419" on="1"/>
        <pt x="612" y="1417" on="1"/>
        <pt x="544" y="1413" on="1"/>
        <pt x="469" y="1408" on="0"/>
        <pt x="459" y="1366" on="1"/>
        <pt x="446" y="1302" on="0"/>
        <pt x="446" y="1221" on="1"/>
        <pt x="446" y="259" on="1"/>
        <pt x="446" y="200" on="0"/>
        <pt x="453" y="147" on="1"/>
        <pt x="459" y="109" on="0"/>
        <pt x="467" y="97" on="1"/>
        <pt x="486" y="72" on="0"/>
        <pt x="544" y="68" on="1"/>
        <pt x="612" y="63" on="1"/>
        <pt x="631" y="62" on="1"/>
        <pt x="631" y="0" on="1"/>
        <pt x="51" y="0" on="1"/>
        <pt x="51" y="62" on="1"/>
        <pt x="70" y="63" on="1"/>
        <pt x="137" y="68" on="1"/>
        <pt x="213" y="74" on="0"/>
        <pt x="223" y="115" on="1"/>
        <pt x="236" y="177" on="0"/>
      </contour>
      <contour>
        <pt x="581" y="-273" on="1"/>
        <pt x="581" y="-341" on="1"/>
        <pt x="510" y="-370" on="0"/>
        <pt x="432" y="-370" on="1"/>
        <pt x="212" y="-370" on="0"/>
        <pt x="212" y="-211" on="1"/>
        <pt x="212" y="-89" on="0"/>
        <pt x="370" y="0" on="1"/>
        <pt x="477" y="0" on="1"/>
        <pt x="348" y="-80" on="0"/>
        <pt x="348" y="-182" on="1"/>
        <pt x="348" y="-289" on="0"/>
        <pt x="481" y="-289" on="1"/>
        <pt x="532" y="-289" on="0"/>
      </contour>
    </TTGlyph>
    <TTGlyph name="Itilde" xMin="8" yMin="0" xMax="674" yMax="1839">
      <contour>
        <pt x="236" y="259" on="1"/>
        <pt x="236" y="1221" on="1"/>
        <pt x="236" y="1280" on="0"/>
        <pt x="229" y="1333" on="1"/>
        <pt x="223" y="1372" on="0"/>
        <pt x="215" y="1384" on="1"/>
        <pt x="197" y="1410" on="0"/>
        <pt x="137" y="1413" on="1"/>
        <pt x="70" y="1417" on="1"/>
        <pt x="51" y="1419" on="1"/>
        <pt x="51" y="1480" on="1"/>
        <pt x="631" y="1480" on="1"/>
        <pt x="631" y="1419" on="1"/>
        <pt x="612" y="1417" on="1"/>
        <pt x="544" y="1413" on="1"/>
        <pt x="469" y="1408" on="0"/>
        <pt x="459" y="1366" on="1"/>
        <pt x="446" y="1302" on="0"/>
        <pt x="446" y="1221" on="1"/>
        <pt x="446" y="259" on="1"/>
        <pt x="446" y="200" on="0"/>
        <pt x="453" y="147" on="1"/>
        <pt x="459" y="109" on="0"/>
        <pt x="467" y="97" on="1"/>
        <pt x="486" y="72" on="0"/>
        <pt x="544" y="68" on="1"/>
        <pt x="612" y="63" on="1"/>
        <pt x="631" y="62" on="1"/>
        <pt x="631" y="0" on="1"/>
        <pt x="51" y="0" on="1"/>
        <pt x="51" y="62" on="1"/>
        <pt x="70" y="63" on="1"/>
        <pt x="137" y="68" on="1"/>
        <pt x="213" y="74" on="0"/>
        <pt x="223" y="115" on="1"/>
        <pt x="236" y="177" on="0"/>
      </contour>
      <contour>
        <pt x="8" y="1604" on="1"/>
        <pt x="35" y="1744" on="0"/>
        <pt x="104" y="1797" on="1"/>
        <pt x="158" y="1839" on="0"/>
        <pt x="235" y="1839" on="1"/>
        <pt x="300" y="1839" on="0"/>
        <pt x="353" y="1801" on="1"/>
        <pt x="388" y="1776" on="1"/>
        <pt x="440" y="1739" on="0"/>
        <pt x="494" y="1739" on="1"/>
        <pt x="589" y="1739" on="0"/>
        <pt x="612" y="1838" on="1"/>
        <pt x="674" y="1838" on="1"/>
        <pt x="646" y="1699" on="0"/>
        <pt x="578" y="1646" on="1"/>
        <pt x="524" y="1604" on="0"/>
        <pt x="447" y="1604" on="1"/>
        <pt x="384" y="1604" on="0"/>
        <pt x="329" y="1642" on="1"/>
        <pt x="294" y="1666" on="1"/>
        <pt x="239" y="1704" on="0"/>
        <pt x="187" y="1704" on="1"/>
        <pt x="99" y="1704" on="0"/>
        <pt x="70" y="1604" on="1"/>
      </contour>
    </TTGlyph>
    <TTGlyph name="J" xMin="0" yMin="-297" xMax="766" yMax="1480">
      <contour>
        <pt x="0" y="-276" on="1"/>
        <pt x="0" y="-46" on="1"/>
        <pt x="117" y="-46" on="1"/>
        <pt x="119" y="-70" on="1"/>
        <pt x="127" y="-160" on="0"/>
        <pt x="147" y="-185" on="1"/>
        <pt x="171" y="-215" on="0"/>
        <pt x="234" y="-215" on="1"/>
        <pt x="333" y="-215" on="0"/>
        <pt x="353" y="-124" on="1"/>
        <pt x="371" y="-45" on="0"/>
        <pt x="371" y="148" on="1"/>
        <pt x="371" y="1221" on="1"/>
        <pt x="372" y="1340" on="0"/>
        <pt x="354" y="1377" on="1"/>
        <pt x="339" y="1409" on="0"/>
        <pt x="273" y="1413" on="1"/>
        <pt x="205" y="1417" on="1"/>
        <pt x="186" y="1419" on="1"/>
        <pt x="186" y="1480" on="1"/>
        <pt x="766" y="1480" on="1"/>
        <pt x="766" y="1419" on="1"/>
        <pt x="747" y="1417" on="1"/>
        <pt x="680" y="1413" on="1"/>
        <pt x="612" y="1408" on="0"/>
        <pt x="601" y="1386" on="1"/>
        <pt x="590" y="1366" on="0"/>
        <pt x="587" y="1320" on="1"/>
        <pt x="581" y="1221" on="1"/>
        <pt x="581" y="270" on="1"/>
        <pt x="581" y="-35" on="0"/>
        <pt x="482" y="-156" on="1"/>
        <pt x="366" y="-297" on="0"/>
        <pt x="159" y="-297" on="1"/>
        <pt x="97" y="-297" on="0"/>
      </contour>
    </TTGlyph>
    <TTGlyph name="Jcircumflex" xMin="0" yMin="-297" xMax="827" yMax="1925">
      <contour>
        <pt x="0" y="-276" on="1"/>
        <pt x="0" y="-46" on="1"/>
        <pt x="117" y="-46" on="1"/>
        <pt x="119" y="-70" on="1"/>
        <pt x="127" y="-160" on="0"/>
        <pt x="147" y="-185" on="1"/>
        <pt x="171" y="-215" on="0"/>
        <pt x="234" y="-215" on="1"/>
        <pt x="333" y="-215" on="0"/>
        <pt x="353" y="-124" on="1"/>
        <pt x="371" y="-45" on="0"/>
        <pt x="371" y="148" on="1"/>
        <pt x="371" y="1221" on="1"/>
        <pt x="372" y="1340" on="0"/>
        <pt x="354" y="1377" on="1"/>
        <pt x="339" y="1409" on="0"/>
        <pt x="273" y="1413" on="1"/>
        <pt x="205" y="1417" on="1"/>
        <pt x="186" y="1419" on="1"/>
        <pt x="186" y="1480" on="1"/>
        <pt x="766" y="1480" on="1"/>
        <pt x="766" y="1419" on="1"/>
        <pt x="747" y="1417" on="1"/>
        <pt x="680" y="1413" on="1"/>
        <pt x="612" y="1408" on="0"/>
        <pt x="601" y="1386" on="1"/>
        <pt x="590" y="1366" on="0"/>
        <pt x="587" y="1320" on="1"/>
        <pt x="581" y="1221" on="1"/>
        <pt x="581" y="270" on="1"/>
        <pt x="581" y="-35" on="0"/>
        <pt x="482" y="-156" on="1"/>
        <pt x="366" y="-297" on="0"/>
        <pt x="159" y="-297" on="1"/>
        <pt x="97" y="-297" on="0"/>
      </contour>
      <contour>
        <pt x="124" y="1604" on="1"/>
        <pt x="365" y="1925" on="1"/>
        <pt x="587" y="1925" on="1"/>
        <pt x="827" y="1604" on="1"/>
        <pt x="741" y="1604" on="1"/>
        <pt x="476" y="1826" on="1"/>
        <pt x="210" y="1604" on="1"/>
      </contour>
    </TTGlyph>
    <TTGlyph name="K" xMin="56" yMin="0" xMax="1463" yMax="1480">
      <contour>
        <pt x="451" y="754" on="1"/>
        <pt x="899" y="1221" on="1"/>
        <pt x="950" y="1275" on="0"/>
        <pt x="983" y="1322" on="1"/>
        <pt x="1018" y="1371" on="0"/>
        <pt x="1036" y="1387" on="1"/>
        <pt x="1046" y="1397" on="0"/>
        <pt x="1046" y="1402" on="1"/>
        <pt x="1046" y="1416" on="0"/>
        <pt x="990" y="1417" on="1"/>
        <pt x="901" y="1419" on="1"/>
        <pt x="883" y="1419" on="1"/>
        <pt x="883" y="1480" on="1"/>
        <pt x="1339" y="1480" on="1"/>
        <pt x="1339" y="1419" on="1"/>
        <pt x="1322" y="1417" on="1"/>
        <pt x="1261" y="1416" on="1"/>
        <pt x="1207" y="1416" on="0"/>
        <pt x="1160" y="1377" on="1"/>
        <pt x="1115" y="1341" on="0"/>
        <pt x="996" y="1220" on="1"/>
        <pt x="618" y="835" on="1"/>
        <pt x="1136" y="258" on="1"/>
        <pt x="1240" y="150" on="1"/>
        <pt x="1303" y="84" on="0"/>
        <pt x="1334" y="76" on="1"/>
        <pt x="1365" y="67" on="0"/>
        <pt x="1442" y="63" on="1"/>
        <pt x="1463" y="62" on="1"/>
        <pt x="1463" y="0" on="1"/>
        <pt x="858" y="0" on="1"/>
        <pt x="858" y="62" on="1"/>
        <pt x="876" y="62" on="1"/>
        <pt x="1000" y="62" on="0"/>
        <pt x="1000" y="86" on="1"/>
        <pt x="1000" y="120" on="0"/>
        <pt x="876" y="262" on="1"/>
        <pt x="451" y="748" on="1"/>
        <pt x="451" y="259" on="1"/>
        <pt x="456" y="160" on="1"/>
        <pt x="458" y="90" on="0"/>
        <pt x="484" y="79" on="1"/>
        <pt x="510" y="69" on="0"/>
        <pt x="593" y="63" on="1"/>
        <pt x="611" y="62" on="1"/>
        <pt x="611" y="0" on="1"/>
        <pt x="56" y="0" on="1"/>
        <pt x="56" y="62" on="1"/>
        <pt x="75" y="63" on="1"/>
        <pt x="142" y="68" on="1"/>
        <pt x="218" y="74" on="0"/>
        <pt x="228" y="115" on="1"/>
        <pt x="241" y="177" on="0"/>
        <pt x="241" y="259" on="1"/>
        <pt x="241" y="1221" on="1"/>
        <pt x="241" y="1280" on="0"/>
        <pt x="234" y="1333" on="1"/>
        <pt x="228" y="1372" on="0"/>
        <pt x="220" y="1384" on="1"/>
        <pt x="202" y="1410" on="0"/>
        <pt x="142" y="1413" on="1"/>
        <pt x="75" y="1417" on="1"/>
        <pt x="56" y="1419" on="1"/>
        <pt x="56" y="1480" on="1"/>
        <pt x="636" y="1480" on="1"/>
        <pt x="636" y="1419" on="1"/>
        <pt x="617" y="1417" on="1"/>
        <pt x="549" y="1413" on="1"/>
        <pt x="474" y="1408" on="0"/>
        <pt x="464" y="1366" on="1"/>
        <pt x="451" y="1302" on="0"/>
        <pt x="451" y="1221" on="1"/>
      </contour>
    </TTGlyph>
    <TTGlyph name="Kcommaaccent" xMin="56" yMin="-432" xMax="1463" yMax="1480">
      <contour>
        <pt x="451" y="754" on="1"/>
        <pt x="899" y="1221" on="1"/>
        <pt x="950" y="1274" on="0"/>
        <pt x="983" y="1322" on="1"/>
        <pt x="1018" y="1371" on="0"/>
        <pt x="1036" y="1387" on="1"/>
        <pt x="1046" y="1397" on="0"/>
        <pt x="1046" y="1402" on="1"/>
        <pt x="1046" y="1416" on="0"/>
        <pt x="990" y="1417" on="1"/>
        <pt x="901" y="1419" on="1"/>
        <pt x="883" y="1419" on="1"/>
        <pt x="883" y="1480" on="1"/>
        <pt x="1339" y="1480" on="1"/>
        <pt x="1339" y="1419" on="1"/>
        <pt x="1322" y="1417" on="1"/>
        <pt x="1261" y="1416" on="1"/>
        <pt x="1207" y="1416" on="0"/>
        <pt x="1160" y="1377" on="1"/>
        <pt x="1115" y="1341" on="0"/>
        <pt x="996" y="1220" on="1"/>
        <pt x="618" y="835" on="1"/>
        <pt x="1136" y="258" on="1"/>
        <pt x="1240" y="150" on="1"/>
        <pt x="1303" y="84" on="0"/>
        <pt x="1334" y="76" on="1"/>
        <pt x="1365" y="67" on="0"/>
        <pt x="1442" y="63" on="1"/>
        <pt x="1463" y="62" on="1"/>
        <pt x="1463" y="0" on="1"/>
        <pt x="858" y="0" on="1"/>
        <pt x="858" y="62" on="1"/>
        <pt x="876" y="62" on="1"/>
        <pt x="1000" y="62" on="0"/>
        <pt x="1000" y="86" on="1"/>
        <pt x="1000" y="120" on="0"/>
        <pt x="876" y="262" on="1"/>
        <pt x="451" y="748" on="1"/>
        <pt x="451" y="259" on="1"/>
        <pt x="456" y="160" on="1"/>
        <pt x="458" y="90" on="0"/>
        <pt x="484" y="79" on="1"/>
        <pt x="510" y="69" on="0"/>
        <pt x="593" y="63" on="1"/>
        <pt x="611" y="62" on="1"/>
        <pt x="611" y="0" on="1"/>
        <pt x="56" y="0" on="1"/>
        <pt x="56" y="62" on="1"/>
        <pt x="75" y="63" on="1"/>
        <pt x="142" y="68" on="1"/>
        <pt x="218" y="74" on="0"/>
        <pt x="228" y="115" on="1"/>
        <pt x="241" y="177" on="0"/>
        <pt x="241" y="259" on="1"/>
        <pt x="241" y="1221" on="1"/>
        <pt x="241" y="1280" on="0"/>
        <pt x="234" y="1333" on="1"/>
        <pt x="228" y="1372" on="0"/>
        <pt x="220" y="1384" on="1"/>
        <pt x="202" y="1410" on="0"/>
        <pt x="142" y="1413" on="1"/>
        <pt x="75" y="1417" on="1"/>
        <pt x="56" y="1419" on="1"/>
        <pt x="56" y="1480" on="1"/>
        <pt x="636" y="1480" on="1"/>
        <pt x="636" y="1419" on="1"/>
        <pt x="617" y="1417" on="1"/>
        <pt x="549" y="1413" on="1"/>
        <pt x="474" y="1408" on="0"/>
        <pt x="464" y="1366" on="1"/>
        <pt x="451" y="1302" on="0"/>
        <pt x="451" y="1221" on="1"/>
      </contour>
      <contour>
        <pt x="562" y="-421" on="1"/>
        <pt x="562" y="-349" on="1"/>
        <pt x="611" y="-359" on="0"/>
        <pt x="666" y="-359" on="1"/>
        <pt x="769" y="-359" on="0"/>
        <pt x="769" y="-279" on="1"/>
        <pt x="769" y="-190" on="0"/>
        <pt x="611" y="-175" on="1"/>
        <pt x="611" y="-111" on="1"/>
        <pt x="745" y="-114" on="0"/>
        <pt x="811" y="-143" on="1"/>
        <pt x="904" y="-185" on="0"/>
        <pt x="904" y="-280" on="1"/>
        <pt x="904" y="-432" on="0"/>
        <pt x="687" y="-432" on="1"/>
        <pt x="628" y="-432" on="0"/>
      </contour>
    </TTGlyph>
    <TTGlyph name="L" xMin="56" yMin="0" xMax="1203" yMax="1480">
      <contour>
        <pt x="1096" y="276" on="1"/>
        <pt x="1098" y="296" on="1"/>
        <pt x="1203" y="296" on="1"/>
        <pt x="1203" y="0" on="1"/>
        <pt x="56" y="0" on="1"/>
        <pt x="56" y="62" on="1"/>
        <pt x="75" y="63" on="1"/>
        <pt x="142" y="68" on="1"/>
        <pt x="218" y="74" on="0"/>
        <pt x="228" y="115" on="1"/>
        <pt x="241" y="177" on="0"/>
        <pt x="241" y="259" on="1"/>
        <pt x="241" y="1221" on="1"/>
        <pt x="241" y="1280" on="0"/>
        <pt x="234" y="1333" on="1"/>
        <pt x="228" y="1372" on="0"/>
        <pt x="220" y="1384" on="1"/>
        <pt x="202" y="1410" on="0"/>
        <pt x="142" y="1413" on="1"/>
        <pt x="75" y="1417" on="1"/>
        <pt x="56" y="1419" on="1"/>
        <pt x="56" y="1480" on="1"/>
        <pt x="636" y="1480" on="1"/>
        <pt x="636" y="1419" on="1"/>
        <pt x="617" y="1417" on="1"/>
        <pt x="549" y="1413" on="1"/>
        <pt x="474" y="1408" on="0"/>
        <pt x="464" y="1366" on="1"/>
        <pt x="451" y="1302" on="0"/>
        <pt x="451" y="1221" on="1"/>
        <pt x="451" y="259" on="1"/>
        <pt x="451" y="108" on="0"/>
        <pt x="478" y="101" on="1"/>
        <pt x="509" y="86" on="0"/>
        <pt x="623" y="86" on="1"/>
        <pt x="859" y="86" on="1"/>
        <pt x="1001" y="86" on="0"/>
        <pt x="1046" y="103" on="1"/>
        <pt x="1092" y="121" on="0"/>
        <pt x="1094" y="175" on="1"/>
      </contour>
    </TTGlyph>
    <TTGlyph name="Lacute" xMin="56" yMin="0" xMax="1203" yMax="1925">
      <contour>
        <pt x="1096" y="276" on="1"/>
        <pt x="1098" y="296" on="1"/>
        <pt x="1203" y="296" on="1"/>
        <pt x="1203" y="0" on="1"/>
        <pt x="56" y="0" on="1"/>
        <pt x="56" y="62" on="1"/>
        <pt x="75" y="63" on="1"/>
        <pt x="142" y="68" on="1"/>
        <pt x="218" y="74" on="0"/>
        <pt x="228" y="115" on="1"/>
        <pt x="241" y="177" on="0"/>
        <pt x="241" y="259" on="1"/>
        <pt x="241" y="1221" on="1"/>
        <pt x="241" y="1280" on="0"/>
        <pt x="234" y="1333" on="1"/>
        <pt x="228" y="1372" on="0"/>
        <pt x="220" y="1384" on="1"/>
        <pt x="202" y="1410" on="0"/>
        <pt x="142" y="1413" on="1"/>
        <pt x="75" y="1417" on="1"/>
        <pt x="56" y="1419" on="1"/>
        <pt x="56" y="1480" on="1"/>
        <pt x="636" y="1480" on="1"/>
        <pt x="636" y="1419" on="1"/>
        <pt x="617" y="1417" on="1"/>
        <pt x="549" y="1413" on="1"/>
        <pt x="474" y="1408" on="0"/>
        <pt x="464" y="1366" on="1"/>
        <pt x="451" y="1302" on="0"/>
        <pt x="451" y="1221" on="1"/>
        <pt x="451" y="259" on="1"/>
        <pt x="451" y="108" on="0"/>
        <pt x="478" y="101" on="1"/>
        <pt x="509" y="86" on="0"/>
        <pt x="623" y="86" on="1"/>
        <pt x="859" y="86" on="1"/>
        <pt x="1001" y="86" on="0"/>
        <pt x="1046" y="103" on="1"/>
        <pt x="1092" y="121" on="0"/>
        <pt x="1094" y="175" on="1"/>
      </contour>
      <contour>
        <pt x="309" y="1604" on="1"/>
        <pt x="550" y="1925" on="1"/>
        <pt x="809" y="1925" on="1"/>
        <pt x="402" y="1604" on="1"/>
      </contour>
    </TTGlyph>
    <TTGlyph name="Lcaron" xMin="56" yMin="0" xMax="1203" yMax="1480">
      <contour>
        <pt x="1096" y="276" on="1"/>
        <pt x="1098" y="296" on="1"/>
        <pt x="1203" y="296" on="1"/>
        <pt x="1203" y="0" on="1"/>
        <pt x="56" y="0" on="1"/>
        <pt x="56" y="62" on="1"/>
        <pt x="75" y="63" on="1"/>
        <pt x="142" y="68" on="1"/>
        <pt x="218" y="74" on="0"/>
        <pt x="228" y="115" on="1"/>
        <pt x="241" y="177" on="0"/>
        <pt x="241" y="259" on="1"/>
        <pt x="241" y="1221" on="1"/>
        <pt x="241" y="1280" on="0"/>
        <pt x="234" y="1333" on="1"/>
        <pt x="228" y="1372" on="0"/>
        <pt x="220" y="1384" on="1"/>
        <pt x="202" y="1410" on="0"/>
        <pt x="142" y="1413" on="1"/>
        <pt x="75" y="1417" on="1"/>
        <pt x="56" y="1419" on="1"/>
        <pt x="56" y="1480" on="1"/>
        <pt x="636" y="1480" on="1"/>
        <pt x="636" y="1419" on="1"/>
        <pt x="617" y="1417" on="1"/>
        <pt x="549" y="1413" on="1"/>
        <pt x="474" y="1408" on="0"/>
        <pt x="464" y="1366" on="1"/>
        <pt x="451" y="1302" on="0"/>
        <pt x="451" y="1221" on="1"/>
        <pt x="451" y="259" on="1"/>
        <pt x="451" y="108" on="0"/>
        <pt x="478" y="101" on="1"/>
        <pt x="509" y="86" on="0"/>
        <pt x="623" y="86" on="1"/>
        <pt x="859" y="86" on="1"/>
        <pt x="1001" y="86" on="0"/>
        <pt x="1046" y="103" on="1"/>
        <pt x="1092" y="121" on="0"/>
        <pt x="1094" y="175" on="1"/>
      </contour>
      <contour>
        <pt x="888" y="1283" on="1"/>
        <pt x="809" y="1283" on="1"/>
        <pt x="809" y="1480" on="1"/>
        <pt x="1006" y="1480" on="1"/>
        <pt x="1006" y="1309" on="1"/>
        <pt x="1006" y="1146" on="0"/>
        <pt x="944" y="1081" on="1"/>
        <pt x="897" y="1032" on="0"/>
        <pt x="809" y="1026" on="1"/>
        <pt x="809" y="1076" on="1"/>
        <pt x="888" y="1082" on="0"/>
        <pt x="888" y="1231" on="1"/>
      </contour>
    </TTGlyph>
    <TTGlyph name="Lcommaaccent" xMin="56" yMin="-432" xMax="1203" yMax="1480">
      <contour>
        <pt x="1096" y="276" on="1"/>
        <pt x="1098" y="296" on="1"/>
        <pt x="1203" y="296" on="1"/>
        <pt x="1203" y="0" on="1"/>
        <pt x="56" y="0" on="1"/>
        <pt x="56" y="62" on="1"/>
        <pt x="75" y="63" on="1"/>
        <pt x="142" y="68" on="1"/>
        <pt x="218" y="74" on="0"/>
        <pt x="228" y="115" on="1"/>
        <pt x="241" y="177" on="0"/>
        <pt x="241" y="259" on="1"/>
        <pt x="241" y="1221" on="1"/>
        <pt x="241" y="1280" on="0"/>
        <pt x="234" y="1333" on="1"/>
        <pt x="228" y="1372" on="0"/>
        <pt x="220" y="1384" on="1"/>
        <pt x="202" y="1410" on="0"/>
        <pt x="142" y="1413" on="1"/>
        <pt x="75" y="1417" on="1"/>
        <pt x="56" y="1419" on="1"/>
        <pt x="56" y="1480" on="1"/>
        <pt x="636" y="1480" on="1"/>
        <pt x="636" y="1419" on="1"/>
        <pt x="617" y="1417" on="1"/>
        <pt x="549" y="1413" on="1"/>
        <pt x="474" y="1408" on="0"/>
        <pt x="464" y="1366" on="1"/>
        <pt x="451" y="1302" on="0"/>
        <pt x="451" y="1221" on="1"/>
        <pt x="451" y="259" on="1"/>
        <pt x="451" y="108" on="0"/>
        <pt x="478" y="101" on="1"/>
        <pt x="509" y="86" on="0"/>
        <pt x="623" y="86" on="1"/>
        <pt x="859" y="86" on="1"/>
        <pt x="1001" y="86" on="0"/>
        <pt x="1046" y="103" on="1"/>
        <pt x="1092" y="121" on="0"/>
        <pt x="1094" y="175" on="1"/>
      </contour>
      <contour>
        <pt x="451" y="-421" on="1"/>
        <pt x="451" y="-349" on="1"/>
        <pt x="500" y="-359" on="0"/>
        <pt x="555" y="-359" on="1"/>
        <pt x="658" y="-359" on="0"/>
        <pt x="658" y="-279" on="1"/>
        <pt x="658" y="-190" on="0"/>
        <pt x="500" y="-175" on="1"/>
        <pt x="500" y="-111" on="1"/>
        <pt x="634" y="-114" on="0"/>
        <pt x="700" y="-143" on="1"/>
        <pt x="793" y="-185" on="0"/>
        <pt x="793" y="-280" on="1"/>
        <pt x="793" y="-432" on="0"/>
        <pt x="576" y="-432" on="1"/>
        <pt x="517" y="-432" on="0"/>
      </contour>
    </TTGlyph>
    <TTGlyph name="Ldot" xMin="56" yMin="0" xMax="1203" yMax="1480">
      <contour>
        <pt x="1096" y="276" on="1"/>
        <pt x="1098" y="296" on="1"/>
        <pt x="1203" y="296" on="1"/>
        <pt x="1203" y="0" on="1"/>
        <pt x="56" y="0" on="1"/>
        <pt x="56" y="62" on="1"/>
        <pt x="75" y="63" on="1"/>
        <pt x="142" y="68" on="1"/>
        <pt x="218" y="74" on="0"/>
        <pt x="228" y="115" on="1"/>
        <pt x="241" y="177" on="0"/>
        <pt x="241" y="259" on="1"/>
        <pt x="241" y="1221" on="1"/>
        <pt x="241" y="1280" on="0"/>
        <pt x="234" y="1333" on="1"/>
        <pt x="228" y="1372" on="0"/>
        <pt x="220" y="1384" on="1"/>
        <pt x="202" y="1410" on="0"/>
        <pt x="142" y="1413" on="1"/>
        <pt x="75" y="1417" on="1"/>
        <pt x="56" y="1419" on="1"/>
        <pt x="56" y="1480" on="1"/>
        <pt x="636" y="1480" on="1"/>
        <pt x="636" y="1419" on="1"/>
        <pt x="617" y="1417" on="1"/>
        <pt x="549" y="1413" on="1"/>
        <pt x="474" y="1408" on="0"/>
        <pt x="464" y="1366" on="1"/>
        <pt x="451" y="1302" on="0"/>
        <pt x="451" y="1221" on="1"/>
        <pt x="451" y="259" on="1"/>
        <pt x="451" y="108" on="0"/>
        <pt x="478" y="101" on="1"/>
        <pt x="509" y="86" on="0"/>
        <pt x="623" y="86" on="1"/>
        <pt x="859" y="86" on="1"/>
        <pt x="1001" y="86" on="0"/>
        <pt x="1046" y="103" on="1"/>
        <pt x="1092" y="121" on="0"/>
        <pt x="1094" y="175" on="1"/>
      </contour>
      <contour>
        <pt x="870" y="642" on="1"/>
        <pt x="870" y="839" on="1"/>
        <pt x="1067" y="839" on="1"/>
        <pt x="1067" y="642" on="1"/>
      </contour>
    </TTGlyph>
    <TTGlyph name="Lslash" xMin="56" yMin="0" xMax="1203" yMax="1480">
      <contour>
        <pt x="241" y="748" on="1"/>
        <pt x="56" y="641" on="1"/>
        <pt x="56" y="726" on="1"/>
        <pt x="241" y="833" on="1"/>
        <pt x="241" y="1221" on="1"/>
        <pt x="241" y="1280" on="0"/>
        <pt x="234" y="1333" on="1"/>
        <pt x="228" y="1372" on="0"/>
        <pt x="220" y="1384" on="1"/>
        <pt x="202" y="1410" on="0"/>
        <pt x="142" y="1413" on="1"/>
        <pt x="75" y="1417" on="1"/>
        <pt x="56" y="1419" on="1"/>
        <pt x="56" y="1480" on="1"/>
        <pt x="636" y="1480" on="1"/>
        <pt x="636" y="1419" on="1"/>
        <pt x="617" y="1417" on="1"/>
        <pt x="549" y="1413" on="1"/>
        <pt x="474" y="1408" on="0"/>
        <pt x="464" y="1366" on="1"/>
        <pt x="451" y="1302" on="0"/>
        <pt x="451" y="1221" on="1"/>
        <pt x="451" y="954" on="1"/>
        <pt x="722" y="1110" on="1"/>
        <pt x="722" y="1025" on="1"/>
        <pt x="451" y="869" on="1"/>
        <pt x="451" y="259" on="1"/>
        <pt x="451" y="108" on="0"/>
        <pt x="478" y="101" on="1"/>
        <pt x="509" y="86" on="0"/>
        <pt x="623" y="86" on="1"/>
        <pt x="859" y="86" on="1"/>
        <pt x="1001" y="86" on="0"/>
        <pt x="1046" y="103" on="1"/>
        <pt x="1092" y="121" on="0"/>
        <pt x="1094" y="175" on="1"/>
        <pt x="1096" y="276" on="1"/>
        <pt x="1098" y="296" on="1"/>
        <pt x="1203" y="296" on="1"/>
        <pt x="1203" y="0" on="1"/>
        <pt x="56" y="0" on="1"/>
        <pt x="56" y="62" on="1"/>
        <pt x="75" y="63" on="1"/>
        <pt x="142" y="68" on="1"/>
        <pt x="218" y="74" on="0"/>
        <pt x="228" y="115" on="1"/>
        <pt x="241" y="177" on="0"/>
        <pt x="241" y="259" on="1"/>
      </contour>
    </TTGlyph>
    <TTGlyph name="M" xMin="48" yMin="0" xMax="1773" yMax="1480">
      <contour>
        <pt x="461" y="1480" on="1"/>
        <pt x="934" y="389" on="1"/>
        <pt x="1400" y="1480" on="1"/>
        <pt x="1773" y="1480" on="1"/>
        <pt x="1773" y="1419" on="1"/>
        <pt x="1754" y="1417" on="1"/>
        <pt x="1686" y="1413" on="1"/>
        <pt x="1618" y="1408" on="0"/>
        <pt x="1607" y="1386" on="1"/>
        <pt x="1597" y="1366" on="0"/>
        <pt x="1594" y="1320" on="1"/>
        <pt x="1588" y="1221" on="1"/>
        <pt x="1588" y="259" on="1"/>
        <pt x="1594" y="160" on="1"/>
        <pt x="1598" y="93" on="0"/>
        <pt x="1620" y="82" on="1"/>
        <pt x="1639" y="71" on="0"/>
        <pt x="1686" y="68" on="1"/>
        <pt x="1754" y="63" on="1"/>
        <pt x="1773" y="62" on="1"/>
        <pt x="1773" y="0" on="1"/>
        <pt x="1209" y="0" on="1"/>
        <pt x="1209" y="62" on="1"/>
        <pt x="1227" y="63" on="1"/>
        <pt x="1294" y="68" on="1"/>
        <pt x="1361" y="73" on="0"/>
        <pt x="1372" y="95" on="1"/>
        <pt x="1383" y="114" on="0"/>
        <pt x="1386" y="160" on="1"/>
        <pt x="1392" y="259" on="1"/>
        <pt x="1392" y="1276" on="1"/>
        <pt x="901" y="118" on="1"/>
        <pt x="828" y="118" on="1"/>
        <pt x="343" y="1231" on="1"/>
        <pt x="343" y="259" on="1"/>
        <pt x="343" y="203" on="0"/>
        <pt x="351" y="147" on="1"/>
        <pt x="358" y="96" on="0"/>
        <pt x="383" y="82" on="1"/>
        <pt x="404" y="71" on="0"/>
        <pt x="442" y="68" on="1"/>
        <pt x="510" y="63" on="1"/>
        <pt x="528" y="62" on="1"/>
        <pt x="528" y="0" on="1"/>
        <pt x="48" y="0" on="1"/>
        <pt x="48" y="62" on="1"/>
        <pt x="67" y="63" on="1"/>
        <pt x="135" y="68" on="1"/>
        <pt x="199" y="73" on="0"/>
        <pt x="233" y="139" on="0"/>
        <pt x="233" y="259" on="1"/>
        <pt x="234" y="1221" on="1"/>
        <pt x="235" y="1335" on="0"/>
        <pt x="216" y="1377" on="1"/>
        <pt x="201" y="1409" on="0"/>
        <pt x="135" y="1413" on="1"/>
        <pt x="67" y="1417" on="1"/>
        <pt x="48" y="1419" on="1"/>
        <pt x="48" y="1480" on="1"/>
      </contour>
    </TTGlyph>
    <TTGlyph name="N" xMin="43" yMin="-20" xMax="1435" yMax="1480">
      <contour>
        <pt x="376" y="1480" on="1"/>
        <pt x="1159" y="331" on="1"/>
        <pt x="1159" y="1221" on="1"/>
        <pt x="1153" y="1320" on="1"/>
        <pt x="1149" y="1387" on="0"/>
        <pt x="1127" y="1399" on="1"/>
        <pt x="1107" y="1410" on="0"/>
        <pt x="1061" y="1413" on="1"/>
        <pt x="993" y="1417" on="1"/>
        <pt x="974" y="1419" on="1"/>
        <pt x="974" y="1480" on="1"/>
        <pt x="1435" y="1480" on="1"/>
        <pt x="1435" y="1419" on="1"/>
        <pt x="1417" y="1417" on="1"/>
        <pt x="1349" y="1413" on="1"/>
        <pt x="1281" y="1409" on="0"/>
        <pt x="1270" y="1386" on="1"/>
        <pt x="1259" y="1366" on="0"/>
        <pt x="1256" y="1320" on="1"/>
        <pt x="1250" y="1221" on="1"/>
        <pt x="1250" y="-20" on="1"/>
        <pt x="1180" y="-20" on="1"/>
        <pt x="322" y="1220" on="1"/>
        <pt x="322" y="259" on="1"/>
        <pt x="321" y="144" on="0"/>
        <pt x="340" y="104" on="1"/>
        <pt x="355" y="72" on="0"/>
        <pt x="421" y="68" on="1"/>
        <pt x="489" y="63" on="1"/>
        <pt x="508" y="62" on="1"/>
        <pt x="508" y="0" on="1"/>
        <pt x="43" y="0" on="1"/>
        <pt x="43" y="62" on="1"/>
        <pt x="62" y="63" on="1"/>
        <pt x="130" y="68" on="1"/>
        <pt x="194" y="73" on="0"/>
        <pt x="229" y="140" on="0"/>
        <pt x="229" y="259" on="1"/>
        <pt x="229" y="1221" on="1"/>
        <pt x="230" y="1336" on="0"/>
        <pt x="211" y="1377" on="1"/>
        <pt x="196" y="1409" on="0"/>
        <pt x="130" y="1413" on="1"/>
        <pt x="62" y="1417" on="1"/>
        <pt x="43" y="1419" on="1"/>
        <pt x="43" y="1480" on="1"/>
      </contour>
    </TTGlyph>
    <TTGlyph name="Nacute" xMin="43" yMin="-20" xMax="1435" yMax="1925">
      <contour>
        <pt x="376" y="1480" on="1"/>
        <pt x="1159" y="331" on="1"/>
        <pt x="1159" y="1221" on="1"/>
        <pt x="1153" y="1320" on="1"/>
        <pt x="1149" y="1387" on="0"/>
        <pt x="1127" y="1399" on="1"/>
        <pt x="1107" y="1410" on="0"/>
        <pt x="1061" y="1413" on="1"/>
        <pt x="993" y="1417" on="1"/>
        <pt x="974" y="1419" on="1"/>
        <pt x="974" y="1480" on="1"/>
        <pt x="1435" y="1480" on="1"/>
        <pt x="1435" y="1419" on="1"/>
        <pt x="1417" y="1417" on="1"/>
        <pt x="1349" y="1413" on="1"/>
        <pt x="1281" y="1409" on="0"/>
        <pt x="1270" y="1386" on="1"/>
        <pt x="1259" y="1366" on="0"/>
        <pt x="1256" y="1320" on="1"/>
        <pt x="1250" y="1221" on="1"/>
        <pt x="1250" y="-20" on="1"/>
        <pt x="1180" y="-20" on="1"/>
        <pt x="322" y="1220" on="1"/>
        <pt x="322" y="259" on="1"/>
        <pt x="321" y="144" on="0"/>
        <pt x="340" y="104" on="1"/>
        <pt x="355" y="72" on="0"/>
        <pt x="421" y="68" on="1"/>
        <pt x="489" y="63" on="1"/>
        <pt x="508" y="62" on="1"/>
        <pt x="508" y="0" on="1"/>
        <pt x="43" y="0" on="1"/>
        <pt x="43" y="62" on="1"/>
        <pt x="62" y="63" on="1"/>
        <pt x="130" y="68" on="1"/>
        <pt x="194" y="73" on="0"/>
        <pt x="229" y="140" on="0"/>
        <pt x="229" y="259" on="1"/>
        <pt x="229" y="1221" on="1"/>
        <pt x="230" y="1336" on="0"/>
        <pt x="211" y="1377" on="1"/>
        <pt x="196" y="1409" on="0"/>
        <pt x="130" y="1413" on="1"/>
        <pt x="62" y="1417" on="1"/>
        <pt x="43" y="1419" on="1"/>
        <pt x="43" y="1480" on="1"/>
      </contour>
      <contour>
        <pt x="646" y="1604" on="1"/>
        <pt x="887" y="1925" on="1"/>
        <pt x="1146" y="1925" on="1"/>
        <pt x="739" y="1604" on="1"/>
      </contour>
    </TTGlyph>
    <TTGlyph name="Ncaron" xMin="43" yMin="-20" xMax="1435" yMax="1925">
      <contour>
        <pt x="376" y="1480" on="1"/>
        <pt x="1159" y="331" on="1"/>
        <pt x="1159" y="1221" on="1"/>
        <pt x="1153" y="1320" on="1"/>
        <pt x="1149" y="1387" on="0"/>
        <pt x="1127" y="1399" on="1"/>
        <pt x="1107" y="1410" on="0"/>
        <pt x="1061" y="1413" on="1"/>
        <pt x="993" y="1417" on="1"/>
        <pt x="974" y="1419" on="1"/>
        <pt x="974" y="1480" on="1"/>
        <pt x="1435" y="1480" on="1"/>
        <pt x="1435" y="1419" on="1"/>
        <pt x="1417" y="1417" on="1"/>
        <pt x="1349" y="1413" on="1"/>
        <pt x="1281" y="1409" on="0"/>
        <pt x="1270" y="1386" on="1"/>
        <pt x="1259" y="1366" on="0"/>
        <pt x="1256" y="1320" on="1"/>
        <pt x="1250" y="1221" on="1"/>
        <pt x="1250" y="-20" on="1"/>
        <pt x="1180" y="-20" on="1"/>
        <pt x="322" y="1220" on="1"/>
        <pt x="322" y="259" on="1"/>
        <pt x="321" y="144" on="0"/>
        <pt x="340" y="104" on="1"/>
        <pt x="355" y="72" on="0"/>
        <pt x="421" y="68" on="1"/>
        <pt x="489" y="63" on="1"/>
        <pt x="508" y="62" on="1"/>
        <pt x="508" y="0" on="1"/>
        <pt x="43" y="0" on="1"/>
        <pt x="43" y="62" on="1"/>
        <pt x="62" y="63" on="1"/>
        <pt x="130" y="68" on="1"/>
        <pt x="194" y="73" on="0"/>
        <pt x="229" y="140" on="0"/>
        <pt x="229" y="259" on="1"/>
        <pt x="229" y="1221" on="1"/>
        <pt x="230" y="1336" on="0"/>
        <pt x="211" y="1377" on="1"/>
        <pt x="196" y="1409" on="0"/>
        <pt x="130" y="1413" on="1"/>
        <pt x="62" y="1417" on="1"/>
        <pt x="43" y="1419" on="1"/>
        <pt x="43" y="1480" on="1"/>
      </contour>
      <contour>
        <pt x="1073" y="1925" on="1"/>
        <pt x="833" y="1604" on="1"/>
        <pt x="611" y="1604" on="1"/>
        <pt x="370" y="1925" on="1"/>
        <pt x="456" y="1925" on="1"/>
        <pt x="722" y="1703" on="1"/>
        <pt x="987" y="1925" on="1"/>
      </contour>
    </TTGlyph>
    <TTGlyph name="Ncommaaccent" xMin="43" yMin="-432" xMax="1435" yMax="1480">
      <contour>
        <pt x="376" y="1480" on="1"/>
        <pt x="1159" y="331" on="1"/>
        <pt x="1159" y="1221" on="1"/>
        <pt x="1153" y="1320" on="1"/>
        <pt x="1150" y="1384" on="0"/>
        <pt x="1130" y="1397" on="1"/>
        <pt x="1112" y="1410" on="0"/>
        <pt x="1061" y="1413" on="1"/>
        <pt x="993" y="1417" on="1"/>
        <pt x="974" y="1419" on="1"/>
        <pt x="974" y="1480" on="1"/>
        <pt x="1435" y="1480" on="1"/>
        <pt x="1435" y="1419" on="1"/>
        <pt x="1417" y="1417" on="1"/>
        <pt x="1349" y="1413" on="1"/>
        <pt x="1281" y="1408" on="0"/>
        <pt x="1270" y="1386" on="1"/>
        <pt x="1259" y="1367" on="0"/>
        <pt x="1256" y="1320" on="1"/>
        <pt x="1250" y="1221" on="1"/>
        <pt x="1250" y="-20" on="1"/>
        <pt x="1180" y="-20" on="1"/>
        <pt x="322" y="1220" on="1"/>
        <pt x="322" y="259" on="1"/>
        <pt x="321" y="144" on="0"/>
        <pt x="340" y="104" on="1"/>
        <pt x="355" y="72" on="0"/>
        <pt x="421" y="68" on="1"/>
        <pt x="489" y="63" on="1"/>
        <pt x="508" y="62" on="1"/>
        <pt x="508" y="0" on="1"/>
        <pt x="43" y="0" on="1"/>
        <pt x="43" y="62" on="1"/>
        <pt x="62" y="63" on="1"/>
        <pt x="130" y="68" on="1"/>
        <pt x="194" y="73" on="0"/>
        <pt x="229" y="140" on="0"/>
        <pt x="229" y="259" on="1"/>
        <pt x="229" y="1221" on="1"/>
        <pt x="230" y="1335" on="0"/>
        <pt x="211" y="1377" on="1"/>
        <pt x="196" y="1409" on="0"/>
        <pt x="130" y="1413" on="1"/>
        <pt x="62" y="1417" on="1"/>
        <pt x="43" y="1419" on="1"/>
        <pt x="43" y="1480" on="1"/>
      </contour>
      <contour>
        <pt x="582" y="-421" on="1"/>
        <pt x="582" y="-349" on="1"/>
        <pt x="631" y="-359" on="0"/>
        <pt x="686" y="-359" on="1"/>
        <pt x="789" y="-359" on="0"/>
        <pt x="789" y="-279" on="1"/>
        <pt x="789" y="-190" on="0"/>
        <pt x="631" y="-175" on="1"/>
        <pt x="631" y="-111" on="1"/>
        <pt x="765" y="-114" on="0"/>
        <pt x="831" y="-143" on="1"/>
        <pt x="924" y="-185" on="0"/>
        <pt x="924" y="-280" on="1"/>
        <pt x="924" y="-432" on="0"/>
        <pt x="707" y="-432" on="1"/>
        <pt x="647" y="-432" on="0"/>
      </contour>
    </TTGlyph>
    <TTGlyph name="Ntilde" xMin="43" yMin="-20" xMax="1435" yMax="1839">
      <contour>
        <pt x="376" y="1480" on="1"/>
        <pt x="1159" y="331" on="1"/>
        <pt x="1159" y="1221" on="1"/>
        <pt x="1153" y="1320" on="1"/>
        <pt x="1149" y="1387" on="0"/>
        <pt x="1127" y="1399" on="1"/>
        <pt x="1107" y="1410" on="0"/>
        <pt x="1061" y="1413" on="1"/>
        <pt x="993" y="1417" on="1"/>
        <pt x="974" y="1419" on="1"/>
        <pt x="974" y="1480" on="1"/>
        <pt x="1435" y="1480" on="1"/>
        <pt x="1435" y="1419" on="1"/>
        <pt x="1417" y="1417" on="1"/>
        <pt x="1349" y="1413" on="1"/>
        <pt x="1281" y="1409" on="0"/>
        <pt x="1270" y="1386" on="1"/>
        <pt x="1259" y="1366" on="0"/>
        <pt x="1256" y="1320" on="1"/>
        <pt x="1250" y="1221" on="1"/>
        <pt x="1250" y="-20" on="1"/>
        <pt x="1180" y="-20" on="1"/>
        <pt x="322" y="1220" on="1"/>
        <pt x="322" y="259" on="1"/>
        <pt x="321" y="144" on="0"/>
        <pt x="340" y="104" on="1"/>
        <pt x="355" y="72" on="0"/>
        <pt x="421" y="68" on="1"/>
        <pt x="489" y="63" on="1"/>
        <pt x="508" y="62" on="1"/>
        <pt x="508" y="0" on="1"/>
        <pt x="43" y="0" on="1"/>
        <pt x="43" y="62" on="1"/>
        <pt x="62" y="63" on="1"/>
        <pt x="130" y="68" on="1"/>
        <pt x="194" y="73" on="0"/>
        <pt x="229" y="140" on="0"/>
        <pt x="229" y="259" on="1"/>
        <pt x="229" y="1221" on="1"/>
        <pt x="230" y="1336" on="0"/>
        <pt x="211" y="1377" on="1"/>
        <pt x="196" y="1409" on="0"/>
        <pt x="130" y="1413" on="1"/>
        <pt x="62" y="1417" on="1"/>
        <pt x="43" y="1419" on="1"/>
        <pt x="43" y="1480" on="1"/>
      </contour>
      <contour>
        <pt x="425" y="1604" on="1"/>
        <pt x="452" y="1744" on="0"/>
        <pt x="521" y="1797" on="1"/>
        <pt x="574" y="1839" on="0"/>
        <pt x="652" y="1839" on="1"/>
        <pt x="717" y="1839" on="0"/>
        <pt x="770" y="1801" on="1"/>
        <pt x="805" y="1776" on="1"/>
        <pt x="857" y="1739" on="0"/>
        <pt x="911" y="1739" on="1"/>
        <pt x="1007" y="1739" on="0"/>
        <pt x="1029" y="1838" on="1"/>
        <pt x="1091" y="1838" on="1"/>
        <pt x="1063" y="1699" on="0"/>
        <pt x="995" y="1646" on="1"/>
        <pt x="941" y="1604" on="0"/>
        <pt x="864" y="1604" on="1"/>
        <pt x="801" y="1604" on="0"/>
        <pt x="746" y="1642" on="1"/>
        <pt x="711" y="1666" on="1"/>
        <pt x="656" y="1704" on="0"/>
        <pt x="604" y="1704" on="1"/>
        <pt x="516" y="1704" on="0"/>
        <pt x="487" y="1604" on="1"/>
      </contour>
    </TTGlyph>
    <TTGlyph name="O" xMin="80" yMin="-37" xMax="1398" yMax="1517">
      <contour>
        <pt x="739" y="1517" on="1"/>
        <pt x="1044" y="1517" on="0"/>
        <pt x="1221" y="1309" on="1"/>
        <pt x="1398" y="1101" on="0"/>
        <pt x="1398" y="742" on="1"/>
        <pt x="1398" y="377" on="0"/>
        <pt x="1220" y="170" on="1"/>
        <pt x="1043" y="-37" on="0"/>
        <pt x="729" y="-37" on="1"/>
        <pt x="461" y="-37" on="0"/>
        <pt x="292" y="133" on="1"/>
        <pt x="80" y="347" on="0"/>
        <pt x="80" y="740" on="1"/>
        <pt x="80" y="1100" on="0"/>
        <pt x="257" y="1308" on="1"/>
        <pt x="435" y="1517" on="0"/>
      </contour>
      <contour>
        <pt x="739" y="1450" on="1"/>
        <pt x="538" y="1450" on="0"/>
        <pt x="423" y="1261" on="1"/>
        <pt x="308" y="1072" on="0"/>
        <pt x="308" y="741" on="1"/>
        <pt x="308" y="413" on="0"/>
        <pt x="422" y="222" on="1"/>
        <pt x="536" y="31" on="0"/>
        <pt x="734" y="31" on="1"/>
        <pt x="918" y="31" on="0"/>
        <pt x="1030" y="182" on="1"/>
        <pt x="1170" y="371" on="0"/>
        <pt x="1170" y="743" on="1"/>
        <pt x="1170" y="1074" on="0"/>
        <pt x="1055" y="1261" on="1"/>
        <pt x="939" y="1450" on="0"/>
      </contour>
    </TTGlyph>
    <TTGlyph name="OE" xMin="80" yMin="-37" xMax="1771" yMax="1517">
      <contour>
        <pt x="973" y="1408" on="1"/>
        <pt x="973" y="1480" on="1"/>
        <pt x="1715" y="1480" on="1"/>
        <pt x="1715" y="1221" on="1"/>
        <pt x="1604" y="1221" on="1"/>
        <pt x="1603" y="1240" on="1"/>
        <pt x="1601" y="1274" on="1"/>
        <pt x="1598" y="1311" on="0"/>
        <pt x="1598" y="1321" on="1"/>
        <pt x="1598" y="1324" on="1"/>
        <pt x="1598" y="1378" on="0"/>
        <pt x="1581" y="1389" on="1"/>
        <pt x="1566" y="1399" on="0"/>
        <pt x="1525" y="1399" on="1"/>
        <pt x="1422" y="1400" on="1"/>
        <pt x="1198" y="1400" on="1"/>
        <pt x="1198" y="808" on="1"/>
        <pt x="1382" y="809" on="1"/>
        <pt x="1445" y="811" on="1"/>
        <pt x="1495" y="812" on="0"/>
        <pt x="1504" y="825" on="1"/>
        <pt x="1512" y="836" on="0"/>
        <pt x="1514" y="867" on="1"/>
        <pt x="1514" y="869" on="1"/>
        <pt x="1514" y="871" on="1"/>
        <pt x="1515" y="881" on="1"/>
        <pt x="1515" y="885" on="0"/>
        <pt x="1516" y="895" on="1"/>
        <pt x="1517" y="911" on="0"/>
        <pt x="1517" y="913" on="1"/>
        <pt x="1518" y="931" on="1"/>
        <pt x="1610" y="931" on="1"/>
        <pt x="1610" y="605" on="1"/>
        <pt x="1518" y="605" on="1"/>
        <pt x="1517" y="623" on="1"/>
        <pt x="1511" y="711" on="0"/>
        <pt x="1486" y="717" on="1"/>
        <pt x="1461" y="728" on="0"/>
        <pt x="1382" y="728" on="1"/>
        <pt x="1198" y="728" on="1"/>
        <pt x="1198" y="259" on="1"/>
        <pt x="1198" y="122" on="0"/>
        <pt x="1238" y="105" on="1"/>
        <pt x="1274" y="86" on="0"/>
        <pt x="1369" y="86" on="1"/>
        <pt x="1466" y="86" on="1"/>
        <pt x="1567" y="92" on="1"/>
        <pt x="1650" y="97" on="0"/>
        <pt x="1655" y="162" on="1"/>
        <pt x="1658" y="234" on="1"/>
        <pt x="1660" y="253" on="1"/>
        <pt x="1771" y="253" on="1"/>
        <pt x="1771" y="0" on="1"/>
        <pt x="973" y="0" on="1"/>
        <pt x="973" y="73" on="1"/>
        <pt x="904" y="15" on="0"/>
        <pt x="856" y="-6" on="1"/>
        <pt x="828" y="-19" on="0"/>
        <pt x="786" y="-26" on="1"/>
        <pt x="721" y="-37" on="0"/>
        <pt x="681" y="-37" on="1"/>
        <pt x="629" y="-37" on="0"/>
        <pt x="524" y="-12" on="1"/>
        <pt x="379" y="23" on="0"/>
        <pt x="281" y="134" on="1"/>
        <pt x="80" y="363" on="0"/>
        <pt x="80" y="741" on="1"/>
        <pt x="80" y="1091" on="0"/>
        <pt x="246" y="1304" on="1"/>
        <pt x="411" y="1517" on="0"/>
        <pt x="678" y="1517" on="1"/>
        <pt x="842" y="1517" on="0"/>
      </contour>
      <contour>
        <pt x="973" y="610" on="1"/>
        <pt x="973" y="870" on="1"/>
        <pt x="973" y="1190" on="0"/>
        <pt x="910" y="1320" on="1"/>
        <pt x="848" y="1450" on="0"/>
        <pt x="694" y="1450" on="1"/>
        <pt x="516" y="1450" on="0"/>
        <pt x="410" y="1255" on="1"/>
        <pt x="303" y="1060" on="0"/>
        <pt x="303" y="740" on="1"/>
        <pt x="303" y="420" on="0"/>
        <pt x="410" y="226" on="1"/>
        <pt x="516" y="31" on="0"/>
        <pt x="694" y="31" on="1"/>
        <pt x="864" y="31" on="0"/>
        <pt x="924" y="194" on="1"/>
        <pt x="973" y="327" on="0"/>
      </contour>
    </TTGlyph>
    <TTGlyph name="Oacute" xMin="80" yMin="-37" xMax="1398" yMax="1925">
      <contour>
        <pt x="739" y="1517" on="1"/>
        <pt x="1044" y="1517" on="0"/>
        <pt x="1221" y="1309" on="1"/>
        <pt x="1398" y="1101" on="0"/>
        <pt x="1398" y="742" on="1"/>
        <pt x="1398" y="377" on="0"/>
        <pt x="1220" y="170" on="1"/>
        <pt x="1043" y="-37" on="0"/>
        <pt x="729" y="-37" on="1"/>
        <pt x="461" y="-37" on="0"/>
        <pt x="292" y="133" on="1"/>
        <pt x="80" y="347" on="0"/>
        <pt x="80" y="740" on="1"/>
        <pt x="80" y="1100" on="0"/>
        <pt x="257" y="1308" on="1"/>
        <pt x="435" y="1517" on="0"/>
      </contour>
      <contour>
        <pt x="739" y="1450" on="1"/>
        <pt x="538" y="1450" on="0"/>
        <pt x="423" y="1261" on="1"/>
        <pt x="308" y="1072" on="0"/>
        <pt x="308" y="741" on="1"/>
        <pt x="308" y="413" on="0"/>
        <pt x="422" y="222" on="1"/>
        <pt x="536" y="31" on="0"/>
        <pt x="734" y="31" on="1"/>
        <pt x="918" y="31" on="0"/>
        <pt x="1030" y="182" on="1"/>
        <pt x="1170" y="371" on="0"/>
        <pt x="1170" y="743" on="1"/>
        <pt x="1170" y="1074" on="0"/>
        <pt x="1055" y="1261" on="1"/>
        <pt x="939" y="1450" on="0"/>
      </contour>
      <contour>
        <pt x="585" y="1604" on="1"/>
        <pt x="826" y="1925" on="1"/>
        <pt x="1085" y="1925" on="1"/>
        <pt x="678" y="1604" on="1"/>
      </contour>
    </TTGlyph>
    <TTGlyph name="Obreve" xMin="80" yMin="-37" xMax="1398" yMax="1925">
      <contour>
        <pt x="739" y="1517" on="1"/>
        <pt x="1044" y="1517" on="0"/>
        <pt x="1221" y="1309" on="1"/>
        <pt x="1398" y="1101" on="0"/>
        <pt x="1398" y="742" on="1"/>
        <pt x="1398" y="377" on="0"/>
        <pt x="1220" y="170" on="1"/>
        <pt x="1043" y="-37" on="0"/>
        <pt x="729" y="-37" on="1"/>
        <pt x="461" y="-37" on="0"/>
        <pt x="292" y="133" on="1"/>
        <pt x="80" y="347" on="0"/>
        <pt x="80" y="740" on="1"/>
        <pt x="80" y="1100" on="0"/>
        <pt x="257" y="1308" on="1"/>
        <pt x="435" y="1517" on="0"/>
      </contour>
      <contour>
        <pt x="739" y="1450" on="1"/>
        <pt x="538" y="1450" on="0"/>
        <pt x="423" y="1261" on="1"/>
        <pt x="308" y="1072" on="0"/>
        <pt x="308" y="741" on="1"/>
        <pt x="308" y="413" on="0"/>
        <pt x="422" y="222" on="1"/>
        <pt x="536" y="31" on="0"/>
        <pt x="734" y="31" on="1"/>
        <pt x="918" y="31" on="0"/>
        <pt x="1030" y="182" on="1"/>
        <pt x="1170" y="371" on="0"/>
        <pt x="1170" y="743" on="1"/>
        <pt x="1170" y="1074" on="0"/>
        <pt x="1055" y="1261" on="1"/>
        <pt x="939" y="1450" on="0"/>
      </contour>
      <contour>
        <pt x="406" y="1925" on="1"/>
        <pt x="471" y="1925" on="1"/>
        <pt x="498" y="1835" on="0"/>
        <pt x="558" y="1793" on="1"/>
        <pt x="626" y="1746" on="0"/>
        <pt x="739" y="1746" on="1"/>
        <pt x="865" y="1746" on="0"/>
        <pt x="935" y="1805" on="1"/>
        <pt x="984" y="1845" on="0"/>
        <pt x="1008" y="1925" on="1"/>
        <pt x="1072" y="1925" on="1"/>
        <pt x="1053" y="1790" on="0"/>
        <pt x="981" y="1709" on="1"/>
        <pt x="887" y="1604" on="0"/>
        <pt x="739" y="1604" on="1"/>
        <pt x="585" y="1604" on="0"/>
        <pt x="490" y="1719" on="1"/>
        <pt x="425" y="1796" on="0"/>
      </contour>
    </TTGlyph>
    <TTGlyph name="Ocircumflex" xMin="80" yMin="-37" xMax="1398" yMax="1925">
      <contour>
        <pt x="739" y="1517" on="1"/>
        <pt x="1044" y="1517" on="0"/>
        <pt x="1221" y="1309" on="1"/>
        <pt x="1398" y="1101" on="0"/>
        <pt x="1398" y="742" on="1"/>
        <pt x="1398" y="377" on="0"/>
        <pt x="1220" y="170" on="1"/>
        <pt x="1043" y="-37" on="0"/>
        <pt x="729" y="-37" on="1"/>
        <pt x="461" y="-37" on="0"/>
        <pt x="292" y="133" on="1"/>
        <pt x="80" y="347" on="0"/>
        <pt x="80" y="740" on="1"/>
        <pt x="80" y="1100" on="0"/>
        <pt x="257" y="1308" on="1"/>
        <pt x="435" y="1517" on="0"/>
      </contour>
      <contour>
        <pt x="739" y="1450" on="1"/>
        <pt x="538" y="1450" on="0"/>
        <pt x="423" y="1261" on="1"/>
        <pt x="308" y="1072" on="0"/>
        <pt x="308" y="741" on="1"/>
        <pt x="308" y="413" on="0"/>
        <pt x="422" y="222" on="1"/>
        <pt x="536" y="31" on="0"/>
        <pt x="734" y="31" on="1"/>
        <pt x="918" y="31" on="0"/>
        <pt x="1030" y="182" on="1"/>
        <pt x="1170" y="371" on="0"/>
        <pt x="1170" y="743" on="1"/>
        <pt x="1170" y="1074" on="0"/>
        <pt x="1055" y="1261" on="1"/>
        <pt x="939" y="1450" on="0"/>
      </contour>
      <contour>
        <pt x="388" y="1604" on="1"/>
        <pt x="629" y="1925" on="1"/>
        <pt x="851" y="1925" on="1"/>
        <pt x="1091" y="1604" on="1"/>
        <pt x="1005" y="1604" on="1"/>
        <pt x="740" y="1826" on="1"/>
        <pt x="474" y="1604" on="1"/>
      </contour>
    </TTGlyph>
    <TTGlyph name="Odieresis" xMin="80" yMin="-37" xMax="1398" yMax="1777">
      <contour>
        <pt x="739" y="1517" on="1"/>
        <pt x="1044" y="1517" on="0"/>
        <pt x="1221" y="1309" on="1"/>
        <pt x="1398" y="1101" on="0"/>
        <pt x="1398" y="742" on="1"/>
        <pt x="1398" y="377" on="0"/>
        <pt x="1220" y="170" on="1"/>
        <pt x="1043" y="-37" on="0"/>
        <pt x="729" y="-37" on="1"/>
        <pt x="461" y="-37" on="0"/>
        <pt x="292" y="133" on="1"/>
        <pt x="80" y="347" on="0"/>
        <pt x="80" y="740" on="1"/>
        <pt x="80" y="1100" on="0"/>
        <pt x="257" y="1308" on="1"/>
        <pt x="435" y="1517" on="0"/>
      </contour>
      <contour>
        <pt x="739" y="1450" on="1"/>
        <pt x="538" y="1450" on="0"/>
        <pt x="423" y="1261" on="1"/>
        <pt x="308" y="1072" on="0"/>
        <pt x="308" y="741" on="1"/>
        <pt x="308" y="413" on="0"/>
        <pt x="422" y="222" on="1"/>
        <pt x="536" y="31" on="0"/>
        <pt x="734" y="31" on="1"/>
        <pt x="918" y="31" on="0"/>
        <pt x="1030" y="182" on="1"/>
        <pt x="1170" y="371" on="0"/>
        <pt x="1170" y="743" on="1"/>
        <pt x="1170" y="1074" on="0"/>
        <pt x="1055" y="1261" on="1"/>
        <pt x="939" y="1450" on="0"/>
      </contour>
      <contour>
        <pt x="455" y="1604" on="1"/>
        <pt x="455" y="1777" on="1"/>
        <pt x="628" y="1777" on="1"/>
        <pt x="628" y="1604" on="1"/>
      </contour>
      <contour>
        <pt x="850" y="1604" on="1"/>
        <pt x="850" y="1777" on="1"/>
        <pt x="1023" y="1777" on="1"/>
        <pt x="1023" y="1604" on="1"/>
      </contour>
    </TTGlyph>
    <TTGlyph name="Ograve" xMin="80" yMin="-37" xMax="1398" yMax="1925">
      <contour>
        <pt x="739" y="1517" on="1"/>
        <pt x="1044" y="1517" on="0"/>
        <pt x="1221" y="1309" on="1"/>
        <pt x="1398" y="1101" on="0"/>
        <pt x="1398" y="742" on="1"/>
        <pt x="1398" y="377" on="0"/>
        <pt x="1220" y="170" on="1"/>
        <pt x="1043" y="-37" on="0"/>
        <pt x="729" y="-37" on="1"/>
        <pt x="461" y="-37" on="0"/>
        <pt x="292" y="133" on="1"/>
        <pt x="80" y="347" on="0"/>
        <pt x="80" y="740" on="1"/>
        <pt x="80" y="1100" on="0"/>
        <pt x="257" y="1308" on="1"/>
        <pt x="435" y="1517" on="0"/>
      </contour>
      <contour>
        <pt x="739" y="1450" on="1"/>
        <pt x="538" y="1450" on="0"/>
        <pt x="423" y="1261" on="1"/>
        <pt x="308" y="1072" on="0"/>
        <pt x="308" y="741" on="1"/>
        <pt x="308" y="413" on="0"/>
        <pt x="422" y="222" on="1"/>
        <pt x="536" y="31" on="0"/>
        <pt x="734" y="31" on="1"/>
        <pt x="918" y="31" on="0"/>
        <pt x="1030" y="182" on="1"/>
        <pt x="1170" y="371" on="0"/>
        <pt x="1170" y="743" on="1"/>
        <pt x="1170" y="1074" on="0"/>
        <pt x="1055" y="1261" on="1"/>
        <pt x="939" y="1450" on="0"/>
      </contour>
      <contour>
        <pt x="893" y="1604" on="1"/>
        <pt x="800" y="1604" on="1"/>
        <pt x="393" y="1925" on="1"/>
        <pt x="652" y="1925" on="1"/>
      </contour>
    </TTGlyph>
    <TTGlyph name="Ohungarumlaut" xMin="80" yMin="-37" xMax="1398" yMax="1925">
      <contour>
        <pt x="739" y="1517" on="1"/>
        <pt x="1044" y="1517" on="0"/>
        <pt x="1221" y="1309" on="1"/>
        <pt x="1398" y="1101" on="0"/>
        <pt x="1398" y="742" on="1"/>
        <pt x="1398" y="377" on="0"/>
        <pt x="1220" y="170" on="1"/>
        <pt x="1043" y="-37" on="0"/>
        <pt x="729" y="-37" on="1"/>
        <pt x="461" y="-37" on="0"/>
        <pt x="292" y="133" on="1"/>
        <pt x="80" y="347" on="0"/>
        <pt x="80" y="740" on="1"/>
        <pt x="80" y="1100" on="0"/>
        <pt x="257" y="1308" on="1"/>
        <pt x="435" y="1517" on="0"/>
      </contour>
      <contour>
        <pt x="739" y="1450" on="1"/>
        <pt x="538" y="1450" on="0"/>
        <pt x="423" y="1261" on="1"/>
        <pt x="308" y="1072" on="0"/>
        <pt x="308" y="741" on="1"/>
        <pt x="308" y="413" on="0"/>
        <pt x="422" y="222" on="1"/>
        <pt x="536" y="31" on="0"/>
        <pt x="734" y="31" on="1"/>
        <pt x="918" y="31" on="0"/>
        <pt x="1030" y="182" on="1"/>
        <pt x="1170" y="371" on="0"/>
        <pt x="1170" y="743" on="1"/>
        <pt x="1170" y="1074" on="0"/>
        <pt x="1055" y="1261" on="1"/>
        <pt x="939" y="1450" on="0"/>
      </contour>
      <contour>
        <pt x="492" y="1604" on="1"/>
        <pt x="706" y="1925" on="1"/>
        <pt x="875" y="1925" on="1"/>
        <pt x="554" y="1604" on="1"/>
      </contour>
      <contour>
        <pt x="801" y="1604" on="1"/>
        <pt x="1014" y="1925" on="1"/>
        <pt x="1183" y="1925" on="1"/>
        <pt x="862" y="1604" on="1"/>
      </contour>
    </TTGlyph>
    <TTGlyph name="Omacron" xMin="80" yMin="-37" xMax="1398" yMax="1727">
      <contour>
        <pt x="739" y="1517" on="1"/>
        <pt x="1044" y="1517" on="0"/>
        <pt x="1221" y="1309" on="1"/>
        <pt x="1398" y="1101" on="0"/>
        <pt x="1398" y="742" on="1"/>
        <pt x="1398" y="377" on="0"/>
        <pt x="1220" y="170" on="1"/>
        <pt x="1043" y="-37" on="0"/>
        <pt x="729" y="-37" on="1"/>
        <pt x="461" y="-37" on="0"/>
        <pt x="292" y="133" on="1"/>
        <pt x="80" y="347" on="0"/>
        <pt x="80" y="740" on="1"/>
        <pt x="80" y="1100" on="0"/>
        <pt x="257" y="1308" on="1"/>
        <pt x="435" y="1517" on="0"/>
      </contour>
      <contour>
        <pt x="739" y="1450" on="1"/>
        <pt x="538" y="1450" on="0"/>
        <pt x="423" y="1261" on="1"/>
        <pt x="308" y="1072" on="0"/>
        <pt x="308" y="741" on="1"/>
        <pt x="308" y="413" on="0"/>
        <pt x="422" y="222" on="1"/>
        <pt x="536" y="31" on="0"/>
        <pt x="734" y="31" on="1"/>
        <pt x="918" y="31" on="0"/>
        <pt x="1030" y="182" on="1"/>
        <pt x="1170" y="371" on="0"/>
        <pt x="1170" y="743" on="1"/>
        <pt x="1170" y="1074" on="0"/>
        <pt x="1055" y="1261" on="1"/>
        <pt x="939" y="1450" on="0"/>
      </contour>
      <contour>
        <pt x="418" y="1604" on="1"/>
        <pt x="418" y="1727" on="1"/>
        <pt x="1060" y="1727" on="1"/>
        <pt x="1060" y="1604" on="1"/>
      </contour>
    </TTGlyph>
    <TTGlyph name="Oslash" xMin="80" yMin="-37" xMax="1398" yMax="1517">
      <contour>
        <pt x="80" y="-37" on="1"/>
        <pt x="253" y="181" on="1"/>
        <pt x="176" y="282" on="0"/>
        <pt x="137" y="387" on="1"/>
        <pt x="80" y="542" on="0"/>
        <pt x="80" y="741" on="1"/>
        <pt x="80" y="1101" on="0"/>
        <pt x="257" y="1309" on="1"/>
        <pt x="434" y="1517" on="0"/>
        <pt x="739" y="1517" on="1"/>
        <pt x="994" y="1517" on="0"/>
        <pt x="1178" y="1352" on="1"/>
        <pt x="1309" y="1517" on="1"/>
        <pt x="1398" y="1517" on="1"/>
        <pt x="1226" y="1298" on="1"/>
        <pt x="1303" y="1198" on="0"/>
        <pt x="1341" y="1094" on="1"/>
        <pt x="1398" y="938" on="0"/>
        <pt x="1398" y="739" on="1"/>
        <pt x="1398" y="380" on="0"/>
        <pt x="1221" y="172" on="1"/>
        <pt x="1044" y="-37" on="0"/>
        <pt x="739" y="-37" on="1"/>
        <pt x="485" y="-37" on="0"/>
        <pt x="305" y="124" on="1"/>
        <pt x="179" y="-37" on="1"/>
      </contour>
      <contour>
        <pt x="407" y="254" on="1"/>
        <pt x="463" y="154" on="0"/>
        <pt x="526" y="104" on="1"/>
        <pt x="617" y="31" on="0"/>
        <pt x="739" y="31" on="1"/>
        <pt x="940" y="31" on="0"/>
        <pt x="1055" y="220" on="1"/>
        <pt x="1170" y="409" on="0"/>
        <pt x="1170" y="738" on="1"/>
        <pt x="1170" y="973" on="0"/>
        <pt x="1107" y="1147" on="1"/>
      </contour>
      <contour>
        <pt x="1074" y="1220" on="1"/>
        <pt x="1017" y="1323" on="0"/>
        <pt x="954" y="1374" on="1"/>
        <pt x="862" y="1450" on="0"/>
        <pt x="738" y="1450" on="1"/>
        <pt x="538" y="1450" on="0"/>
        <pt x="423" y="1261" on="1"/>
        <pt x="308" y="1072" on="0"/>
        <pt x="308" y="744" on="1"/>
        <pt x="308" y="505" on="0"/>
        <pt x="371" y="332" on="1"/>
      </contour>
    </TTGlyph>
    <TTGlyph name="Otilde" xMin="80" yMin="-37" xMax="1398" yMax="1839">
      <contour>
        <pt x="739" y="1517" on="1"/>
        <pt x="1044" y="1517" on="0"/>
        <pt x="1221" y="1309" on="1"/>
        <pt x="1398" y="1101" on="0"/>
        <pt x="1398" y="742" on="1"/>
        <pt x="1398" y="377" on="0"/>
        <pt x="1220" y="170" on="1"/>
        <pt x="1043" y="-37" on="0"/>
        <pt x="729" y="-37" on="1"/>
        <pt x="461" y="-37" on="0"/>
        <pt x="292" y="133" on="1"/>
        <pt x="80" y="347" on="0"/>
        <pt x="80" y="740" on="1"/>
        <pt x="80" y="1100" on="0"/>
        <pt x="257" y="1308" on="1"/>
        <pt x="435" y="1517" on="0"/>
      </contour>
      <contour>
        <pt x="739" y="1450" on="1"/>
        <pt x="538" y="1450" on="0"/>
        <pt x="423" y="1261" on="1"/>
        <pt x="308" y="1072" on="0"/>
        <pt x="308" y="741" on="1"/>
        <pt x="308" y="413" on="0"/>
        <pt x="422" y="222" on="1"/>
        <pt x="536" y="31" on="0"/>
        <pt x="734" y="31" on="1"/>
        <pt x="918" y="31" on="0"/>
        <pt x="1030" y="182" on="1"/>
        <pt x="1170" y="371" on="0"/>
        <pt x="1170" y="743" on="1"/>
        <pt x="1170" y="1074" on="0"/>
        <pt x="1055" y="1261" on="1"/>
        <pt x="939" y="1450" on="0"/>
      </contour>
      <contour>
        <pt x="406" y="1604" on="1"/>
        <pt x="433" y="1743" on="0"/>
        <pt x="502" y="1797" on="1"/>
        <pt x="555" y="1839" on="0"/>
        <pt x="633" y="1839" on="1"/>
        <pt x="698" y="1839" on="0"/>
        <pt x="751" y="1801" on="1"/>
        <pt x="786" y="1776" on="1"/>
        <pt x="838" y="1739" on="0"/>
        <pt x="892" y="1739" on="1"/>
        <pt x="988" y="1739" on="0"/>
        <pt x="1010" y="1838" on="1"/>
        <pt x="1072" y="1838" on="1"/>
        <pt x="1044" y="1699" on="0"/>
        <pt x="976" y="1646" on="1"/>
        <pt x="922" y="1604" on="0"/>
        <pt x="845" y="1604" on="1"/>
        <pt x="782" y="1604" on="0"/>
        <pt x="727" y="1642" on="1"/>
        <pt x="692" y="1666" on="1"/>
        <pt x="637" y="1704" on="0"/>
        <pt x="585" y="1704" on="1"/>
        <pt x="497" y="1704" on="0"/>
        <pt x="468" y="1604" on="1"/>
      </contour>
    </TTGlyph>
    <TTGlyph name="P" xMin="31" yMin="0" xMax="1108" yMax="1492">
      <contour>
        <pt x="462" y="1480" on="1"/>
        <pt x="608" y="1485" on="1"/>
        <pt x="676" y="1487" on="1"/>
        <pt x="836" y="1492" on="0"/>
        <pt x="947" y="1427" on="1"/>
        <pt x="1108" y="1333" on="0"/>
        <pt x="1108" y="1095" on="1"/>
        <pt x="1108" y="617" on="0"/>
        <pt x="478" y="617" on="1"/>
        <pt x="424" y="617" on="1"/>
        <pt x="424" y="259" on="1"/>
        <pt x="423" y="144" on="0"/>
        <pt x="442" y="104" on="1"/>
        <pt x="457" y="72" on="0"/>
        <pt x="523" y="68" on="1"/>
        <pt x="591" y="63" on="1"/>
        <pt x="634" y="62" on="1"/>
        <pt x="634" y="0" on="1"/>
        <pt x="31" y="0" on="1"/>
        <pt x="31" y="62" on="1"/>
        <pt x="50" y="63" on="1"/>
        <pt x="117" y="68" on="1"/>
        <pt x="193" y="74" on="0"/>
        <pt x="203" y="115" on="1"/>
        <pt x="216" y="177" on="0"/>
        <pt x="216" y="259" on="1"/>
        <pt x="216" y="1221" on="1"/>
        <pt x="216" y="1280" on="0"/>
        <pt x="209" y="1333" on="1"/>
        <pt x="203" y="1372" on="0"/>
        <pt x="195" y="1384" on="1"/>
        <pt x="177" y="1410" on="0"/>
        <pt x="117" y="1413" on="1"/>
        <pt x="50" y="1417" on="1"/>
        <pt x="31" y="1419" on="1"/>
        <pt x="31" y="1480" on="1"/>
      </contour>
      <contour>
        <pt x="424" y="685" on="1"/>
        <pt x="490" y="685" on="1"/>
        <pt x="886" y="685" on="0"/>
        <pt x="886" y="1091" on="1"/>
        <pt x="886" y="1265" on="0"/>
        <pt x="810" y="1339" on="1"/>
        <pt x="735" y="1413" on="0"/>
        <pt x="559" y="1413" on="1"/>
        <pt x="424" y="1413" on="1"/>
      </contour>
    </TTGlyph>
    <TTGlyph name="Q" xMin="80" yMin="-298" xMax="1711" yMax="1517">
      <contour>
        <pt x="1711" y="-174" on="1"/>
        <pt x="1463" y="-298" on="1"/>
        <pt x="1211" y="-224" on="0"/>
        <pt x="926" y="-49" on="1"/>
        <pt x="885" y="-24" on="1"/>
        <pt x="809" y="-37" on="0"/>
        <pt x="739" y="-37" on="1"/>
        <pt x="434" y="-37" on="0"/>
        <pt x="257" y="171" on="1"/>
        <pt x="80" y="380" on="0"/>
        <pt x="80" y="740" on="1"/>
        <pt x="80" y="1099" on="0"/>
        <pt x="257" y="1308" on="1"/>
        <pt x="434" y="1517" on="0"/>
        <pt x="739" y="1517" on="1"/>
        <pt x="1045" y="1517" on="0"/>
        <pt x="1222" y="1308" on="1"/>
        <pt x="1398" y="1100" on="0"/>
        <pt x="1398" y="740" on="1"/>
        <pt x="1398" y="413" on="0"/>
        <pt x="1247" y="204" on="1"/>
        <pt x="1145" y="62" on="0"/>
        <pt x="974" y="1" on="1"/>
        <pt x="1211" y="-136" on="0"/>
      </contour>
      <contour>
        <pt x="740" y="1450" on="1"/>
        <pt x="540" y="1450" on="0"/>
        <pt x="424" y="1262" on="1"/>
        <pt x="308" y="1074" on="0"/>
        <pt x="308" y="748" on="1"/>
        <pt x="308" y="442" on="0"/>
        <pt x="403" y="256" on="1"/>
        <pt x="518" y="31" on="0"/>
        <pt x="740" y="31" on="1"/>
        <pt x="941" y="31" on="0"/>
        <pt x="1056" y="220" on="1"/>
        <pt x="1170" y="409" on="0"/>
        <pt x="1170" y="740" on="1"/>
        <pt x="1170" y="1073" on="0"/>
        <pt x="1056" y="1261" on="1"/>
        <pt x="940" y="1450" on="0"/>
      </contour>
    </TTGlyph>
    <TTGlyph name="R" xMin="31" yMin="0" xMax="1354" yMax="1492">
      <contour>
        <pt x="387" y="1480" on="1"/>
        <pt x="485" y="1482" on="1"/>
        <pt x="567" y="1485" on="1"/>
        <pt x="647" y="1487" on="1"/>
        <pt x="827" y="1492" on="0"/>
        <pt x="948" y="1423" on="1"/>
        <pt x="1106" y="1332" on="0"/>
        <pt x="1106" y="1112" on="1"/>
        <pt x="1106" y="924" on="0"/>
        <pt x="993" y="811" on="1"/>
        <pt x="926" y="745" on="0"/>
        <pt x="800" y="697" on="1"/>
        <pt x="1090" y="261" on="1"/>
        <pt x="1183" y="132" on="1"/>
        <pt x="1226" y="71" on="0"/>
        <pt x="1291" y="66" on="1"/>
        <pt x="1333" y="63" on="1"/>
        <pt x="1354" y="62" on="1"/>
        <pt x="1354" y="0" on="1"/>
        <pt x="1001" y="0" on="1"/>
        <pt x="597" y="651" on="1"/>
        <pt x="426" y="651" on="1"/>
        <pt x="426" y="259" on="1"/>
        <pt x="431" y="160" on="1"/>
        <pt x="433" y="90" on="0"/>
        <pt x="459" y="79" on="1"/>
        <pt x="485" y="69" on="0"/>
        <pt x="568" y="63" on="1"/>
        <pt x="586" y="62" on="1"/>
        <pt x="586" y="0" on="1"/>
        <pt x="31" y="0" on="1"/>
        <pt x="31" y="62" on="1"/>
        <pt x="50" y="63" on="1"/>
        <pt x="117" y="68" on="1"/>
        <pt x="193" y="74" on="0"/>
        <pt x="203" y="115" on="1"/>
        <pt x="216" y="177" on="0"/>
        <pt x="216" y="259" on="1"/>
        <pt x="216" y="1221" on="1"/>
        <pt x="216" y="1280" on="0"/>
        <pt x="209" y="1333" on="1"/>
        <pt x="203" y="1372" on="0"/>
        <pt x="195" y="1384" on="1"/>
        <pt x="177" y="1410" on="0"/>
        <pt x="117" y="1413" on="1"/>
        <pt x="50" y="1417" on="1"/>
        <pt x="31" y="1419" on="1"/>
        <pt x="31" y="1480" on="1"/>
      </contour>
      <contour>
        <pt x="426" y="719" on="1"/>
        <pt x="500" y="719" on="1"/>
        <pt x="890" y="719" on="0"/>
        <pt x="890" y="1094" on="1"/>
        <pt x="890" y="1266" on="0"/>
        <pt x="817" y="1340" on="1"/>
        <pt x="744" y="1413" on="0"/>
        <pt x="568" y="1413" on="1"/>
        <pt x="426" y="1413" on="1"/>
      </contour>
    </TTGlyph>
    <TTGlyph name="Racute" xMin="31" yMin="0" xMax="1354" yMax="1925">
      <contour>
        <pt x="387" y="1480" on="1"/>
        <pt x="485" y="1482" on="1"/>
        <pt x="567" y="1485" on="1"/>
        <pt x="647" y="1487" on="1"/>
        <pt x="827" y="1492" on="0"/>
        <pt x="948" y="1423" on="1"/>
        <pt x="1106" y="1332" on="0"/>
        <pt x="1106" y="1112" on="1"/>
        <pt x="1106" y="924" on="0"/>
        <pt x="993" y="811" on="1"/>
        <pt x="926" y="745" on="0"/>
        <pt x="800" y="697" on="1"/>
        <pt x="1090" y="261" on="1"/>
        <pt x="1183" y="132" on="1"/>
        <pt x="1226" y="71" on="0"/>
        <pt x="1291" y="66" on="1"/>
        <pt x="1333" y="63" on="1"/>
        <pt x="1354" y="62" on="1"/>
        <pt x="1354" y="0" on="1"/>
        <pt x="1001" y="0" on="1"/>
        <pt x="597" y="651" on="1"/>
        <pt x="426" y="651" on="1"/>
        <pt x="426" y="259" on="1"/>
        <pt x="431" y="160" on="1"/>
        <pt x="433" y="90" on="0"/>
        <pt x="459" y="79" on="1"/>
        <pt x="485" y="69" on="0"/>
        <pt x="568" y="63" on="1"/>
        <pt x="586" y="62" on="1"/>
        <pt x="586" y="0" on="1"/>
        <pt x="31" y="0" on="1"/>
        <pt x="31" y="62" on="1"/>
        <pt x="50" y="63" on="1"/>
        <pt x="117" y="68" on="1"/>
        <pt x="193" y="74" on="0"/>
        <pt x="203" y="115" on="1"/>
        <pt x="216" y="177" on="0"/>
        <pt x="216" y="259" on="1"/>
        <pt x="216" y="1221" on="1"/>
        <pt x="216" y="1280" on="0"/>
        <pt x="209" y="1333" on="1"/>
        <pt x="203" y="1372" on="0"/>
        <pt x="195" y="1384" on="1"/>
        <pt x="177" y="1410" on="0"/>
        <pt x="117" y="1413" on="1"/>
        <pt x="50" y="1417" on="1"/>
        <pt x="31" y="1419" on="1"/>
        <pt x="31" y="1480" on="1"/>
      </contour>
      <contour>
        <pt x="426" y="719" on="1"/>
        <pt x="500" y="719" on="1"/>
        <pt x="890" y="719" on="0"/>
        <pt x="890" y="1094" on="1"/>
        <pt x="890" y="1266" on="0"/>
        <pt x="817" y="1340" on="1"/>
        <pt x="744" y="1413" on="0"/>
        <pt x="568" y="1413" on="1"/>
        <pt x="426" y="1413" on="1"/>
      </contour>
      <contour>
        <pt x="463" y="1604" on="1"/>
        <pt x="704" y="1925" on="1"/>
        <pt x="963" y="1925" on="1"/>
        <pt x="556" y="1604" on="1"/>
      </contour>
    </TTGlyph>
    <TTGlyph name="Rcaron" xMin="31" yMin="0" xMax="1354" yMax="1925">
      <contour>
        <pt x="387" y="1480" on="1"/>
        <pt x="485" y="1482" on="1"/>
        <pt x="567" y="1485" on="1"/>
        <pt x="647" y="1487" on="1"/>
        <pt x="827" y="1492" on="0"/>
        <pt x="948" y="1423" on="1"/>
        <pt x="1106" y="1332" on="0"/>
        <pt x="1106" y="1112" on="1"/>
        <pt x="1106" y="924" on="0"/>
        <pt x="993" y="811" on="1"/>
        <pt x="926" y="745" on="0"/>
        <pt x="800" y="697" on="1"/>
        <pt x="1090" y="261" on="1"/>
        <pt x="1183" y="132" on="1"/>
        <pt x="1226" y="71" on="0"/>
        <pt x="1291" y="66" on="1"/>
        <pt x="1333" y="63" on="1"/>
        <pt x="1354" y="62" on="1"/>
        <pt x="1354" y="0" on="1"/>
        <pt x="1001" y="0" on="1"/>
        <pt x="597" y="651" on="1"/>
        <pt x="426" y="651" on="1"/>
        <pt x="426" y="259" on="1"/>
        <pt x="431" y="160" on="1"/>
        <pt x="433" y="90" on="0"/>
        <pt x="459" y="79" on="1"/>
        <pt x="485" y="69" on="0"/>
        <pt x="568" y="63" on="1"/>
        <pt x="586" y="62" on="1"/>
        <pt x="586" y="0" on="1"/>
        <pt x="31" y="0" on="1"/>
        <pt x="31" y="62" on="1"/>
        <pt x="50" y="63" on="1"/>
        <pt x="117" y="68" on="1"/>
        <pt x="193" y="74" on="0"/>
        <pt x="203" y="115" on="1"/>
        <pt x="216" y="177" on="0"/>
        <pt x="216" y="259" on="1"/>
        <pt x="216" y="1221" on="1"/>
        <pt x="216" y="1280" on="0"/>
        <pt x="209" y="1333" on="1"/>
        <pt x="203" y="1372" on="0"/>
        <pt x="195" y="1384" on="1"/>
        <pt x="177" y="1410" on="0"/>
        <pt x="117" y="1413" on="1"/>
        <pt x="50" y="1417" on="1"/>
        <pt x="31" y="1419" on="1"/>
        <pt x="31" y="1480" on="1"/>
      </contour>
      <contour>
        <pt x="426" y="719" on="1"/>
        <pt x="500" y="719" on="1"/>
        <pt x="890" y="719" on="0"/>
        <pt x="890" y="1094" on="1"/>
        <pt x="890" y="1266" on="0"/>
        <pt x="817" y="1340" on="1"/>
        <pt x="744" y="1413" on="0"/>
        <pt x="568" y="1413" on="1"/>
        <pt x="426" y="1413" on="1"/>
      </contour>
      <contour>
        <pt x="938" y="1925" on="1"/>
        <pt x="698" y="1604" on="1"/>
        <pt x="476" y="1604" on="1"/>
        <pt x="235" y="1925" on="1"/>
        <pt x="321" y="1925" on="1"/>
        <pt x="587" y="1703" on="1"/>
        <pt x="852" y="1925" on="1"/>
      </contour>
    </TTGlyph>
    <TTGlyph name="Rcommaaccent" xMin="31" yMin="-432" xMax="1354" yMax="1491">
      <contour>
        <pt x="387" y="1480" on="1"/>
        <pt x="485" y="1482" on="1"/>
        <pt x="567" y="1485" on="1"/>
        <pt x="647" y="1487" on="1"/>
        <pt x="828" y="1491" on="0"/>
        <pt x="948" y="1423" on="1"/>
        <pt x="1106" y="1332" on="0"/>
        <pt x="1106" y="1112" on="1"/>
        <pt x="1106" y="924" on="0"/>
        <pt x="993" y="811" on="1"/>
        <pt x="926" y="745" on="0"/>
        <pt x="800" y="697" on="1"/>
        <pt x="1090" y="261" on="1"/>
        <pt x="1183" y="132" on="1"/>
        <pt x="1226" y="71" on="0"/>
        <pt x="1291" y="66" on="1"/>
        <pt x="1333" y="63" on="1"/>
        <pt x="1354" y="62" on="1"/>
        <pt x="1354" y="0" on="1"/>
        <pt x="1001" y="0" on="1"/>
        <pt x="597" y="651" on="1"/>
        <pt x="426" y="651" on="1"/>
        <pt x="426" y="259" on="1"/>
        <pt x="431" y="160" on="1"/>
        <pt x="433" y="90" on="0"/>
        <pt x="459" y="79" on="1"/>
        <pt x="485" y="69" on="0"/>
        <pt x="568" y="63" on="1"/>
        <pt x="586" y="62" on="1"/>
        <pt x="586" y="0" on="1"/>
        <pt x="31" y="0" on="1"/>
        <pt x="31" y="62" on="1"/>
        <pt x="50" y="63" on="1"/>
        <pt x="117" y="68" on="1"/>
        <pt x="193" y="74" on="0"/>
        <pt x="203" y="115" on="1"/>
        <pt x="216" y="177" on="0"/>
        <pt x="216" y="259" on="1"/>
        <pt x="216" y="1221" on="1"/>
        <pt x="216" y="1280" on="0"/>
        <pt x="209" y="1333" on="1"/>
        <pt x="203" y="1372" on="0"/>
        <pt x="195" y="1384" on="1"/>
        <pt x="177" y="1410" on="0"/>
        <pt x="117" y="1413" on="1"/>
        <pt x="50" y="1417" on="1"/>
        <pt x="31" y="1419" on="1"/>
        <pt x="31" y="1480" on="1"/>
      </contour>
      <contour>
        <pt x="426" y="719" on="1"/>
        <pt x="500" y="719" on="1"/>
        <pt x="890" y="719" on="0"/>
        <pt x="890" y="1094" on="1"/>
        <pt x="890" y="1266" on="0"/>
        <pt x="817" y="1340" on="1"/>
        <pt x="744" y="1413" on="0"/>
        <pt x="568" y="1413" on="1"/>
        <pt x="426" y="1413" on="1"/>
      </contour>
      <contour>
        <pt x="574" y="-421" on="1"/>
        <pt x="574" y="-349" on="1"/>
        <pt x="623" y="-359" on="0"/>
        <pt x="678" y="-359" on="1"/>
        <pt x="781" y="-359" on="0"/>
        <pt x="781" y="-279" on="1"/>
        <pt x="781" y="-190" on="0"/>
        <pt x="623" y="-175" on="1"/>
        <pt x="623" y="-111" on="1"/>
        <pt x="757" y="-114" on="0"/>
        <pt x="823" y="-143" on="1"/>
        <pt x="916" y="-185" on="0"/>
        <pt x="916" y="-280" on="1"/>
        <pt x="916" y="-432" on="0"/>
        <pt x="699" y="-432" on="1"/>
        <pt x="640" y="-432" on="0"/>
      </contour>
    </TTGlyph>
    <TTGlyph name="S" xMin="119" yMin="-37" xMax="1045" yMax="1517">
      <contour>
        <pt x="119" y="30" on="1"/>
        <pt x="119" y="315" on="1"/>
        <pt x="224" y="315" on="1"/>
        <pt x="225" y="297" on="1"/>
        <pt x="227" y="257" on="0"/>
        <pt x="228" y="228" on="1"/>
        <pt x="228" y="222" on="1"/>
        <pt x="228" y="147" on="0"/>
        <pt x="297" y="99" on="1"/>
        <pt x="386" y="37" on="0"/>
        <pt x="542" y="37" on="1"/>
        <pt x="835" y="37" on="0"/>
        <pt x="835" y="319" on="1"/>
        <pt x="835" y="437" on="0"/>
        <pt x="790" y="498" on="1"/>
        <pt x="746" y="558" on="0"/>
        <pt x="602" y="636" on="1"/>
        <pt x="470" y="707" on="1"/>
        <pt x="130" y="890" on="0"/>
        <pt x="130" y="1129" on="1"/>
        <pt x="130" y="1298" on="0"/>
        <pt x="255" y="1408" on="1"/>
        <pt x="379" y="1517" on="0"/>
        <pt x="581" y="1517" on="1"/>
        <pt x="741" y="1517" on="0"/>
        <pt x="962" y="1454" on="1"/>
        <pt x="962" y="1191" on="1"/>
        <pt x="851" y="1191" on="1"/>
        <pt x="850" y="1208" on="1"/>
        <pt x="847" y="1248" on="0"/>
        <pt x="846" y="1281" on="1"/>
        <pt x="846" y="1287" on="1"/>
        <pt x="846" y="1364" on="0"/>
        <pt x="797" y="1403" on="1"/>
        <pt x="739" y="1450" on="0"/>
        <pt x="596" y="1450" on="1"/>
        <pt x="332" y="1450" on="0"/>
        <pt x="332" y="1196" on="1"/>
        <pt x="332" y="1093" on="0"/>
        <pt x="376" y="1033" on="1"/>
        <pt x="419" y="973" on="0"/>
        <pt x="544" y="906" on="1"/>
        <pt x="676" y="835" on="1"/>
        <pt x="891" y="719" on="0"/>
        <pt x="968" y="626" on="1"/>
        <pt x="1045" y="534" on="0"/>
        <pt x="1045" y="392" on="1"/>
        <pt x="1045" y="206" on="0"/>
        <pt x="906" y="84" on="1"/>
        <pt x="768" y="-37" on="0"/>
        <pt x="536" y="-37" on="1"/>
        <pt x="304" y="-37" on="0"/>
      </contour>
    </TTGlyph>
    <TTGlyph name="Sacute" xMin="119" yMin="-37" xMax="1045" yMax="1925">
      <contour>
        <pt x="119" y="30" on="1"/>
        <pt x="119" y="315" on="1"/>
        <pt x="224" y="315" on="1"/>
        <pt x="225" y="297" on="1"/>
        <pt x="227" y="257" on="0"/>
        <pt x="228" y="228" on="1"/>
        <pt x="228" y="222" on="1"/>
        <pt x="228" y="147" on="0"/>
        <pt x="297" y="99" on="1"/>
        <pt x="386" y="37" on="0"/>
        <pt x="542" y="37" on="1"/>
        <pt x="835" y="37" on="0"/>
        <pt x="835" y="319" on="1"/>
        <pt x="835" y="437" on="0"/>
        <pt x="790" y="498" on="1"/>
        <pt x="746" y="558" on="0"/>
        <pt x="602" y="636" on="1"/>
        <pt x="470" y="707" on="1"/>
        <pt x="130" y="890" on="0"/>
        <pt x="130" y="1129" on="1"/>
        <pt x="130" y="1298" on="0"/>
        <pt x="255" y="1408" on="1"/>
        <pt x="379" y="1517" on="0"/>
        <pt x="581" y="1517" on="1"/>
        <pt x="741" y="1517" on="0"/>
        <pt x="962" y="1454" on="1"/>
        <pt x="962" y="1191" on="1"/>
        <pt x="851" y="1191" on="1"/>
        <pt x="850" y="1208" on="1"/>
        <pt x="847" y="1248" on="0"/>
        <pt x="846" y="1281" on="1"/>
        <pt x="846" y="1287" on="1"/>
        <pt x="846" y="1364" on="0"/>
        <pt x="797" y="1403" on="1"/>
        <pt x="739" y="1450" on="0"/>
        <pt x="596" y="1450" on="1"/>
        <pt x="332" y="1450" on="0"/>
        <pt x="332" y="1196" on="1"/>
        <pt x="332" y="1093" on="0"/>
        <pt x="376" y="1033" on="1"/>
        <pt x="419" y="973" on="0"/>
        <pt x="544" y="906" on="1"/>
        <pt x="676" y="835" on="1"/>
        <pt x="891" y="719" on="0"/>
        <pt x="968" y="626" on="1"/>
        <pt x="1045" y="534" on="0"/>
        <pt x="1045" y="392" on="1"/>
        <pt x="1045" y="206" on="0"/>
        <pt x="906" y="84" on="1"/>
        <pt x="768" y="-37" on="0"/>
        <pt x="536" y="-37" on="1"/>
        <pt x="304" y="-37" on="0"/>
      </contour>
      <contour>
        <pt x="482" y="1604" on="1"/>
        <pt x="723" y="1925" on="1"/>
        <pt x="982" y="1925" on="1"/>
        <pt x="575" y="1604" on="1"/>
      </contour>
    </TTGlyph>
    <TTGlyph name="Scaron" xMin="119" yMin="-37" xMax="1045" yMax="1925">
      <contour>
        <pt x="119" y="30" on="1"/>
        <pt x="119" y="315" on="1"/>
        <pt x="224" y="315" on="1"/>
        <pt x="225" y="297" on="1"/>
        <pt x="227" y="257" on="0"/>
        <pt x="228" y="228" on="1"/>
        <pt x="228" y="222" on="1"/>
        <pt x="228" y="147" on="0"/>
        <pt x="297" y="99" on="1"/>
        <pt x="386" y="37" on="0"/>
        <pt x="542" y="37" on="1"/>
        <pt x="835" y="37" on="0"/>
        <pt x="835" y="319" on="1"/>
        <pt x="835" y="437" on="0"/>
        <pt x="790" y="498" on="1"/>
        <pt x="746" y="558" on="0"/>
        <pt x="602" y="636" on="1"/>
        <pt x="470" y="707" on="1"/>
        <pt x="130" y="890" on="0"/>
        <pt x="130" y="1129" on="1"/>
        <pt x="130" y="1298" on="0"/>
        <pt x="255" y="1408" on="1"/>
        <pt x="379" y="1517" on="0"/>
        <pt x="581" y="1517" on="1"/>
        <pt x="741" y="1517" on="0"/>
        <pt x="962" y="1454" on="1"/>
        <pt x="962" y="1191" on="1"/>
        <pt x="851" y="1191" on="1"/>
        <pt x="850" y="1208" on="1"/>
        <pt x="847" y="1248" on="0"/>
        <pt x="846" y="1281" on="1"/>
        <pt x="846" y="1287" on="1"/>
        <pt x="846" y="1364" on="0"/>
        <pt x="797" y="1403" on="1"/>
        <pt x="739" y="1450" on="0"/>
        <pt x="596" y="1450" on="1"/>
        <pt x="332" y="1450" on="0"/>
        <pt x="332" y="1196" on="1"/>
        <pt x="332" y="1093" on="0"/>
        <pt x="376" y="1033" on="1"/>
        <pt x="419" y="973" on="0"/>
        <pt x="544" y="906" on="1"/>
        <pt x="676" y="835" on="1"/>
        <pt x="891" y="719" on="0"/>
        <pt x="968" y="626" on="1"/>
        <pt x="1045" y="534" on="0"/>
        <pt x="1045" y="392" on="1"/>
        <pt x="1045" y="206" on="0"/>
        <pt x="906" y="84" on="1"/>
        <pt x="768" y="-37" on="0"/>
        <pt x="536" y="-37" on="1"/>
        <pt x="304" y="-37" on="0"/>
      </contour>
      <contour>
        <pt x="926" y="1925" on="1"/>
        <pt x="686" y="1604" on="1"/>
        <pt x="464" y="1604" on="1"/>
        <pt x="223" y="1925" on="1"/>
        <pt x="309" y="1925" on="1"/>
        <pt x="575" y="1703" on="1"/>
        <pt x="840" y="1925" on="1"/>
      </contour>
    </TTGlyph>
</ttFont>
